SplineFontDB: 3.0
FontName: EngravingShadedCC
FullName: Engraving Shaded CC
FamilyName: Engraving Shaded CC
Weight: Bold
Copyright: Copyright 2020 The Cowboy Collective (https://cowboycollective.cc)
UComments: "Made with love by indestructible type* for the Cowboy Collective"
Version: 001.000
ItalicAngle: 0
UnderlinePosition: -200
UnderlineWidth: 100
Ascent: 1600
Descent: 400
InvalidEm: 0
LayerCount: 2
Layer: 0 0 "Back" 1
Layer: 1 0 "Fore" 0
PreferredKerning: 4
XUID: [1021 31 -699969567 16188444]
FSType: 0
OS2Version: 0
OS2_WeightWidthSlopeOnly: 0
OS2_UseTypoMetrics: 0
CreationTime: 1465610489
ModificationTime: 1594126396
PfmFamily: 33
TTFWeight: 700
TTFWidth: 5
LineGap: 0
VLineGap: 0
OS2TypoAscent: 2060
OS2TypoAOffset: 0
OS2TypoDescent: -700
OS2TypoDOffset: 0
OS2TypoLinegap: 0
OS2WinAscent: 2060
OS2WinAOffset: 0
OS2WinDescent: 700
OS2WinDOffset: 0
HheadAscent: 2060
HheadAOffset: 0
HheadDescent: -700
HheadDOffset: 0
OS2CapHeight: 700
OS2XHeight: 460
OS2Vendor: 'it* '
Lookup: 258 0 0 "'kern' Horizontal Kerning lookup 0" { "kerning like they all do" [150,0,6] } ['kern' ('DFLT' <'dflt' > 'grek' <'dflt' > 'latn' <'dflt' > ) ]
MarkAttachClasses: 1
DEI: 91125
KernClass2: 16 12 "kerning like they all do"
 108 A backslash a agrave aacute acircumflex atilde adieresis aring Amacron amacron Abreve abreve Aogonek aogonek
 197 D O d o Ograve Oacute Ocircumflex Otilde Odieresis Oslash eth ograve oacute ocircumflex otilde odieresis oslash Dcaron dcaron Dcroat dcroat Omacron omacron Obreve obreve Ohungarumlaut ohungarumlaut
 32 K X k x ccedilla uni0136 uni0137
 31 V W v w Wcircumflex wcircumflex
 57 L l Lacute lacute Lcommaaccent lcommaaccent Lslash lslash
 47 F T f t uni0162 uni0163 Tcaron tcaron Tbar tbar
 54 Y y Yacute ydieresis Ycircumflex ycircumflex Ydieresis
 173 J U j u Ugrave Uacute Ucircumflex Udieresis IJ ij Jcircumflex jcircumflex Utilde utilde Umacron umacron Ubreve ubreve Uring uring Uhungarumlaut uhungarumlaut Uogonek uogonek
 3 P p

StartChar: T
Encoding: 84 84 1
GlifName: T_
Width: 1870
Flags: HMW
AnchorPoint: "cedilla" 935 0 basechar 0
AnchorPoint: "bottom" 935 0 basechar 0
AnchorPoint: "top" 944 1400 basechar 0
LayerCount: 2
Fore
SplineSet
416 13 m 1
 416 10 l 1
 427 10 l 1
 432 15 l 2
 437 16 443 16 448 17 c 1
 438 16 427 14 416 13 c 1
396 20 m 1
 477 29 527 39 592 65 c 0
 692 104 720 120 720 175 c 2
 720 1370 l 1
 590 1370 l 2
 451 1370 358 1230 274 1129 c 0
 187 1024 107 905 48 820 c 1
 28 820 l 1
 28 1400 l 1
 633 1400 1237 1400 1842 1400 c 1
 1842 820 l 1
 1822 820 l 1
 1763 905 1683 1024 1596 1129 c 0
 1512 1230 1419 1370 1280 1370 c 2
 1150 1370 l 1
 1150 175 l 2
 1150 120 1178 104 1278 65 c 0
 1343 39 1393 29 1474 20 c 1
 1474 0 l 1
 396 0 l 1
 396 20 l 1
988 121 m 2
 990 118 993 116 995 113 c 2
 892 10 l 1
 907 10 l 1
 1002 105 l 2
 1004 103 1007 101 1009 99 c 1
 998 108 988 118 982 130 c 1
 862 10 l 1
 877 10 l 1
 988 121 l 2
505 28 m 2
 512 30 518 31 525 33 c 2
 502 10 l 1
 517 10 l 1
 546 39 l 2
 553 41 561 43 568 46 c 1
 541 37 515 30 486 24 c 1
 472 10 l 1
 487 10 l 1
 505 28 l 2
1207 10 m 1
 1212 15 l 2
 1213 15 1212 14 1213 14 c 1
 1209 16 1204 17 1200 18 c 2
 1192 10 l 1
 1207 10 l 1
1189 22 m 2
 1185 23 1182 25 1178 26 c 2
 1162 10 l 1
 1177 10 l 1
 1189 22 l 2
1197 19 m 1
 1195 20 1192 21 1190 22 c 1
 1192 21 1195 20 1197 19 c 1
1147 10 m 1
 1167 30 l 2
 1170 29 1174 27 1177 26 c 1
 1170 28 1163 32 1156 34 c 1
 1132 10 l 1
 1147 10 l 1
1117 10 m 1
 1144 37 l 2
 1146 36 1147 37 1149 36 c 1
 1144 38 1138 39 1133 41 c 1
 1102 10 l 1
 1117 10 l 1
1122 45 m 1
 1116 47 1110 50 1104 52 c 1
 1107 51 1108 50 1111 49 c 2
 1072 10 l 1
 1087 10 l 1
 1122 45 l 1
1128 43 m 1
 1126 44 1124 44 1122 45 c 1
 1124 44 1126 44 1128 43 c 1
1100 53 m 2
 1098 54 1096 55 1094 56 c 0
 1093 57 1091 57 1090 58 c 2
 1042 10 l 1
 1057 10 l 1
 1100 53 l 2
1027 10 m 1
 1079 62 l 2
 1081 61 1084 60 1086 59 c 1
 1080 62 1073 64 1067 67 c 1
 1068 66 l 2
 1012 10 l 1
 1027 10 l 1
1058 71 m 1
 1052 74 1046 76 1041 79 c 1
 1043 78 1046 77 1048 76 c 2
 982 10 l 1
 997 10 l 1
 1058 71 l 1
1060 70 m 1
 1059 71 l 1
 1060 70 l 1
1038 81 m 2
 1035 83 1031 84 1028 86 c 2
 952 10 l 1
 967 10 l 1
 1038 81 l 2
1019 92 m 2
 1016 94 1013 96 1010 98 c 2
 922 10 l 1
 937 10 l 1
 1019 92 l 2
978 141 m 2
 977 145 975 148 974 152 c 2
 832 10 l 1
 847 10 l 1
 978 141 l 2
978 139 m 1
 979 137 980 134 981 132 c 1
 980 134 979 137 978 139 c 1
817 10 m 1
 972 165 l 2
 972 165 l 1
 972 168 972 171 972 175 c 2
 972 180 l 1
 802 10 l 1
 817 10 l 1
787 10 m 1
 972 195 l 1
 972 210 l 1
 772 10 l 1
 787 10 l 1
757 10 m 1
 972 225 l 1
 972 240 l 1
 742 10 l 1
 757 10 l 1
727 10 m 1
 972 255 l 1
 972 270 l 1
 712 10 l 1
 727 10 l 1
697 10 m 1
 972 285 l 1
 972 300 l 1
 682 10 l 1
 697 10 l 1
1691 1034 m 2
 1692 1035 l 1
 1692 1050 l 1
 1684 1042 l 2
 1686 1039 1689 1037 1691 1034 c 2
667 10 m 1
 972 315 l 1
 972 330 l 1
 652 10 l 1
 667 10 l 1
1678 1049 m 1
 1677 1050 l 2
 1692 1065 l 1
 1692 1080 l 1
 1670 1058 l 2
 1672 1055 1676 1052 1678 1049 c 1
637 10 m 1
 972 345 l 1
 972 360 l 1
 622 10 l 1
 637 10 l 1
1664 1067 m 2
 1692 1095 l 1
 1692 1110 l 1
 1657 1075 l 2
 1659 1072 1662 1070 1664 1067 c 2
607 10 m 1
 972 375 l 1
 972 390 l 1
 726 144 l 2
 728 150 728 155 729 162 c 1
 972 405 l 1
 972 420 l 1
 730 178 l 1
 730 175 l 2
 730 131 713 110 668 87 c 1
 669 87 670 89 671 89 c 2
 592 10 l 1
 607 10 l 1
1650 1083 m 2
 1692 1125 l 1
 1692 1140 l 1
 1643 1091 l 2
 1645 1088 1648 1086 1650 1083 c 2
642 75 m 1
 630 70 617 64 601 58 c 1
 607 60 612 63 617 65 c 2
 562 10 l 1
 577 10 l 1
 642 75 l 1
1637 1100 m 2
 1692 1155 l 1
 1692 1170 l 1
 1630 1108 l 2
 1632 1105 1635 1103 1637 1100 c 2
1637 1099 m 1
 1638 1097 1640 1096 1641 1094 c 1
 1640 1096 1638 1097 1637 1099 c 1
972 435 m 1
 972 450 l 1
 730 208 l 1
 730 193 l 1
 972 435 l 1
592 55 m 2
 584 52 576 49 568 46 c 2
 532 10 l 1
 547 10 l 1
 592 55 l 2
597 57 m 1
 597 57 l 1
 597 57 l 1
595 56 m 1
 596 56 596 57 597 57 c 1
 596 57 596 56 595 56 c 1
1627 1112 m 1
 1626 1114 1624 1114 1623 1116 c 2
 1692 1185 l 1
 1692 1200 l 1
 1617 1125 l 2
 1615 1128 1612 1130 1610 1133 c 2
 1692 1215 l 1
 1692 1230 l 1
 1603 1141 l 2
 1602 1143 1600 1145 1599 1147 c 1
 1608 1136 1617 1124 1627 1112 c 1
972 465 m 1
 972 480 l 1
 730 238 l 1
 730 223 l 1
 972 465 l 1
972 495 m 1
 972 510 l 1
 730 268 l 1
 730 253 l 1
 972 495 l 1
1597 1150 m 1
 1692 1245 l 1
 1692 1260 l 1
 1590 1158 l 2
 1588 1161 1585 1163 1583 1166 c 2
 1692 1275 l 1
 1692 1290 l 1
 1577 1175 l 2
 1575 1178 1572 1180 1570 1183 c 2
 1692 1305 l 1
 1692 1320 l 1
 1563 1191 l 2
 1562 1193 1560 1195 1559 1197 c 1
 1571 1182 1583 1167 1597 1150 c 1
972 525 m 1
 972 540 l 1
 730 298 l 1
 730 283 l 1
 972 525 l 1
467 20 m 2
 461 19 455 18 449 17 c 2
 442 10 l 1
 457 10 l 1
 467 20 l 2
972 555 m 1
 972 570 l 1
 730 328 l 1
 730 313 l 1
 972 555 l 1
972 585 m 1
 972 600 l 1
 730 358 l 1
 730 343 l 1
 972 585 l 1
1557 1200 m 1
 1692 1335 l 1
 1692 1350 l 1
 1550 1208 l 2
 1549 1210 1547 1211 1546 1213 c 1
 1550 1209 1553 1205 1557 1200 c 1
972 615 m 1
 972 630 l 1
 730 388 l 1
 730 373 l 1
 972 615 l 1
1543 1216 m 2
 1692 1365 l 1
 1692 1380 l 1
 1536 1224 l 2
 1538 1221 1541 1219 1543 1216 c 2
972 645 m 1
 972 660 l 1
 730 418 l 1
 730 403 l 1
 972 645 l 1
1530 1233 m 2
 1687 1390 l 1
 1672 1390 l 1
 1523 1241 l 2
 1522 1242 l 1
 1525 1239 1527 1236 1530 1233 c 2
972 675 m 1
 972 690 l 1
 730 448 l 1
 730 433 l 1
 972 675 l 1
1518 1246 m 1
 1517 1247 1517 1248 1516 1249 c 2
 1657 1390 l 1
 1642 1390 l 1
 1509 1257 l 1
 1512 1253 1515 1250 1518 1246 c 1
972 705 m 1
 972 720 l 1
 730 478 l 1
 730 463 l 1
 972 705 l 1
1504 1263 m 1
 1503 1264 1503 1264 1502 1265 c 2
 1627 1390 l 1
 1612 1390 l 1
 1495 1273 l 2
 1494 1274 l 1
 1497 1270 1501 1267 1504 1263 c 1
972 735 m 1
 972 750 l 1
 730 508 l 1
 730 493 l 1
 972 735 l 1
1488 1281 m 2
 1597 1390 l 1
 1582 1390 l 1
 1480 1288 l 2
 1482 1286 1486 1284 1488 1281 c 2
972 765 m 1
 972 780 l 1
 730 538 l 1
 730 523 l 1
 972 765 l 1
1473 1296 m 2
 1567 1390 l 1
 1552 1390 l 1
 1465 1303 l 2
 1468 1301 1470 1299 1473 1296 c 2
1475 1293 m 1
 1476 1292 1477 1291 1478 1290 c 1
 1477 1291 1476 1292 1475 1293 c 1
972 795 m 1
 972 810 l 1
 730 568 l 1
 730 553 l 1
 972 795 l 1
1457 1310 m 1
 1537 1390 l 1
 1522 1390 l 1
 1449 1317 l 2
 1446 1319 1445 1322 1442 1324 c 1
 1447 1320 1452 1315 1457 1310 c 1
1465 1303 m 1
 1464 1304 1463 1305 1462 1306 c 1
 1463 1305 1464 1304 1465 1303 c 1
972 825 m 1
 972 840 l 1
 730 598 l 1
 730 583 l 1
 972 825 l 1
1441 1324 m 1
 1507 1390 l 1
 1492 1390 l 1
 1433 1331 l 2
 1432 1332 1431 1332 1430 1333 c 1
 1434 1330 1437 1327 1441 1324 c 1
972 855 m 1
 972 870 l 1
 730 628 l 1
 730 613 l 1
 972 855 l 1
1426 1336 m 1
 1425 1336 1425 1337 1424 1337 c 2
 1477 1390 l 1
 1462 1390 l 1
 1415 1343 l 1
 1419 1341 1422 1339 1426 1336 c 1
972 885 m 1
 972 900 l 1
 730 658 l 1
 730 643 l 1
 972 885 l 1
1409 1347 m 1
 1408 1348 1407 1348 1406 1349 c 2
 1447 1390 l 1
 1432 1390 l 1
 1396 1354 l 1
 1400 1352 1405 1350 1409 1347 c 1
972 915 m 1
 972 930 l 1
 730 688 l 1
 730 673 l 1
 972 915 l 1
1392 1356 m 1
 1390 1357 1388 1358 1386 1359 c 2
 1417 1390 l 1
 1402 1390 l 1
 1376 1364 l 1
 1381 1362 1387 1359 1392 1356 c 1
972 945 m 1
 972 960 l 1
 730 718 l 1
 730 703 l 1
 972 945 l 1
1374 1365 m 1
 1371 1366 1369 1368 1366 1369 c 2
 1387 1390 l 1
 1372 1390 l 1
 1355 1373 l 1
 1361 1371 1368 1368 1374 1365 c 1
972 975 m 1
 972 990 l 1
 730 748 l 1
 730 733 l 1
 972 975 l 1
1350 1374 m 1
 1348 1375 1346 1376 1344 1377 c 2
 1357 1390 l 1
 1342 1390 l 1
 1332 1380 l 2
 1331 1380 1329 1382 1328 1382 c 1
 1336 1380 1343 1377 1350 1374 c 1
972 1005 m 1
 972 1020 l 1
 730 778 l 1
 730 763 l 1
 972 1005 l 1
1321 1384 m 1
 1327 1390 l 1
 1312 1390 l 1
 1309 1387 l 2
 1308 1387 1308 1388 1307 1388 c 1
 1312 1387 1316 1385 1321 1384 c 1
972 1035 m 1
 972 1050 l 1
 730 808 l 1
 730 793 l 1
 972 1035 l 1
972 1065 m 1
 972 1080 l 1
 730 838 l 1
 730 823 l 1
 972 1065 l 1
972 1095 m 1
 972 1110 l 1
 730 868 l 1
 730 853 l 1
 972 1095 l 1
972 1125 m 1
 972 1140 l 1
 730 898 l 1
 730 883 l 1
 972 1125 l 1
972 1155 m 1
 972 1170 l 1
 730 928 l 1
 730 913 l 1
 972 1155 l 1
972 1185 m 1
 972 1200 l 1
 730 958 l 1
 730 943 l 1
 972 1185 l 1
972 1215 m 1
 972 1230 l 1
 730 988 l 1
 730 973 l 1
 972 1215 l 1
972 1245 m 1
 972 1260 l 1
 730 1018 l 1
 730 1003 l 1
 972 1245 l 1
972 1275 m 1
 972 1290 l 1
 730 1048 l 1
 730 1033 l 1
 972 1275 l 1
972 1305 m 1
 972 1320 l 1
 730 1078 l 1
 730 1063 l 1
 972 1305 l 1
972 1335 m 1
 972 1350 l 1
 730 1108 l 1
 730 1093 l 1
 972 1335 l 1
972 1365 m 1
 972 1370 l 1
 962 1370 l 1
 730 1138 l 1
 730 1123 l 1
 972 1365 l 1
947 1370 m 1
 932 1370 l 1
 730 1168 l 1
 730 1153 l 1
 947 1370 l 1
917 1370 m 1
 902 1370 l 1
 730 1198 l 1
 730 1183 l 1
 917 1370 l 1
887 1370 m 1
 872 1370 l 1
 730 1228 l 1
 730 1213 l 1
 887 1370 l 1
857 1370 m 1
 842 1370 l 1
 730 1258 l 1
 730 1243 l 1
 857 1370 l 1
827 1370 m 1
 812 1370 l 1
 730 1288 l 1
 730 1273 l 1
 827 1370 l 1
797 1370 m 1
 782 1370 l 1
 730 1318 l 1
 730 1303 l 1
 797 1370 l 1
767 1370 m 1
 752 1370 l 1
 730 1348 l 1
 730 1333 l 1
 767 1370 l 1
737 1370 m 1
 730 1370 l 1
 730 1363 l 1
 737 1370 l 1
502 1390 m 1
 502 1390 l 2
 495 1388 489 1387 482 1385 c 2
 487 1390 l 1
 472 1390 l 1
 461 1379 l 2
 460 1378 l 1
 474 1382 488 1386 503 1390 c 2
 502 1390 l 1
443 1373 m 1
 445 1374 448 1374 450 1375 c 1
 448 1374 445 1374 443 1373 c 1
457 1390 m 1
 442 1390 l 1
 415 1363 l 2
 412 1362 408 1360 405 1359 c 1
 416 1364 428 1368 439 1372 c 1
 457 1390 l 1
427 1390 m 1
 412 1390 l 1
 360 1338 l 2
 370 1343 379 1347 389 1352 c 2
 427 1390 l 1
332 1322 m 1
 329 1320 326 1318 323 1316 c 2
 397 1390 l 1
 382 1390 l 1
 343 1351 305 1313 266 1274 c 1
 289 1293 310 1308 332 1322 c 1
38 1046 m 1
 38 1032 l 1
 92 1097 137 1150 179 1193 c 1
 159 1173 139 1150 117 1125 c 2
 38 1046 l 1
252 1262 m 1
 257 1266 261 1270 266 1274 c 2
 266 1274 l 2
 261 1270 257 1266 252 1262 c 1
367 1390 m 1
 352 1390 l 1
 38 1076 l 1
 38 1061 l 1
 367 1390 l 1
337 1390 m 1
 322 1390 l 1
 38 1106 l 1
 38 1091 l 1
 337 1390 l 1
307 1390 m 1
 292 1390 l 1
 38 1136 l 1
 38 1121 l 1
 307 1390 l 1
277 1390 m 1
 262 1390 l 1
 38 1166 l 1
 38 1151 l 1
 277 1390 l 1
247 1390 m 1
 232 1390 l 1
 38 1196 l 1
 38 1181 l 1
 247 1390 l 1
217 1390 m 1
 202 1390 l 1
 38 1226 l 1
 38 1211 l 1
 217 1390 l 1
187 1390 m 1
 172 1390 l 1
 38 1256 l 1
 38 1241 l 1
 187 1390 l 1
157 1390 m 1
 142 1390 l 1
 38 1286 l 1
 38 1271 l 1
 157 1390 l 1
127 1390 m 1
 112 1390 l 1
 38 1316 l 1
 38 1301 l 1
 127 1390 l 1
97 1390 m 1
 82 1390 l 1
 38 1346 l 1
 38 1331 l 1
 97 1390 l 1
67 1390 m 1
 52 1390 l 1
 38 1376 l 1
 38 1361 l 1
 67 1390 l 1
EndSplineSet
EndChar

StartChar: V
Encoding: 86 86 2
GlifName: V_
Width: 2290
Flags: HMW
AnchorPoint: "bottom" 1231 0 basechar 0
AnchorPoint: "top" 1234 1400 basechar 0
LayerCount: 2
Fore
SplineSet
2240 1380 m 1
 2200 1380 l 2
 2144 1380 2082 1290 2007 1204 c 0
 1933 1119 1868 1029 1847 996 c 2
 1230 -30 l 1
 368 1240 l 2
 339 1284 318 1300 280 1321 c 0
 237 1345 172 1380 108 1380 c 2
 50 1380 l 1
 50 1400 l 1
 1084 1400 l 1
 1084 1380 l 1
 1060 1380 l 2
 996 1380 931 1345 888 1321 c 0
 833 1289 821 1258 843 1227 c 2
 1444 377 l 1
 1820 1003 l 2
 1857 1064 1817 1139 1767 1212 c 0
 1712 1293 1674 1343 1639 1366 c 0
 1629 1373 1613 1380 1584 1380 c 2
 1540 1380 l 1
 1540 1400 l 1
 2240 1400 l 1
 2240 1380 l 1
1116.40917969 159.409179688 m 1
 1308.80664062 351.806640625 l 1
 1315.03515625 343.03515625 l 1
 1122.48964853 150.489648532 l 1
 1128.57053442 141.570534425 l 1
 1321.26367188 334.263671875 l 1
 1323.89785714 330.555 l 1
 1302.57804878 360.57804878 l 1
 1110.328125 168.328125 l 1
 1104.24707031 177.247070312 l 1
 1296.34939024 369.349390244 l 1
 1290.12073171 378.120731707 l 1
 1098.16610496 186.166104959 l 1
 1119.54831199 154.803841676 l 1
 1116.40917969 159.409179688 l 1
1079.92382812 212.923828125 m 1
 1271.43457031 404.434570312 l 1
 1277.66308594 395.663085938 l 1
 1086.00433317 204.004333173 l 1
 1092.08521907 195.085219066 l 1
 1283.89160156 386.891601562 l 1
 1287.41571429 381.93 l 1
 1263.3375 415.8375 l 1
 1265.20605469 413.206054688 l 1
 1073.84277344 221.842773438 l 1
 1067.76171875 230.76171875 l 1
 1258.97743902 421.977439024 l 1
 1252.74878049 430.748780488 l 1
 1061.6807896 239.6807896 l 1
 1082.79045402 208.718277066 l 1
 1079.92382812 212.923828125 l 1
1043.43847656 266.438476562 m 1
 1234.0625 457.0625 l 1
 1240.29101562 448.291015625 l 1
 1049.51901781 257.519017814 l 1
 1055.59990371 248.599903707 l 1
 1246.52012195 439.520121951 l 1
 1215.37682927 483.376829268 l 1
 1025.19547424 293.195474242 l 1
 1046.03259604 262.632712456 l 1
 1043.43847656 266.438476562 l 1
1841.50976562 1094.50976562 m 2
 1877.91210938 1130.91210938 l 2
 1877.65738024 1130.1109702 1877.40351779 1129.31224458 1877.15054192 1128.5160135 c 1
 1881.65278694 1142.68526631 1886.43741329 1157.64687233 1891.4076889 1172.95616592 c 1
 1889.21610857 1166.20717085 1887.06128992 1159.52609042 1884.95117188 1152.95117188 c 2
 1837.81738281 1105.81738281 l 2
 1837.78500546 1105.90814351 1837.752557 1105.99893001 1837.72003903 1106.08974289 c 1
 1842.21469577 1093.53276167 1845.33739743 1081.46292834 1846.83608417 1069.83608417 c 1
 1864.01262332 1087.01262332 l 2
 1866.2034815 1093.93507466 1868.52180458 1101.27558052 1870.94909034 1108.94909034 c 2
 1844.59277344 1082.59277344 l 2
 1843.7265625 1086.51464844 1842.69628906 1090.48632812 1841.50976562 1094.50976562 c 2
1031.27636719 284.276367188 m 1
 1221.60546875 474.60546875 l 1
 1227.83398438 465.833984375 l 1
 1037.35742188 275.357421875 l 1
 1031.27636719 284.276367188 l 1
1006.953125 319.953125 m 1
 1196.69042969 509.690429688 l 1
 1199.85857143 505.23 l 1
 1178.00487805 536.004878049 l 1
 988.710158883 346.710158883 l 1
 994.791044776 337.791044776 l 1
 1184.23339844 527.233398438 l 1
 1190.46191406 518.461914062 l 1
 1000.87207031 328.872070312 l 1
 995.841225627 336.250696379 l 1
 1019.11458835 302.114588349 l 1
 1209.14817073 492.148170732 l 1
 1202.9195122 500.919512195 l 1
 1013.03417969 311.034179688 l 1
 1006.953125 319.953125 l 1
1814.08691406 1157.08691406 m 2
 1922.82519531 1265.82519531 l 2
 1921.3976296 1261.82811425 1919.9695215 1257.79171013 1918.54258662 1253.72455744 c 1
 1922.84337485 1265.98207581 1927.15542076 1277.96128622 1931.42771724 1289.42771724 c 1
 1808.70243979 1166.70243979 l 1
 1811.62426111 1161.58760886 1814.4164723 1156.54532672 1817.06712956 1151.57350037 c 1
 1816.09267608 1153.4015595 1815.09904059 1155.23930662 1814.08691406 1157.08691406 c 2
836.688476562 569.688476562 m 1
 1022.28808594 755.288085938 l 1
 1028.51660156 746.516601562 l 1
 842.768897448 560.768897448 l 1
 848.849783341 551.849783341 l 1
 1034.74573171 737.745731707 l 1
 1003.60243902 781.602439024 l 1
 818.445353876 596.445353876 l 1
 840.188591385 564.55355064 l 1
 836.688476562 569.688476562 l 1
824.526367188 587.526367188 m 1
 1009.83105469 772.831054688 l 1
 1016.05957031 764.059570312 l 1
 830.607421875 578.607421875 l 1
 824.526367188 587.526367188 l 1
800.203125 623.203125 m 1
 984.916015625 807.916015625 l 1
 988.262142857 803.205 l 1
 965.4 835.4 l 1
 966.23046875 834.23046875 l 1
 781.960038517 649.960038517 l 1
 803.430733411 618.46798603 l 1
 800.203125 623.203125 l 1
788.041015625 641.041015625 m 1
 972.458984375 825.458984375 l 1
 978.6875 816.6875 l 1
 794.122070312 632.122070312 l 1
 788.041015625 641.041015625 l 1
751.555664062 694.555664062 m 1
 935.086914062 878.086914062 l 1
 941.315429688 869.315429688 l 1
 757.63671875 685.63671875 l 1
 751.555664062 694.555664062 l 1
715.0703125 748.0703125 m 1
 897.71484375 930.71484375 l 1
 900.705 926.505 l 1
 879.029268293 957.029268293 l 1
 696.827636013 774.827636013 l 1
 702.908521907 765.908521907 l 1
 885.2578125 948.2578125 l 1
 891.486328125 939.486328125 l 1
 708.9894078 756.9894078 l 1
 729.915017462 726.29685681 l 1
 727.232421875 730.232421875 l 1
 910.172560976 913.172560976 l 1
 903.943902439 921.943902439 l 1
 721.151367188 739.151367188 l 1
 715.0703125 748.0703125 l 1
617.776367188 890.776367188 m 1
 798.056640625 1071.05664062 l 1
 804.28515625 1062.28515625 l 1
 623.857421875 881.857421875 l 1
 617.776367188 890.776367188 l 1
581.291015625 944.291015625 m 1
 760.684570312 1123.68457031 l 1
 766.913085938 1114.91308594 l 1
 587.372070312 935.372070312 l 1
 581.291015625 944.291015625 l 1
544.805664062 997.805664062 m 1
 723.3125 1176.3125 l 1
 729.541015625 1167.54101562 l 1
 550.88671875 988.88671875 l 1
 544.805664062 997.805664062 l 1
508.3203125 1051.3203125 m 1
 686.456054688 1229.45605469 l 2
 686.757685827 1228.87966132 687.069860057 1228.30191539 687.392686711 1227.72280936 c 1
 685.06448063 1231.89969481 683.291639973 1236.00497546 682.035682346 1240.03568235 c 2
 502.239287434 1060.23928743 l 1
 524.071012806 1028.21769499 l 1
 520.482421875 1033.48242188 l 1
 698.398170732 1211.39817073 l 1
 693 1219 l 2
 692.241234332 1220.04252587 691.517087026 1221.08091291 690.826997733 1222.1151168 c 1
 691.259571051 1221.46677275 691.705535779 1220.81675018 692.165039062 1220.16503906 c 2
 514.401367188 1042.40136719 l 1
 508.3203125 1051.3203125 l 1
1225.54455446 13.5445544554 m 1
 1219.78417969 7.7841796875 l 1
 1213.703125 16.703125 l 1
 1248.26732673 51.2673267327 l 1
 1270.99009901 88.9900990099 l 1
 1207.62207031 25.6220703125 l 1
 1206.9275766 26.6406685237 l 1
 1221 6 l 1
 1225.54455446 13.5445544554 l 1
1293.71287129 126.712871287 m 1
 1374 260 l 1
 1361.88085938 239.880859375 l 1
 1183.29882812 61.298828125 l 1
 1177.21777344 70.2177734375 l 1
 1371.09329268 264.093292683 l 1
 1348.4625 295.9625 l 1
 1352.40722656 290.407226562 l 1
 1158.97496389 96.9749638902 l 1
 1165.05584978 88.0558497833 l 1
 1358.63574219 281.635742188 l 1
 1364.86425781 272.864257812 l 1
 1171.13673568 79.1367356765 l 1
 1189.37939336 52.3793933558 l 1
 1339.15820312 202.158203125 l 1
 1316.43554688 164.435546875 l 1
 1195.46027925 43.4602792489 l 1
 1201.54116514 34.541165142 l 1
 1293.71287129 126.712871287 l 1
1156.30616997 100.889406286 m 1
 1152.89453125 105.89453125 l 1
 1346.17865854 299.178658537 l 1
 1339.95 307.95 l 1
 1146.81347656 114.813476562 l 1
 1140.73242188 123.732421875 l 1
 1333.72134146 316.721341463 l 1
 1327.49268293 325.492682927 l 1
 1134.65142032 132.651420318 l 1
 1156.30616997 100.889406286 l 1
1845.88046324 1034.5606696 m 1
 1846.23550869 1036.29635999 1846.54128225 1038.04236939 1846.79882812 1039.79882812 c 2
 1849.75486199 1042.75486199 l 2
 1852.5813771 1051.15439494 1856.12873486 1062.17960946 1860.2434688 1075.12505698 c 1
 1859.12633654 1071.61057907 1858.05100643 1068.23770704 1857.02050781 1065.02050781 c 2
 1847.84211068 1055.84211068 l 1
 1847.92814561 1048.57566146 1847.29676438 1041.48578989 1845.88046324 1034.5606696 c 1
1846.60767955 1033.67241599 m 1
 1847.45360505 1036.01453743 1848.41566481 1038.78871138 1849.48512157 1041.95478073 c 1
 1848.41563524 1038.78879975 1847.45358601 1036.01457861 1846.60767955 1033.67241599 c 1
1835.18911141 1112.84632804 m 1
 1834.69386881 1114.11392595 1834.18546309 1115.38649 1833.6640625 1116.6640625 c 2
 1892.10619188 1175.10619188 l 2
 1894.50475464 1182.48394021 1896.94520874 1189.93729447 1899.41679437 1197.41679437 c 2
 1829.14976281 1127.14976281 l 1
 1831.33523961 1122.31302452 1833.35258092 1117.54595302 1835.18911141 1112.84632804 c 1
1906.92940658 1219.92940658 m 2
 1909.50355006 1227.56279833 1912.09887419 1235.17182036 1914.70395381 1242.70395381 c 2
 1819.31272874 1147.31272874 l 2
 1821.05941089 1143.95902538 1822.73904618 1140.63762806 1824.34787879 1137.34787879 c 2
 1906.92940658 1219.92940658 l 2
1804.78157995 1173.47891312 m 1
 1805.49214815 1172.26571726 1806.19589144 1171.05655299 1806.89265604 1169.85139325 c 1
 1806.19596824 1171.05658157 1805.49223993 1172.26571854 1804.78157995 1173.47891312 c 1
1931.57336413 1289.81846238 m 1
 1934.51056045 1297.69525898 1937.4286866 1305.32832514 1940.31115806 1312.64142063 c 1
 1937.42841025 1305.32785872 1934.51045369 1297.69555808 1931.57336413 1289.81846238 c 1
1940.74802094 1313.74802094 m 1
 1955.54761657 1351.17623524 1969.38273447 1380.04631357 1980 1390 c 1
 1972 1390 l 1
 1786.0646524 1204.0646524 l 2
 1788.02688743 1200.96892874 1789.95659197 1197.89803747 1791.85159895 1194.85159895 c 2
 1964.93652344 1367.93652344 l 2
 1960.6171875 1359.8828125 1956.04589844 1350.21191406 1951.30664062 1339.30664062 c 1
 1797.56455954 1185.56455954 l 2
 1799.48063165 1182.4124699 1801.35585888 1179.28700377 1803.18771932 1176.18771932 c 2
 1940.74802094 1313.74802094 l 1
1171.77621951 544.776219512 m 1
 1165.54756098 553.547560976 l 1
 976.548828125 364.548828125 l 1
 970.467773438 373.467773438 l 1
 1159.31890244 562.318902439 l 1
 1135.65 595.65 l 1
 1140.6328125 588.6328125 l 1
 952.224843524 400.224843524 l 1
 958.305729417 391.305729417 l 1
 1146.86132812 579.861328125 l 1
 1153.08984375 571.08984375 l 1
 964.38671875 382.38671875 l 1
 960.660167131 387.852367688 l 1
 982.62927299 355.62927299 l 1
 1171.77621951 544.776219512 l 1
1780.59616256 1212.62834097 m 1
 1780.73079895 1212.41896191 1780.8654121 1212.20951507 1781 1212 c 1
 1780.86543283 1212.20966271 1780.73086565 1212.41906531 1780.59616256 1212.62834097 c 1
1781 1212 m 1
 1781.66277877 1210.96824824 1782.32223996 1209.93921555 1782.97830788 1208.9128893 c 1
 1782.32228033 1209.93924989 1781.66282501 1210.96830543 1781 1212 c 1
1957 1390 m 1
 1942 1390 l 1
 1774.31738281 1222.31738281 l 2
 1772.98604081 1224.35641055 1771.65249227 1226.38749471 1770.31762706 1228.41063523 c 1
 1773.62784784 1223.39327598 1776.92939141 1218.32566144 1780.21728006 1213.21728006 c 1
 1957 1390 l 1
1769.20141689 1230.10009147 m 1
 1768.92240751 1230.52182675 1768.64335148 1230.94321534 1768.36425781 1231.36425781 c 2
 1927 1390 l 1
 1912 1390 l 1
 1762.35575117 1240.35575117 l 1
 1764.64040105 1236.96354703 1766.92282957 1233.54396379 1769.20141689 1230.10009147 c 1
1134.40426829 597.404268293 m 1
 1128.17560976 606.175609756 l 1
 940.063476562 418.063476562 l 1
 933.982421875 426.982421875 l 1
 1121.94695122 614.94695122 l 1
 1115.71829268 623.718292683 l 1
 927.901367188 435.901367188 l 1
 925.479108635 439.454038997 l 1
 946.143957631 409.143957631 l 1
 1134.40426829 597.404268293 l 1
1757.94855567 1246.86127801 m 1
 1757.39574317 1247.67263599 1756.84289078 1248.48224945 1756.29003906 1249.29003906 c 2
 1897 1390 l 1
 1882 1390 l 1
 1750.1640625 1258.1640625 l 2
 1749.228967 1259.50654823 1748.29407187 1260.84362435 1747.35946719 1262.17510891 c 1
 1750.88800244 1257.14799083 1754.41968369 1252.03959642 1757.94855567 1246.86127801 c 1
1746.77920518 1263.00111603 m 1
 1745.84399927 1264.33131191 1744.90910372 1265.65587037 1743.97460938 1266.97460938 c 2
 1867 1390 l 1
 1852 1390 l 1
 1737.717815 1275.717815 l 1
 1740.73322654 1271.54385702 1743.75494023 1267.30257413 1746.77920518 1263.00111603 c 1
1112.30142857 628.53 m 1
 1090.80365854 658.803658537 l 1
 903.578125 471.578125 l 1
 897.497070312 480.497070312 l 1
 1084.575 667.575 l 1
 1078.34634146 676.346341463 l 1
 891.416015625 489.416015625 l 1
 890.298050139 491.055710306 l 1
 909.658642273 462.658642273 l 1
 1097.03222656 650.032226562 l 1
 1103.26074219 641.260742188 l 1
 915.739528166 453.739528166 l 1
 921.820414059 444.820414059 l 1
 1109.48925781 632.489257812 l 1
 1112.30142857 628.53 l 1
1733.46606209 1281.56399895 m 1
 1734.7994254 1279.74297728 1736.13437309 1277.90807192 1737.47058165 1276.05990736 c 1
 1736.13466666 1277.9081794 1734.79957873 1279.74312297 1733.46606209 1281.56399895 c 1
1837 1390 m 1
 1822 1390 l 1
 1724.98552518 1292.98552518 l 2
 1727.11489674 1290.15873372 1729.25015172 1287.29267645 1731.38993554 1284.38993554 c 2
 1837 1390 l 1
1807 1390 m 1
 1792 1390 l 1
 1711.921875 1309.921875 l 2
 1711.20799078 1310.82405008 1710.49520122 1311.72105042 1709.78353845 1312.6128128 c 1
 1712.67231691 1308.99234543 1715.57848661 1305.28530854 1718.49848817 1301.49848817 c 1
 1807 1390 l 1
1706.75857378 1316.38008113 m 1
 1706.2538157 1317.00479874 1705.74965241 1317.62681105 1705.24609375 1318.24609375 c 2
 1777 1390 l 1
 1762 1390 l 1
 1698.4609375 1326.4609375 l 2
 1696.19727585 1329.15749822 1693.94851061 1331.79447331 1691.71464358 1334.36640998 c 1
 1696.65809443 1328.67327187 1701.67927306 1322.66537102 1706.75857378 1316.38008113 c 1
1072.11768293 685.117682927 m 1
 1050.525 715.525 l 1
 1053.43164062 711.431640625 l 1
 867.092773438 525.092773438 l 1
 861.01171875 534.01171875 l 1
 1047.20304878 720.20304878 l 1
 1040.97439024 728.974390244 l 1
 854.930669234 542.930669234 l 1
 873.173326914 516.173326914 l 1
 1059.66015625 702.66015625 l 1
 1065.88867188 693.888671875 l 1
 879.254212807 507.254212807 l 1
 885.3350987 498.3350987 l 1
 1072.11768293 685.117682927 l 1
1747 1390 m 1
 1732 1390 l 1
 1684.50518196 1342.50518196 l 2
 1686.83504417 1339.92947275 1689.18495677 1337.2772961 1691.55276312 1334.55276312 c 2
 1747 1390 l 1
1717 1390 m 1
 1702 1390 l 1
 1669.89746094 1357.89746094 l 2
 1669.37348932 1358.42043981 1668.85089021 1358.938736 1668.32968861 1359.45230064 c 1
 1671.27603197 1356.54853364 1674.26656721 1353.49333312 1677.29627267 1350.29627267 c 1
 1717 1390 l 1
1687 1390 m 1
 1672 1390 l 1
 1654.35382322 1372.35382322 l 2
 1656.9481895 1370.13395956 1659.58782683 1367.76968369 1662.26869578 1365.26869578 c 2
 1687 1390 l 1
1650.52341884 1375.55262931 m 1
 1649.02092134 1376.77598331 1647.53488546 1377.94781455 1646.06640625 1379.06640625 c 2
 1657 1390 l 1
 1642 1390 l 1
 1637.25995534 1385.25995534 l 1
 1641.5126395 1382.53317624 1645.94161877 1379.28248352 1650.52341884 1375.55262931 c 1
997.373780488 790.373780488 m 1
 991.145121951 799.145121951 l 1
 806.28358209 614.28358209 l 1
 812.364467983 605.364467983 l 1
 997.373780488 790.373780488 l 1
960.001829268 843.001829268 m 1
 953.773170732 851.773170732 l 1
 769.798266731 667.798266731 l 1
 775.879152624 658.879152624 l 1
 960.001829268 843.001829268 l 1
766.672875437 672.38242142 m 1
 763.717773438 676.717773438 l 1
 947.544512195 860.544512195 l 1
 922.8375 895.3375 l 1
 928.858398438 886.858398438 l 1
 745.474723158 703.474723158 l 1
 766.672875437 672.38242142 l 1
922.629878049 895.629878049 m 1
 916.401219512 904.401219512 l 1
 733.312951372 721.312951372 l 1
 739.393837265 712.393837265 l 1
 922.629878049 895.629878049 l 1
693.157159488 780.2112922 m 1
 690.747070312 783.747070312 l 1
 872.800609756 965.800609756 l 1
 866.57195122 974.57195122 l 1
 684.666015625 792.666015625 l 1
 679.211699164 800.665738162 l 1
 693.157159488 780.2112922 l 1
860.343292683 983.343292683 m 1
 837.7125 1015.2125 l 1
 841.657226562 1009.65722656 l 1
 660.342773438 828.342773438 l 1
 654.26171875 837.26171875 l 1
 835.428658537 1018.42865854 l 1
 829.2 1027.2 l 1
 648.180664062 846.180664062 l 1
 644.030640669 852.267409471 l 1
 666.423206548 819.423206548 l 1
 847.885742188 1000.88574219 l 1
 854.114257812 992.114257812 l 1
 672.504092441 810.504092441 l 1
 678.584978334 801.584978334 l 1
 860.343292683 983.343292683 l 1
822.971341463 1035.97134146 m 1
 816.742682927 1044.74268293 l 1
 636.018777082 864.018777082 l 1
 642.099662975 855.099662975 l 1
 822.971341463 1035.97134146 l 1
813.147857143 1049.805 m 1
 791.82804878 1079.82804878 l 1
 611.6953125 899.6953125 l 1
 608.849582173 903.86908078 l 1
 629.937891189 872.937891189 l 1
 810.513671875 1053.51367188 l 1
 813.147857143 1049.805 l 1
785.599390244 1088.59939024 m 1
 779.370731707 1097.37073171 l 1
 599.533461724 917.533461724 l 1
 605.614347617 908.614347617 l 1
 785.599390244 1088.59939024 l 1
776.665714286 1101.18 m 1
 752.5875 1135.0875 l 1
 754.456054688 1132.45605469 l 1
 575.209960938 953.209960938 l 1
 573.668523677 955.470752089 l 1
 593.452575831 926.452575831 l 1
 773.141601562 1106.14160156 l 1
 776.665714286 1101.18 l 1
748.227439024 1141.22743902 m 1
 741.998780488 1149.99878049 l 1
 563.048146365 971.048146365 l 1
 569.129032258 962.129032258 l 1
 748.227439024 1141.22743902 l 1
735.770121951 1158.77012195 m 1
 704.626829268 1202.62682927 l 1
 526.562831006 1024.56283101 l 1
 532.643716899 1015.6437169 l 1
 710.85546875 1193.85546875 l 1
 717.083984375 1185.08398438 l 1
 538.724609375 1006.72460938 l 1
 538.487465181 1007.0724234 l 1
 556.967260472 979.967260472 l 1
 735.770121951 1158.77012195 l 1
935.418275618 1388.41827562 m 2
 937 1390 l 1
 922 1390 l 1
 916.914429029 1384.91442903 l 2
 923.133360186 1386.18585819 929.309400213 1387.35715512 935.418275618 1388.41827562 c 2
897.705424538 1380.70542454 m 2
 907 1390 l 1
 892 1390 l 1
 877.771964381 1375.77196438 l 2
 884.417510829 1377.50878219 891.071529151 1379.15721302 897.705424538 1380.70542454 c 2
857.072317027 1370.07231703 m 1
 877 1390 l 1
 862 1390 l 1
 835.532226562 1363.53222656 l 2
 832.082735818 1362.43504341 828.652886858 1361.31982188 825.247038018 1360.18846885 c 1
 835.671358461 1363.65097653 846.321044499 1366.96266553 857.072317027 1370.07231703 c 1
857.6116027 1370.22810438 m 1
 862.824864702 1371.73221285 868.061511099 1373.18864566 873.307443299 1374.5915672 c 1
 868.061790821 1373.18904804 862.824868081 1371.73257066 857.6116027 1370.22810438 c 1
813.023666039 1356.02366604 m 1
 847 1390 l 1
 832 1390 l 1
 789.3203125 1347.3203125 l 2
 787.303971651 1346.54233128 785.303681116 1345.7604918 783.320538301 1344.97525622 c 1
 792.865765377 1348.75434857 802.807928565 1352.45416663 813.023666039 1356.02366604 c 1
764.063196906 1337.01015958 m 1
 764.032034106 1336.99668278 764.000877172 1336.98320546 763.969726562 1336.96972656 c 2
 817 1390 l 1
 802 1390 l 1
 734.924804688 1322.92480469 l 2
 731.800473579 1321.18115431 728.76593483 1319.39286413 725.832825459 1317.56083538 c 1
 734.73014034 1323.11801316 744.560803153 1328.27275166 755 1333 c 0
 757.960352804 1334.34053712 760.983102821 1335.67795438 764.063196906 1337.01015958 c 1
679.785461347 1251.82069566 m 1
 679.80880374 1251.48180722 679.835803496 1251.14232397 679.866485502 1250.80224856 c 1
 679.835808025 1251.1423211 679.808808518 1251.48180412 679.785461347 1251.82069566 c 1
679.731421846 1252.73142185 m 1
 679.433656216 1258.71411051 680.274105547 1264.51074096 682.110326798 1270.1103268 c 2
 490.077515648 1078.07751565 l 1
 496.158401541 1069.15840154 l 1
 679.731421846 1252.73142185 l 1
487.313154831 1082.13213038 m 1
 483.997070312 1086.99707031 l 1
 787 1390 l 1
 772 1390 l 1
 477.916015625 1095.91601562 l 1
 471.834960938 1104.83496094 l 1
 757 1390 l 1
 742 1390 l 1
 465.753972075 1113.75397208 l 1
 487.313154831 1082.13213038 l 1
727 1390 m 1
 712 1390 l 1
 453.592200289 1131.59220029 l 1
 459.673086182 1122.67308618 l 1
 727 1390 l 1
450.555296857 1136.04656577 m 1
 447.51171875 1140.51171875 l 1
 697 1390 l 1
 682 1390 l 1
 441.430664062 1149.43066406 l 1
 435.349609375 1158.34960938 l 1
 667 1390 l 1
 652 1390 l 1
 429.268656716 1167.26865672 l 1
 450.555296857 1136.04656577 l 1
637 1390 m 1
 622 1390 l 1
 417.10688493 1185.10688493 l 1
 423.187770823 1176.18777082 l 1
 637 1390 l 1
413.797438882 1189.96100116 m 1
 411.026367188 1194.02636719 l 1
 607 1390 l 1
 592 1390 l 1
 404.9453125 1202.9453125 l 1
 398.864257812 1211.86425781 l 1
 577 1390 l 1
 562 1390 l 1
 392.783341358 1220.78334136 l 1
 413.797438882 1189.96100116 l 1
547 1390 m 1
 532 1390 l 1
 380.621569571 1238.62156957 l 1
 386.702455465 1229.70245546 l 1
 547 1390 l 1
517 1390 m 1
 502 1390 l 1
 368.182037476 1256.18203748 l 2
 370.280611878 1253.38598528 372.385008355 1250.49436099 374.500204409 1247.50020441 c 2
 517 1390 l 1
362.959150173 1262.95902795 m 1
 363.709802661 1262.01117319 364.460672091 1261.05176177 365.211991114 1260.08047449 c 1
 364.4607434 1261.05176108 363.709874936 1262.01115899 362.959150173 1262.95902795 c 1
487 1390 m 1
 472 1390 l 1
 354.808848919 1272.80884892 l 2
 357.085415605 1270.18011414 359.356350286 1267.45614508 361.628027719 1264.62802772 c 2
 487 1390 l 1
457 1390 m 1
 442 1390 l 1
 340.261770331 1288.26177033 l 2
 342.75901856 1285.83124285 345.234320761 1283.31282975 347.695538259 1280.69553826 c 2
 457 1390 l 1
427 1390 m 1
 412 1390 l 1
 324.358398438 1302.35839844 l 2
 321.577148438 1304.59960938 318.752929688 1306.76757812 315.875976562 1308.87597656 c 2
 397 1390 l 1
 382 1390 l 1
 307.051018462 1315.05101846 l 1
 315.999211678 1309.06654598 324.394092715 1302.66215559 332.486746527 1295.48674653 c 1
 427 1390 l 1
302.146941812 1318.25459271 m 1
 300.74847241 1319.14730247 299.336104263 1320.03172649 297.909179688 1320.90917969 c 2
 367 1390 l 1
 352 1390 l 1
 288.483653615 1326.48365361 l 1
 293.195391121 1323.79711181 297.740492045 1321.06713596 302.146941812 1318.25459271 c 1
280.0142478 1331.19870763 m 1
 281.345738307 1330.46568538 282.674193326 1329.73267084 284 1329 c 1
 282.67448721 1329.7326196 281.346053743 1330.46582334 280.0142478 1331.19870763 c 1
286.749197618 1327.46644887 m 1
 285.839201558 1327.97908861 284.922876536 1328.49027253 284 1329 c 1
 284.922765594 1328.49005059 285.839099427 1327.97895868 286.749197618 1327.46644887 c 1
337 1390 m 1
 322 1390 l 1
 269.138671875 1337.13867188 l 2
 266.944890989 1338.32569954 264.739864817 1339.51002833 262.522372293 1340.69043723 c 1
 268.0308383 1337.75750612 273.46258138 1334.80101435 278.843044851 1331.84304485 c 1
 337 1390 l 1
307 1390 m 1
 292 1390 l 1
 249.493400237 1347.49340024 l 2
 252.815504701 1345.79640386 256.104152665 1344.08528032 259.364534168 1342.36453417 c 2
 307 1390 l 1
245.326850277 1349.60501151 m 1
 244.807426691 1349.86613499 244.28714673 1350.12686103 243.765984911 1350.38717589 c 1
 244.287141904 1350.12684975 244.807423724 1349.86612232 245.326850277 1349.60501151 c 1
277 1390 m 1
 262 1390 l 1
 229.357755133 1357.35775513 l 2
 232.779016201 1355.75918087 236.157893895 1354.13827668 239.499342563 1352.49934256 c 2
 277 1390 l 1
247 1390 m 1
 232 1390 l 1
 208.540082508 1366.54008251 l 2
 212.090787252 1365.07032255 215.590965333 1363.5707085 219.045338324 1362.04533832 c 2
 247 1390 l 1
207.730025681 1366.87451241 m 1
 206.420268103 1367.41389223 205.10359918 1367.94908174 203.779769336 1368.47998113 c 1
 205.103572514 1367.94904802 206.420246136 1367.41382365 207.730025681 1366.87451241 c 1
198.428335903 1370.58715936 m 1
 198.226156837 1370.66530251 198.023808024 1370.74334547 197.821289062 1370.82128906 c 2
 217 1390 l 1
 202 1390 l 1
 186.869332639 1374.86933264 l 2
 190.785185499 1373.48137854 194.63642101 1372.0524548 198.428335903 1370.58715936 c 1
178.744532634 1377.65747055 m 1
 178.115591811 1377.86622427 177.484980294 1378.07387567 176.85268406 1378.28039635 c 1
 177.484995376 1378.07385351 178.115604848 1377.86620598 178.744532634 1377.65747055 c 1
187 1390 m 1
 172 1390 l 1
 164.194335938 1382.19433594 l 2
 160.340820312 1383.31933594 156.422851562 1384.40136719 152.438476562 1385.43847656 c 2
 157 1390 l 1
 142 1390 l 1
 140.3828125 1388.3828125 l 2
 138.936838296 1388.71328776 137.481914535 1389.03756717 136.018041257 1389.35565091 c 1
 150.003861421 1386.31607985 163.167665672 1382.70757525 175.666055648 1378.66605565 c 1
 187 1390 l 1
EndSplineSet
EndChar

StartChar: W
Encoding: 87 87 3
GlifName: W_
Width: 3160
Flags: HMW
AnchorPoint: "bottom" 1646 0 basechar 0
AnchorPoint: "top" 1704 1400 basechar 0
LayerCount: 2
Fore
SplineSet
2140 43 m 5
 2227 130 l 5
 2242 160 l 5
 2134 52 l 5
 2140 43 l 5
1756 1219 m 5
 1755 1221 l 5
 1752 1215 l 5
 1756 1219 l 5
1767 1200 m 5
 1762 1210 l 5
 1738 1186 l 5
 1724 1157 l 5
 1767 1200 l 5
1778 1181 m 5
 1772 1190 l 5
 1709 1127 l 5
 1695 1098 l 5
 1778 1181 l 5
1789 1162 m 5
 1783 1171 l 5
 1681 1069 l 5
 1666 1039 l 5
 1789 1162 l 5
1800 1143 m 5
 1794 1152 l 5
 1652 1010 l 5
 1638 981 l 5
 1800 1143 l 5
1616 929 m 5
 1810 1123 l 5
 1805 1133 l 5
 1624 952 l 5
 1614 932 l 5
 1616 929 l 5
1644 882 m 5
 1649 872 l 5
 1843 1066 l 5
 1838 1076 l 5
 1644 882 l 5
1672 835 m 5
 1865 1028 l 5
 1859 1037 l 5
 1666 844 l 5
 1672 835 l 5
1876 1009 m 5
 1870 1018 l 5
 1677 825 l 5
 1683 816 l 5
 1876 1009 l 5
1694 797 m 5
 1887 990 l 5
 1881 999 l 5
 1688 806 l 5
 1694 797 l 5
1733 731 m 5
 1739 722 l 5
 1930 913 l 5
 1925 923 l 5
 1733 731 l 5
1750 703 m 5
 1941 894 l 5
 1936 904 l 5
 1744 712 l 5
 1750 703 l 5
1952 875 m 5
 1946 884 l 5
 1755 693 l 5
 1761 684 l 5
 1952 875 l 5
1805 608 m 5
 1995 798 l 5
 1990 808 l 5
 1800 618 l 5
 1805 608 l 5
1839 552 m 5
 2028 741 l 5
 2023 751 l 5
 1833 561 l 5
 1839 552 l 5
1895 458 m 5
 2082 645 l 5
 2077 655 l 5
 1889 467 l 5
 1895 458 l 5
2093 626 m 5
 2088 636 l 5
 1900 448 l 5
 1906 439 l 5
 2093 626 l 5
1917 420 m 5
 2104 607 l 5
 2099 617 l 5
 1911 429 l 5
 1917 420 l 5
1928 401 m 5
 2115 588 l 5
 2110 598 l 5
 1923 411 l 5
 1928 401 l 5
1950 363 m 5
 2137 550 l 5
 2128 564 l 5
 2131 559 l 5
 1945 373 l 5
 1942 378 l 5
 1950 363 l 5
2148 531 m 5
 2142 540 l 5
 1956 354 l 5
 1962 345 l 5
 2148 531 l 5
1973 326 m 5
 2159 512 l 5
 2153 521 l 5
 1967 335 l 5
 1973 326 l 5
1984 307 m 5
 2169 492 l 5
 2164 502 l 5
 1978 316 l 5
 1984 307 l 5
2006 269 m 5
 2191 454 l 5
 2186 464 l 5
 2001 279 l 5
 1995 288 l 5
 2180 473 l 5
 2175 483 l 5
 1989 297 l 5
 2006 269 l 5
2040 213 m 5
 2224 397 l 5
 2218 406 l 5
 2034 222 l 5
 2040 213 l 5
2045 203 m 5
 2051 194 l 5
 2235 378 l 5
 2229 387 l 5
 2045 203 l 5
2062 175 m 5
 2246 359 l 5
 2240 368 l 5
 2056 184 l 5
 2062 175 l 5
2256 339 m 5
 2251 349 l 5
 2067 165 l 5
 2073 156 l 5
 2256 339 l 5
2118 81 m 5
 2289 252 l 5
 2297 268 l 5
 2294 272 l 5
 2112 90 l 5
 2118 81 l 5
2258 191 m 5
 2273 221 l 5
 2123 71 l 5
 2129 62 l 5
 2258 191 l 5
2151 24 m 5
 2196 69 l 5
 2211 99 l 5
 2145 33 l 5
 2151 24 l 5
2202 435 m 5
 2207 425 l 5
 2023 241 l 5
 2028 231 l 5
 2213 416 l 5
 2197 445 l 5
 2012 260 l 5
 2017 250 l 5
 2202 435 l 5
250 1348 m 5
 253 1346 256 1344 259 1342 c 5
 307 1390 l 5
 292 1390 l 5
 250 1348 l 5
240 1353 m 5
 277 1390 l 5
 262 1390 l 5
 229 1357 l 5
 233 1355 236 1355 240 1353 c 5
1073 101 m 5
 1082 85 l 5
 1079 92 l 5
 1264 277 l 5
 1258 286 l 5
 1073 101 l 5
1067 110 m 5
 1253 296 l 5
 1236 324 l 5
 1050 138 l 5
 1056 129 l 5
 1241 314 l 5
 1247 305 l 5
 1062 120 l 5
 1061 120 l 5
 1067 110 l 5
1101 54 m 5
 1219 172 l 5
 1234 202 l 5
 1096 64 l 5
 1090 73 l 5
 1249 232 l 5
 1264 262 l 5
 1084 82 l 5
 1101 54 l 5
1167 435 m 5
 982 250 l 5
 999 222 l 5
 1185 408 l 5
 1179 417 l 5
 994 232 l 5
 988 241 l 5
 1173 426 l 5
 1167 435 l 5
1162 445 m 5
 1156 454 l 5
 971 269 l 5
 977 260 l 5
 1162 445 l 5
1014 198 m 5
 1011 204 l 5
 1196 389 l 5
 1190 398 l 5
 1005 213 l 5
 1014 198 l 5
1202 380 m 5
 1016 194 l 5
 1022 185 l 5
 1207 370 l 5
 1202 380 l 5
1077 585 m 5
 891 399 l 5
 908 371 l 5
 1094 557 l 5
 1088 566 l 5
 903 381 l 5
 897 390 l 5
 1083 576 l 5
 1077 585 l 5
931 334 m 5
 1117 520 l 5
 1111 529 l 5
 926 344 l 5
 931 334 l 5
818 520 m 5
 818 521 l 5
 1004 707 l 5
 998 716 l 5
 812 530 l 5
 818 520 l 5
824 512 m 5
 829 502 l 5
 1015 688 l 5
 1009 697 l 5
 824 512 l 5
841 484 m 5
 1026 669 l 5
 1018 683 l 5
 1020 678 l 5
 835 493 l 5
 841 484 l 5
846 474 m 5
 852 465 l 5
 1037 650 l 5
 1043 641 l 5
 857 455 l 5
 863 446 l 5
 1049 632 l 5
 1032 660 l 5
 846 474 l 5
721 679 m 5
 727 670 l 5
 913 856 l 5
 907 865 l 5
 721 679 l 5
664 772 m 5
 670 763 l 5
 856 949 l 5
 859 946 l 5
 850 958 l 5
 664 772 l 5
653 791 m 5
 659 782 l 5
 845 968 l 5
 839 977 l 5
 653 791 l 5
648 801 m 5
 834 987 l 5
 828 996 l 5
 642 810 l 5
 648 801 l 5
681 744 m 5
 868 931 l 5
 862 940 l 5
 676 754 l 5
 672 760 l 5
 681 744 l 5
562 940 m 5
 579 912 l 5
 766 1099 l 5
 760 1108 l 5
 574 922 l 5
 568 931 l 5
 754 1117 l 5
 757 1113 l 5
 749 1127 l 5
 562 940 l 5
594 888 m 5
 591 894 l 5
 777 1080 l 5
 768 1095 l 5
 771 1089 l 5
 585 903 l 5
 594 888 l 5
596 884 m 5
 602 875 l 5
 788 1061 l 5
 783 1071 l 5
 596 884 l 5
1175 83 m 5
 1118 26 l 5
 1124 17 l 5
 1160 53 l 5
 1175 83 l 5
1189 112 m 5
 1204 142 l 5
 1107 45 l 5
 1113 36 l 5
 1189 112 l 5
1065 603 m 5
 880 418 l 5
 886 409 l 5
 1071 594 l 5
 1065 603 l 5
1060 613 m 5
 1054 622 l 5
 869 437 l 5
 874 427 l 5
 1060 613 l 5
902 875 m 5
 896 884 l 5
 710 698 l 5
 715 688 l 5
 902 875 l 5
879 912 m 5
 873 921 l 5
 687 735 l 5
 693 726 l 5
 879 912 l 5
816 1014 m 5
 630 828 l 5
 636 819 l 5
 822 1005 l 5
 816 1014 l 5
811 1024 m 5
 805 1033 l 5
 619 847 l 5
 625 838 l 5
 811 1024 l 5
732 1155 m 5
 726 1164 l 5
 539 977 l 5
 545 968 l 5
 732 1155 l 5
488 1061 m 5
 680 1253 l 5
 680 1259 680 1264 682 1270 c 5
 483 1071 l 5
 477 1080 l 5
 787 1390 l 5
 772 1390 l 5
 471 1089 l 5
 488 1061 l 5
415 1183 m 5
 421 1174 l 5
 637 1390 l 5
 622 1390 l 5
 415 1183 l 5
403 1201 m 5
 409 1192 l 5
 607 1390 l 5
 592 1390 l 5
 403 1201 l 5
305 1317 m 6
 305 1317 304 1318 303 1318 c 5
 304 1318 304 1317 305 1317 c 6
141 1389 m 5
 145 1388 148 1386 152 1385 c 5
 157 1390 l 5
 142 1390 l 5
 141 1389 l 5
3080 1380 m 5
 3040 1380 l 6
 2984 1380 2922 1290 2847 1204 c 4
 2773 1119 2708 1029 2687 996 c 5
 2170 -30 l 5
 1606 921 l 5
 1140 -30 l 5
 368 1240 l 5
 339 1284 318 1300 280 1321 c 4
 237 1345 172 1380 108 1380 c 6
 50 1380 l 5
 50 1400 l 5
 1084 1400 l 5
 1084 1380 l 5
 1060 1380 l 6
 996 1380 931 1345 888 1321 c 4
 833 1289 821 1258 843 1227 c 5
 1326 400 l 5
 1816 1400 l 5
 2362 405 l 5
 2660 1003 l 5
 2697 1064 2657 1139 2607 1212 c 4
 2552 1293 2514 1343 2479 1366 c 4
 2469 1373 2453 1380 2424 1380 c 6
 2380 1380 l 5
 2380 1400 l 5
 3080 1400 l 5
 3080 1380 l 5
920 353 m 5
 1105 538 l 5
 1109 533 l 5
 1100 548 l 5
 914 362 l 5
 921 350 l 5
 920 353 l 5
500 1043 m 5
 686 1229 l 5
 688 1226 690 1223 692 1220 c 5
 506 1034 l 5
 511 1024 l 5
 698 1211 l 5
 692 1220 685 1230 682 1240 c 5
 494 1052 l 5
 501 1040 l 5
 500 1043 l 5
1145 23 m 5
 1130 8 l 5
 1134 1 l 5
 1145 23 l 5
1230 333 m 5
 1224 342 l 5
 1039 157 l 5
 1045 148 l 5
 1230 333 l 5
1219 352 m 5
 1213 361 l 5
 1028 176 l 5
 1033 166 l 5
 1219 352 l 5
1151 464 m 5
 1134 492 l 5
 948 306 l 5
 954 297 l 5
 1139 482 l 5
 1145 473 l 5
 960 288 l 5
 965 278 l 5
 1151 464 l 5
1128 501 m 5
 1122 510 l 5
 937 325 l 5
 943 316 l 5
 1128 501 l 5
992 725 m 5
 987 735 l 5
 801 549 l 5
 806 539 l 5
 992 725 l 5
981 744 m 5
 974 756 l 5
 975 753 l 5
 789 567 l 5
 795 558 l 5
 981 744 l 5
970 763 m 5
 964 772 l 5
 778 586 l 5
 784 577 l 5
 970 763 l 5
958 781 m 5
 953 791 l 5
 767 605 l 5
 761 614 l 5
 947 800 l 5
 941 809 l 5
 755 623 l 5
 772 595 l 5
 958 781 l 5
890 893 m 5
 885 903 l 5
 698 716 l 5
 704 707 l 5
 890 893 l 5
800 1043 m 5
 794 1052 l 5
 608 866 l 5
 613 856 l 5
 800 1043 l 5
743 1136 m 5
 738 1146 l 5
 551 959 l 5
 556 949 l 5
 743 1136 l 5
935 1388 m 5
 937 1390 l 5
 922 1390 l 5
 917 1385 l 5
 923 1386 929 1387 935 1388 c 5
721 1174 m 5
 704 1202 l 5
 517 1015 l 5
 522 1005 l 5
 709 1192 l 5
 715 1183 l 5
 528 996 l 5
 534 987 l 5
 721 1174 l 5
898 1381 m 5
 907 1390 l 5
 892 1390 l 5
 878 1376 l 5
 885 1378 891 1379 898 1381 c 5
857 1370 m 5
 877 1390 l 5
 862 1390 l 5
 836 1364 l 5
 833 1363 828 1361 825 1360 c 5
 835 1363 846 1367 857 1370 c 5
813 1356 m 5
 847 1390 l 5
 832 1390 l 5
 789 1347 l 5
 797 1350 805 1353 813 1356 c 5
735 1323 m 5
 743 1328 754 1334 764 1337 c 5
 817 1390 l 5
 802 1390 l 5
 735 1323 l 5
757 1390 m 5
 742 1390 l 5
 460 1108 l 5
 466 1099 l 5
 757 1390 l 5
727 1390 m 5
 712 1390 l 5
 449 1127 l 5
 454 1117 l 5
 727 1390 l 5
697 1390 m 5
 682 1390 l 5
 437 1145 l 5
 443 1136 l 5
 697 1390 l 5
426 1164 m 5
 432 1155 l 5
 667 1390 l 5
 652 1390 l 5
 426 1164 l 5
547 1390 m 5
 532 1390 l 5
 381 1239 l 5
 386 1229 l 5
 547 1390 l 5
517 1390 m 5
 502 1390 l 5
 368 1256 l 5
 370 1253 372 1250 374 1247 c 5
 517 1390 l 5
487 1390 m 5
 472 1390 l 5
 355 1273 l 5
 357 1270 360 1268 362 1265 c 5
 487 1390 l 5
349 1279 m 5
 348 1280 349 1280 348 1281 c 5
 457 1390 l 5
 442 1390 l 5
 340 1288 l 5
 343 1285 346 1282 349 1279 c 5
427 1390 m 5
 412 1390 l 5
 324 1302 l 5
 327 1300 329 1297 332 1295 c 5
 427 1390 l 5
367 1390 m 5
 352 1390 l 5
 289 1327 l 5
 292 1325 295 1323 298 1321 c 5
 367 1390 l 5
337 1390 m 5
 322 1390 l 5
 269 1337 l 5
 272 1335 276 1334 279 1332 c 5
 337 1390 l 5
247 1390 m 5
 232 1390 l 5
 209 1367 l 5
 213 1366 216 1364 219 1362 c 5
 247 1390 l 5
217 1390 m 5
 202 1390 l 5
 187 1375 l 5
 191 1374 194 1372 198 1371 c 5
 217 1390 l 5
187 1390 m 5
 172 1390 l 5
 164 1382 l 5
 168 1381 172 1381 176 1379 c 5
 187 1390 l 5
392 1220 m 5
 398 1211 l 5
 577 1390 l 5
 562 1390 l 5
 392 1220 l 5
2797 1390 m 5
 2782 1390 l 5
 2613 1221 l 5
 2615 1218 2617 1215 2619 1212 c 5
 2797 1390 l 5
2767 1390 m 5
 2752 1390 l 5
 2601 1239 l 5
 2603 1236 2605 1233 2607 1230 c 5
 2767 1390 l 5
2737 1390 m 5
 2722 1390 l 5
 2589 1257 l 5
 2591 1254 2593 1251 2595 1248 c 5
 2737 1390 l 5
2707 1390 m 5
 2692 1390 l 5
 2577 1275 l 5
 2579 1272 2581 1269 2583 1266 c 5
 2707 1390 l 5
2677 1390 m 5
 2662 1390 l 5
 2564 1292 l 5
 2566 1289 2568 1286 2570 1283 c 5
 2677 1390 l 5
2647 1390 m 5
 2632 1390 l 5
 2551 1309 l 5
 2553 1306 2555 1303 2557 1300 c 5
 2647 1390 l 5
2617 1390 m 5
 2602 1390 l 5
 2537 1325 l 5
 2539 1322 2542 1320 2544 1317 c 5
 2617 1390 l 5
2587 1390 m 5
 2572 1390 l 5
 2523 1341 l 5
 2525 1338 2529 1337 2531 1334 c 5
 2587 1390 l 5
2557 1390 m 5
 2542 1390 l 5
 2509 1357 l 5
 2511 1355 2513 1352 2516 1349 c 5
 2557 1390 l 5
2527 1390 m 5
 2512 1390 l 5
 2493 1371 l 5
 2496 1369 2498 1366 2501 1364 c 5
 2527 1390 l 5
2497 1390 m 5
 2482 1390 l 5
 2476 1384 l 5
 2479 1382 2482 1380 2485 1378 c 5
 2497 1390 l 5
2467 1390 m 5
 2462 1390 l 6
 2463 1390 2465 1390 2466 1389 c 5
 2467 1390 l 5
1661 854 m 5
 1854 1047 l 5
 1849 1057 l 5
 1655 863 l 5
 1661 854 l 5
1811 599 m 5
 1817 590 l 5
 2006 779 l 5
 2001 789 l 5
 1811 599 l 5
1830 566 m 5
 1828 571 l 5
 2017 760 l 5
 2012 770 l 5
 1822 580 l 5
 1830 566 l 5
1845 543 m 5
 1850 533 l 5
 2039 722 l 5
 2033 731 l 5
 1845 543 l 5
1884 477 m 5
 2071 664 l 5
 2066 674 l 5
 1878 486 l 5
 1884 477 l 5
1827 1095 m 5
 1633 901 l 5
 1638 891 l 5
 1832 1085 l 5
 1827 1095 l 5
1824 1100 m 5
 1816 1114 l 5
 1621 919 l 5
 1627 910 l 5
 1821 1104 l 5
 1824 1100 l 5
1719 754 m 5
 1727 740 l 5
 1919 932 l 5
 1914 942 l 5
 1722 750 l 5
 1719 754 l 5
1716 759 m 5
 1908 951 l 5
 1903 961 l 5
 1711 769 l 5
 1716 759 l 5
1900 966 m 5
 1892 980 l 5
 1699 787 l 5
 1705 778 l 5
 1897 970 l 5
 1900 966 l 5
1973 836 m 5
 1968 846 l 5
 1778 656 l 5
 1772 665 l 5
 1963 856 l 5
 1957 865 l 5
 1766 674 l 5
 1783 646 l 5
 1973 836 l 5
1979 827 m 5
 1789 637 l 5
 1794 627 l 5
 1984 817 l 5
 1979 827 l 5
2050 703 m 5
 2044 712 l 5
 1856 524 l 5
 1861 514 l 5
 2050 703 l 5
2052 698 m 5
 2055 693 l 5
 1867 505 l 5
 1872 495 l 5
 2061 684 l 5
 2052 698 l 5
2126 569 m 5
 2120 578 l 5
 1934 392 l 5
 1939 382 l 5
 2126 569 l 5
2084 137 m 5
 2267 320 l 5
 2262 330 l 5
 2079 147 l 5
 2084 137 l 5
2087 132 m 5
 2095 118 l 5
 2278 301 l 5
 2281 296 l 5
 2273 311 l 5
 2090 128 l 5
 2087 132 l 5
2284 292 m 5
 2101 109 l 5
 2107 100 l 5
 2289 282 l 5
 2284 292 l 5
2812 1375 m 5
 2816 1382 2820 1387 2823 1390 c 5
 2812 1390 l 5
 2625 1203 l 5
 2627 1200 2629 1197 2631 1194 c 5
 2812 1375 l 5
2785 1318 m 5
 2789 1327 2792 1336 2796 1344 c 5
 2636 1184 l 5
 2638 1181 2640 1178 2642 1175 c 5
 2785 1318 l 5
2776 1296 m 5
 2777 1299 2778 1302 2779 1305 c 5
 2778 1302 2777 1299 2776 1296 c 5
2702 1085 m 5
 2697 1071 2694 1062 2686 1054 c 5
 2686 1048 2685 1042 2684 1037 c 5
 2687 1040 l 5
 2701 1081 2740 1204 2775 1293 c 5
 2648 1166 l 5
 2650 1163 2651 1159 2653 1156 c 5
 2765 1268 l 5
 2762 1260 2759 1252 2756 1244 c 5
 2658 1146 l 5
 2660 1143 2661 1139 2663 1136 c 5
 2748 1221 l 5
 2745 1213 2743 1206 2740 1198 c 5
 2668 1126 l 5
 2670 1122 2671 1118 2672 1115 c 5
 2732 1175 l 5
 2729 1167 2727 1159 2724 1152 c 5
 2676 1104 l 5
 2677 1100 2679 1097 2680 1093 c 5
 2717 1130 l 5
 2714 1122 2711 1114 2709 1107 c 5
 2683 1081 l 5
 2684 1077 2685 1072 2685 1068 c 5
 2702 1085 l 5
738 651 m 5
 924 837 l 5
 918 846 l 5
 732 660 l 5
 738 651 l 5
738 651 m 5
 749 632 l 5
 936 819 l 5
 930 828 l 5
 744 642 l 5
 738 651 l 5
316 1309 m 5
 317 1309 317 1307 318 1307 c 5
 317 1308 317 1309 316 1309 c 5
316 1309 m 5
 397 1390 l 5
 382 1390 l 5
 307 1315 l 5
 310 1313 313 1311 316 1309 c 5
2165 8 m 5
 2181 39 l 5
 2157 15 l 5
 2162 5 l 5
 2165 8 l 5
EndSplineSet
EndChar

StartChar: X
Encoding: 88 88 5
GlifName: X_
Width: 2350
Flags: HMW
AnchorPoint: "bottom" 1086 0 basechar 0
AnchorPoint: "top" 1184 1400 basechar 0
LayerCount: 2
Fore
SplineSet
783 1146 m 1
 775 1153 l 1
 637 1015 l 1
 644 1007 l 1
 783 1146 l 1
659 992 m 1
 797 1130 l 1
 790 1138 l 1
 652 1000 l 1
 659 992 l 1
688 961 m 1
 827 1100 l 1
 819 1107 l 1
 681 969 l 1
 674 977 l 1
 812 1115 l 1
 805 1123 l 1
 666 984 l 1
 688 961 l 1
703 946 m 1
 841 1084 l 1
 834 1092 l 1
 695 953 l 1
 703 946 l 1
856 1069 m 1
 849 1077 l 1
 710 938 l 1
 717 930 l 1
 856 1069 l 1
732 915 m 1
 870 1053 l 1
 863 1061 l 1
 725 923 l 1
 732 915 l 1
761 884 m 1
 900 1023 l 1
 892 1030 l 1
 754 892 l 1
 750 896 l 1
 761 884 l 1
929 992 m 1
 922 1000 l 1
 783 861 l 1
 776 869 l 1
 914 1007 l 1
 907 1015 l 1
 768 876 l 1
 790 853 l 1
 929 992 l 1
805 838 m 1
 944 977 l 1
 936 984 l 1
 797 845 l 1
 805 838 l 1
958 961 m 1
 951 969 l 1
 812 830 l 1
 819 822 l 1
 958 961 l 1
834 807 m 1
 973 946 l 1
 965 953 l 1
 827 815 l 1
 834 807 l 1
863 776 m 1
 1002 915 l 1
 995 923 l 1
 856 784 l 1
 852 788 l 1
 863 776 l 1
878 761 m 1
 1017 900 l 1
 1009 907 l 1
 870 768 l 1
 878 761 l 1
1031 884 m 1
 1024 892 l 1
 885 753 l 1
 892 745 l 1
 1031 884 l 1
907 730 m 1
 1046 869 l 1
 1039 877 l 1
 899 737 l 1
 907 730 l 1
936 699 m 1
 1075 838 l 1
 1068 846 l 1
 929 707 l 1
 925 710 l 1
 936 699 l 1
1104 807 m 1
 1097 815 l 1
 958 676 l 1
 954 680 l 1
 965 668 l 1
 1104 807 l 1
980 653 m 1
 1119 792 l 1
 1112 800 l 1
 972 660 l 1
 980 653 l 1
1009 622 m 1
 1148 761 l 1
 1141 769 l 1
 1002 630 l 1
 1009 622 l 1
1038 591 m 1
 1178 731 l 1
 1170 738 l 1
 1031 599 l 1
 1027 602 l 1
 1038 591 l 1
1052 575 m 1
 1192 715 l 1
 1185 723 l 1
 1045 583 l 1
 1052 575 l 1
1056 571 m 1
 1067 560 l 1
 1207 700 l 1
 1199 707 l 1
 1060 568 l 1
 1056 571 l 1
1082 545 m 1
 1221 684 l 1
 1214 692 l 1
 1074 552 l 1
 1082 545 l 1
1111 514 m 1
 1251 654 l 1
 1243 661 l 1
 1104 522 l 1
 1111 514 l 1
1154 467 m 1
 1295 608 l 1
 1287 615 l 1
 1147 475 l 1
 1154 467 l 1
1184 437 m 1
 1324 577 l 1
 1316 584 l 1
 1177 445 l 1
 1184 437 l 1
1353 546 m 1
 1346 554 l 1
 1206 414 l 1
 1213 406 l 1
 1353 546 l 1
1227 390 m 1
 1368 531 l 1
 1360 538 l 1
 1220 398 l 1
 1227 390 l 1
1382 515 m 1
 1375 523 l 1
 1235 383 l 1
 1242 375 l 1
 1382 515 l 1
1300 313 m 1
 1441 454 l 1
 1433 461 l 1
 1293 321 l 1
 1300 313 l 1
1358 251 m 1
 1499 392 l 1
 1492 400 l 1
 1351 259 l 1
 1358 251 l 1
1242 15 m 2
 1236 14 1229 12 1223 11 c 2
 1222 10 l 1
 1237 10 l 1
 1242 15 l 2
1431 174 m 2
 1572 315 l 1
 1565 323 l 1
 1424 182 l 1
 1417 190 l 1
 1558 331 l 1
 1550 338 l 1
 1409 197 l 1
 1424 182 l 2
 1427 179 1429 177 1431 174 c 2
1281 24 m 2
 1274 22 1268 21 1261 19 c 2
 1252 10 l 1
 1267 10 l 1
 1281 24 l 2
1329 42 m 2
 1321 38 1312 34 1303 31 c 1
 1282 10 l 1
 1297 10 l 1
 1329 42 l 2
1631 254 m 1
 1624 262 l 1
 1372 10 l 1
 1387 10 l 1
 1631 254 l 1
1645 238 m 1
 1638 246 l 1
 1402 10 l 1
 1417 10 l 1
 1645 238 l 1
1689 192 m 1
 1682 200 l 1
 1492 10 l 1
 1507 10 l 1
 1689 192 l 1
1704 177 m 1
 1697 185 l 1
 1522 10 l 1
 1537 10 l 1
 1704 177 l 1
1567 10 m 1
 1719 162 l 1
 1711 169 l 1
 1552 10 l 1
 1567 10 l 1
1733 146 m 2
 1730 148 1728 151 1726 154 c 2
 1582 10 l 1
 1597 10 l 1
 1733 146 l 2
1627 10 m 1
 1749 132 l 2
 1746 134 1744 137 1741 139 c 2
 1612 10 l 1
 1627 10 l 1
1657 10 m 1
 1765 118 l 2
 1762 120 1760 123 1757 125 c 2
 1642 10 l 1
 1657 10 l 1
1782 105 m 2
 1779 107 1777 110 1774 112 c 2
 1672 10 l 1
 1687 10 l 1
 1782 105 l 2
1800 93 m 2
 1797 95 1794 97 1791 99 c 2
 1702 10 l 1
 1717 10 l 1
 1800 93 l 2
1807 10 m 1
 1860 63 l 2
 1856 64 1852 66 1849 67 c 2
 1792 10 l 1
 1807 10 l 1
1881 54 m 2
 1877 55 1874 57 1870 58 c 2
 1822 10 l 1
 1837 10 l 1
 1881 54 l 2
1867 10 m 1
 1903 46 l 2
 1899 47 1896 49 1892 50 c 2
 1852 10 l 1
 1867 10 l 1
1897 10 m 1
 1926 39 l 2
 1922 40 1918 41 1914 42 c 2
 1882 10 l 1
 1897 10 l 1
1949 32 m 2
 1945 33 1941 34 1937 35 c 2
 1912 10 l 1
 1927 10 l 1
 1949 32 l 2
1957 10 m 1
 1972 25 l 2
 1968 26 1964 27 1960 28 c 2
 1942 10 l 1
 1957 10 l 1
1987 10 m 1
 1996 19 l 2
 1992 20 1988 21 1984 22 c 2
 1972 10 l 1
 1987 10 l 1
2032 10 m 1
 2037 10 l 2
 2036 10 2034 11 2033 11 c 2
 2032 10 l 1
2017 10 m 1
 2020 13 l 2
 2016 14 2012 15 2008 16 c 2
 2002 10 l 1
 2017 10 l 1
761 1169 m 1
 623 1031 l 1
 630 1023 l 1
 768 1161 l 1
 761 1169 l 1
753 1176 m 1
 746 1184 l 1
 608 1046 l 1
 615 1038 l 1
 753 1176 l 1
1587 300 m 1
 1594 292 l 1
 1438 136 l 2
 1440 141 1440 146 1439 152 c 1
 1442 118 1400 84 1362 60 c 1
 1312 10 l 1
 1327 10 l 1
 1602 285 l 1
 1580 308 l 1
 1436 164 l 1
 1438 160 1439 156 1439 152 c 2
 1587 300 l 1
1660 223 m 1
 1667 215 l 1
 1462 10 l 1
 1477 10 l 1
 1675 208 l 1
 1653 231 l 1
 1432 10 l 1
 1447 10 l 1
 1660 223 l 1
1387 1390 m 1
 1372 1390 l 1
 1371 1389 l 2
 1375 1388 1379 1387 1383 1386 c 2
 1387 1390 l 1
1417 1390 m 1
 1402 1390 l 1
 1395 1383 l 2
 1399 1382 1402 1380 1406 1379 c 2
 1417 1390 l 1
1447 1390 m 1
 1432 1390 l 1
 1417 1375 l 2
 1420 1374 1424 1372 1427 1370 c 2
 1447 1390 l 1
1477 1390 m 1
 1462 1390 l 1
 1436 1364 l 2
 1439 1362 1442 1360 1445 1358 c 2
 1477 1390 l 1
1507 1390 m 1
 1492 1390 l 1
 1454 1352 l 2
 1457 1350 1459 1347 1462 1345 c 2
 1507 1390 l 1
1537 1390 m 1
 1522 1390 l 1
 1471 1339 l 2
 1474 1337 1475 1334 1478 1331 c 1
 1537 1390 l 1
1567 1390 m 1
 1552 1390 l 1
 1486 1324 l 2
 1488 1322 1491 1320 1494 1317 c 1
 1567 1390 l 1
1597 1390 m 1
 1582 1390 l 1
 1501 1309 l 1
 1504 1306 1506 1304 1508 1301 c 2
 1597 1390 l 1
1627 1390 m 1
 1612 1390 l 1
 1515 1293 l 2
 1517 1290 1520 1288 1522 1285 c 2
 1627 1390 l 1
260 23 m 2
 251 19 243 17 236 14 c 2
 232 10 l 1
 247 10 l 1
 260 23 l 2
1657 1390 m 1
 1642 1390 l 1
 1529 1277 l 2
 1531 1274 1533 1271 1535 1268 c 2
 1657 1390 l 1
312 45 m 2
 303 41 293 36 285 33 c 2
 262 10 l 1
 277 10 l 1
 312 45 l 2
1687 1390 m 1
 1672 1390 l 1
 1541 1259 l 2
 1543 1256 1545 1253 1547 1250 c 2
 1687 1390 l 1
368 71 m 2
 358 66 348 61 339 57 c 2
 292 10 l 1
 307 10 l 1
 368 71 l 2
1717 1390 m 1
 1702 1390 l 1
 1553 1241 l 2
 1555 1238 1556 1233 1557 1230 c 2
 1717 1390 l 1
431 104 m 2
 420 98 409 92 398 86 c 2
 322 10 l 1
 337 10 l 1
 431 104 l 2
1747 1390 m 1
 1732 1390 l 1
 1562 1220 l 2
 1563 1216 1564 1212 1565 1208 c 2
 1747 1390 l 1
1566 1194 m 2
 1566 1190 1566 1186 1565 1183 c 1
 1580 1202 1609 1236 1636 1264 c 2
 1566 1194 l 2
516 159 m 1
 497 146 481 135 470 128 c 2
 352 10 l 1
 367 10 l 1
 516 159 l 1
1666 1294 m 2
 1693 1319 1746 1359 1777 1390 c 1
 1762 1390 l 1
 1666 1294 l 2
624 237 m 2
 606 223 584 212 567 195 c 2
 382 10 l 1
 397 10 l 1
 624 237 l 2
427 10 m 1
 680 263 l 2
 681 269 681 274 682 280 c 2
 412 10 l 1
 427 10 l 1
457 10 m 1
 677 230 l 1
 677 236 677 241 678 246 c 2
 442 10 l 1
 457 10 l 1
487 10 m 1
 675 198 l 2
 675 203 676 209 676 214 c 2
 472 10 l 1
 487 10 l 1
517 10 m 1
 674 167 l 2
 674 172 674 177 674 182 c 2
 502 10 l 1
 517 10 l 1
547 10 m 1
 674 137 l 1
 674 152 l 1
 532 10 l 1
 547 10 l 1
577 10 m 1
 676 109 l 2
 675 113 675 118 675 123 c 2
 562 10 l 1
 577 10 l 1
607 10 m 1
 681 84 l 2
 680 88 679 92 678 96 c 2
 592 10 l 1
 607 10 l 1
637 10 m 1
 689 62 l 2
 688 65 685 68 684 72 c 2
 622 10 l 1
 637 10 l 1
667 10 m 1
 699 42 l 2
 697 45 695 48 693 51 c 2
 652 10 l 1
 667 10 l 1
727 10 m 1
 729 12 l 2
 726 14 723 16 720 18 c 2
 712 10 l 1
 727 10 l 1
1942 160 m 2
 2009 89 2146 28 2270 20 c 1
 2270 0 l 1
 1186 0 l 1
 1186 20 l 1
 1277 22 1480 105 1417 173 c 2
 1038 575 l 1
 705 283 l 2
 687 267 738 181 783 134 c 0
 842 72 922 24 986 20 c 1
 986 0 l 1
 212 0 l 1
 212 20 l 1
 338 34 589 220 681 300 c 2
 1018 596 l 1
 408 1241 l 2
 341 1312 204 1373 80 1381 c 1
 80 1401 l 1
 1164 1401 l 1
 1164 1381 l 1
 1073 1379 870 1296 933 1228 c 2
 1237 906 l 1
 1551 1187 l 2
 1569 1203 1538 1259 1493 1306 c 0
 1434 1368 1404 1376 1340 1380 c 1
 1340 1400 l 1
 1974 1400 l 1
 1974 1380 l 1
 1938 1376 1864 1337 1784 1295 c 0
 1717 1259 1627 1217 1575 1170 c 2
 1256 885 l 1
 1942 160 l 2
542 1115 m 1
 700 1273 l 1
 709 1291 731 1309 759 1324 c 1
 752 1321 746 1317 740 1313 c 2
 817 1390 l 1
 802 1390 l 1
 535 1123 l 1
 542 1115 l 1
712 25 m 2
 710 27 707 30 705 33 c 2
 682 10 l 1
 697 10 l 1
 712 25 l 2
911 1379 m 2
 918 1381 924 1382 930 1383 c 2
 937 1390 l 1
 922 1390 l 1
 911 1379 l 2
949 1387 m 2
 955 1388 960 1389 965 1390 c 2
 952 1390 l 1
 949 1387 l 2
601 1054 m 1
 739 1192 l 1
 732 1200 l 1
 593 1061 l 1
 601 1054 l 1
890 1373 m 2
 907 1390 l 1
 892 1390 l 1
 869 1367 l 2
 876 1369 883 1371 890 1373 c 2
586 1069 m 1
 724 1207 l 1
 717 1215 l 1
 579 1077 l 1
 586 1069 l 1
710 1223 m 2
 708 1226 705 1228 703 1231 c 2
 564 1092 l 1
 571 1084 l 1
 710 1223 l 2
698 1241 m 1
 696 1245 696 1250 696 1254 c 2
 550 1108 l 1
 557 1100 l 1
 698 1241 l 1
787 1390 m 1
 772 1390 l 1
 520 1138 l 1
 528 1131 l 1
 787 1390 l 1
757 1390 m 1
 742 1390 l 1
 506 1154 l 1
 499 1162 l 1
 727 1390 l 1
 712 1390 l 1
 491 1169 l 1
 513 1146 l 1
 757 1390 l 1
697 1390 m 1
 682 1390 l 1
 477 1185 l 1
 484 1177 l 1
 697 1390 l 1
462 1200 m 1
 469 1192 l 1
 667 1390 l 1
 652 1390 l 1
 462 1200 l 1
637 1390 m 1
 622 1390 l 1
 448 1216 l 1
 455 1208 l 1
 637 1390 l 1
607 1390 m 1
 592 1390 l 1
 433 1231 l 1
 426 1239 l 1
 577 1390 l 1
 562 1390 l 1
 418 1246 l 1
 440 1223 l 1
 607 1390 l 1
547 1390 m 1
 532 1390 l 1
 403 1261 l 2
 406 1259 408 1256 411 1254 c 2
 547 1390 l 1
387 1275 m 2
 390 1273 392 1270 395 1268 c 2
 517 1390 l 1
 502 1390 l 1
 387 1275 l 2
487 1390 m 1
 472 1390 l 1
 370 1288 l 2
 373 1286 376 1284 379 1282 c 2
 487 1390 l 1
352 1300 m 2
 355 1298 358 1296 361 1294 c 2
 457 1390 l 1
 442 1390 l 1
 352 1300 l 2
334 1312 m 2
 337 1310 340 1308 343 1306 c 2
 427 1390 l 1
 412 1390 l 1
 334 1312 l 2
397 1390 m 1
 382 1390 l 1
 315 1323 l 2
 318 1321 321 1319 324 1317 c 2
 397 1390 l 1
367 1390 m 1
 352 1390 l 1
 295 1333 l 2
 298 1331 302 1330 305 1328 c 2
 367 1390 l 1
274 1342 m 2
 277 1340 282 1340 285 1338 c 2
 337 1390 l 1
 322 1390 l 1
 274 1342 l 2
307 1390 m 1
 292 1390 l 1
 254 1352 l 2
 257 1350 261 1349 264 1347 c 2
 307 1390 l 1
234 1362 m 1
 238 1360 241 1359 244 1357 c 2
 277 1390 l 1
 262 1390 l 1
 234 1362 l 1
247 1390 m 1
 232 1390 l 1
 212 1370 l 2
 216 1369 219 1367 223 1366 c 2
 247 1390 l 1
217 1390 m 1
 202 1390 l 1
 189 1377 l 2
 193 1376 197 1375 201 1374 c 2
 217 1390 l 1
166 1384 m 2
 170 1383 174 1382 178 1381 c 2
 187 1390 l 1
 172 1390 l 1
 166 1384 l 2
157 1390 m 1
 142 1390 l 1
 141 1389 l 2
 145 1388 149 1387 153 1386 c 2
 157 1390 l 1
746 899 m 1
 885 1038 l 1
 878 1046 l 1
 739 907 l 1
 746 899 l 1
848 791 m 1
 987 930 l 1
 980 938 l 1
 841 799 l 1
 848 791 l 1
921 714 m 1
 1061 854 l 1
 1053 861 l 1
 914 722 l 1
 921 714 l 1
950 683 m 1
 1090 823 l 1
 1082 830 l 1
 943 691 l 1
 950 683 l 1
994 637 m 1
 1134 777 l 1
 1126 784 l 1
 987 645 l 1
 994 637 l 1
1023 606 m 1
 1163 746 l 1
 1156 754 l 1
 1016 614 l 1
 1023 606 l 1
1096 529 m 1
 1236 669 l 1
 1229 677 l 1
 1089 537 l 1
 1096 529 l 1
1169 452 m 1
 1309 592 l 1
 1302 600 l 1
 1162 460 l 1
 1169 452 l 1
1198 421 m 1
 1338 561 l 1
 1331 569 l 1
 1191 429 l 1
 1198 421 l 1
1344 267 m 1
 1485 408 l 1
 1477 415 l 1
 1337 275 l 1
 1344 267 l 1
1125 498 m 1
 1265 638 l 1
 1269 634 l 1
 1258 646 l 1
 1118 506 l 1
 1125 498 l 1
1129 494 m 1
 1140 483 l 1
 1280 623 l 1
 1273 631 l 1
 1133 491 l 1
 1129 494 l 1
1279 337 m 1
 1286 329 l 1
 1426 469 l 1
 1419 477 l 1
 1279 337 l 1
1271 344 m 1
 1411 484 l 1
 1404 492 l 1
 1264 352 l 1
 1271 344 l 1
1397 500 m 1
 1390 508 l 1
 1249 367 l 1
 1256 359 l 1
 1397 500 l 1
1463 431 m 1
 1322 290 l 1
 1329 282 l 1
 1470 423 l 1
 1463 431 l 1
1459 434 m 1
 1448 446 l 1
 1307 305 l 1
 1315 298 l 1
 1455 438 l 1
 1459 434 l 1
1373 236 m 1
 1514 377 l 1
 1507 385 l 1
 1366 244 l 1
 1373 236 l 1
1381 229 m 1
 1388 221 l 1
 1528 361 l 1
 1532 358 l 1
 1521 369 l 1
 1381 229 l 1
1536 354 m 1
 1395 213 l 1
 1402 205 l 1
 1543 346 l 1
 1536 354 l 1
1609 277 m 1
 1342 10 l 1
 1357 10 l 1
 1616 269 l 1
 1609 277 l 1
1819 82 m 2
 1816 84 1812 85 1809 87 c 2
 1732 10 l 1
 1747 10 l 1
 1819 82 l 2
1839 72 m 2
 1836 73 1833 75 1829 77 c 2
 1762 10 l 1
 1777 10 l 1
 1839 72 l 2
825 1353 m 2
 833 1356 840 1358 848 1361 c 2
 877 1390 l 1
 862 1390 l 1
 825 1353 l 2
801 1344 m 2
 847 1390 l 1
 832 1390 l 1
 773 1331 l 2
 782 1335 792 1340 801 1344 c 2
EndSplineSet
EndChar

StartChar: Y
Encoding: 89 89 6
GlifName: Y_
Width: 2394
Flags: HMW
AnchorPoint: "bottom" 1286 0 basechar 0
AnchorPoint: "top" 1344 1400 basechar 0
LayerCount: 2
Fore
SplineSet
127 1390 m 1
 112 1390 l 1
 111 1389 l 2
 115 1388 119 1387 123 1386 c 2
 127 1390 l 1
157 1390 m 1
 142 1390 l 1
 135 1383 l 2
 139 1382 143 1381 147 1380 c 2
 157 1390 l 1
159 1377 m 2
 163 1376 166 1374 170 1373 c 2
 187 1390 l 1
 172 1390 l 1
 159 1377 l 2
217 1390 m 1
 202 1390 l 1
 181 1369 l 2
 185 1368 188 1365 191 1364 c 2
 217 1390 l 1
247 1390 m 1
 232 1390 l 1
 202 1360 l 2
 205 1358 209 1357 212 1355 c 2
 247 1390 l 1
222 1350 m 2
 225 1348 229 1347 232 1345 c 2
 277 1390 l 1
 262 1390 l 1
 222 1350 l 2
242 1340 m 2
 245 1338 249 1337 252 1335 c 2
 307 1390 l 1
 292 1390 l 1
 242 1340 l 2
337 1390 m 1
 322 1390 l 1
 262 1330 l 2
 265 1328 269 1327 272 1325 c 2
 337 1390 l 1
367 1390 m 1
 352 1390 l 1
 282 1320 l 2
 285 1318 289 1317 292 1315 c 2
 367 1390 l 1
294 1313 m 1
 299 1310 305 1306 310 1303 c 1
 397 1390 l 1
 382 1390 l 1
 301 1309 l 2
 299 1310 296 1312 294 1313 c 1
427 1390 m 1
 412 1390 l 1
 319 1297 l 2
 322 1295 325 1293 328 1291 c 2
 427 1390 l 1
457 1390 m 1
 442 1390 l 1
 337 1285 l 2
 340 1283 343 1281 346 1279 c 2
 457 1390 l 1
517 1390 m 1
 502 1390 l 1
 371 1259 l 2
 368 1261 366 1264 363 1266 c 2
 487 1390 l 1
 472 1390 l 1
 354 1272 l 1
 363 1265 371 1258 378 1251 c 1
 517 1390 l 1
577 1390 m 1
 562 1390 l 1
 401 1229 l 1
 397 1232 l 1
 408 1221 l 1
 577 1390 l 1
607 1390 m 1
 592 1390 l 1
 415 1213 l 1
 422 1205 l 1
 607 1390 l 1
430 1198 m 1
 437 1190 l 1
 637 1390 l 1
 622 1390 l 1
 430 1198 l 1
667 1390 m 1
 652 1390 l 1
 444 1182 l 1
 452 1175 l 1
 667 1390 l 1
697 1390 m 1
 682 1390 l 1
 459 1167 l 1
 466 1159 l 1
 697 1390 l 1
488 1136 m 1
 495 1128 l 1
 757 1390 l 1
 742 1390 l 1
 488 1136 l 1
787 1390 m 1
 772 1390 l 1
 502 1120 l 1
 510 1113 l 1
 787 1390 l 1
677 1250 m 1
 676 1256 677 1261 679 1267 c 2
 517 1105 l 1
 524 1097 l 1
 677 1250 l 1
735 1323 m 2
 744 1328 754 1333 764 1337 c 1
 817 1390 l 1
 802 1390 l 1
 735 1323 l 2
813 1356 m 2
 847 1390 l 1
 832 1390 l 1
 789 1347 l 2
 797 1350 805 1353 813 1356 c 2
857 1370 m 2
 877 1390 l 1
 862 1390 l 1
 836 1364 l 2
 843 1366 850 1368 857 1370 c 2
898 1381 m 2
 907 1390 l 1
 892 1390 l 1
 878 1376 l 2
 885 1378 891 1379 898 1381 c 2
935 1388 m 2
 937 1390 l 1
 922 1390 l 1
 917 1385 l 2
 923 1386 929 1387 935 1388 c 2
1707 1390 m 2
 1710 1390 1713 1389 1716 1389 c 2
 1717 1390 l 1
 1707 1390 l 2
1747 1390 m 1
 1732 1390 l 1
 1729 1387 l 2
 1733 1386 1737 1385 1741 1384 c 2
 1747 1390 l 1
1807 1390 m 1
 1792 1390 l 1
 1779 1377 l 2
 1775 1378 1771 1379 1767 1380 c 2
 1777 1390 l 1
 1762 1390 l 1
 1754 1382 l 1
 1767 1380 1779 1377 1791 1374 c 1
 1807 1390 l 1
1837 1390 m 1
 1822 1390 l 1
 1802 1370 l 2
 1806 1369 1809 1368 1813 1366 c 1
 1837 1390 l 1
1195 718 m 1
 1187 725 l 1
 1026 564 l 1
 1033 556 l 1
 1195 718 l 1
1823 1361 m 2
 1826 1359 1830 1358 1833 1356 c 2
 1867 1390 l 1
 1852 1390 l 1
 1823 1361 l 2
1041 549 m 1
 1048 541 l 1
 1210 703 l 1
 1202 710 l 1
 1041 549 l 1
1897 1390 m 1
 1882 1390 l 1
 1842 1350 l 2
 1845 1348 1848 1346 1851 1344 c 2
 1897 1390 l 1
1927 1390 m 1
 1912 1390 l 1
 1860 1338 l 2
 1863 1336 1865 1333 1868 1331 c 2
 1927 1390 l 1
1240 673 m 1
 1232 680 l 1
 1070 518 l 1
 1066 522 l 1
 1077 510 l 1
 1240 673 l 1
1957 1390 m 1
 1942 1390 l 1
 1876 1324 l 2
 1879 1322 1880 1319 1883 1316 c 1
 1957 1390 l 1
1255 658 m 1
 1247 665 l 1
 1084 502 l 1
 1091 495 l 1
 1091 494 l 1
 1255 658 l 1
1987 1390 m 1
 1972 1390 l 1
 1891 1309 l 2
 1894 1307 1897 1304 1899 1302 c 2
 1987 1390 l 1
1270 643 m 1
 1262 650 l 1
 1091 479 l 1
 1091 464 l 1
 1270 643 l 1
1285 628 m 1
 1277 635 l 1
 1091 449 l 1
 1091 434 l 1
 1285 628 l 1
2047 1390 m 1
 2032 1390 l 1
 1921 1279 l 2
 1919 1281 1917 1284 1914 1287 c 1
 2017 1390 l 1
 2002 1390 l 1
 1906 1294 l 1
 1914 1286 1921 1278 1928 1271 c 1
 2047 1390 l 1
1300 613 m 1
 1292 620 l 1
 1091 419 l 1
 1091 404 l 1
 1300 613 l 1
1315 598 m 1
 1307 605 l 1
 1091 389 l 1
 1091 374 l 1
 1315 598 l 1
2107 1390 m 1
 2092 1390 l 1
 1950 1248 l 2
 1952 1245 1955 1243 1957 1240 c 2
 2107 1390 l 1
1330 583 m 1
 1322 590 l 1
 1091 359 l 1
 1091 344 l 1
 1330 583 l 1
2137 1390 m 1
 2122 1390 l 1
 1963 1231 l 2
 1965 1228 1968 1226 1970 1223 c 2
 2137 1390 l 1
1333 556 m 1
 1333 571 l 1
 1091 329 l 1
 1091 314 l 1
 1333 556 l 1
1987 1195 m 2
 1982 1190 l 2
 1982 1189 1982 1189 1982 1188 c 1
 1984 1190 1985 1192 1987 1195 c 2
1333 526 m 1
 1333 541 l 1
 1091 299 l 1
 1091 284 l 1
 1333 526 l 1
1333 496 m 1
 1333 511 l 1
 1091 269 l 1
 1091 254 l 1
 1333 496 l 1
1333 466 m 1
 1333 481 l 1
 1091 239 l 1
 1091 224 l 1
 1333 466 l 1
907 10 m 1
 951 54 l 2
 943 51 936 49 928 46 c 2
 892 10 l 1
 907 10 l 1
1333 436 m 1
 1333 451 l 1
 1091 209 l 1
 1091 194 l 1
 1333 436 l 1
937 10 m 1
 1002 75 l 2
 994 72 985 68 976 64 c 2
 922 10 l 1
 937 10 l 1
1333 406 m 1
 1333 421 l 1
 1091 179 l 1
 1091 175 l 2
 1091 171 1091 168 1091 164 c 2
 1333 406 l 1
967 10 m 1
 1333 376 l 1
 1333 391 l 1
 1088 146 l 1
 1081 121 1062 104 1029 87 c 1
 952 10 l 1
 967 10 l 1
997 10 m 1
 1333 346 l 1
 1333 361 l 1
 982 10 l 1
 997 10 l 1
1027 10 m 1
 1333 316 l 1
 1333 331 l 1
 1012 10 l 1
 1027 10 l 1
1057 10 m 1
 1333 286 l 1
 1333 301 l 1
 1042 10 l 1
 1057 10 l 1
1087 10 m 1
 1333 256 l 1
 1333 271 l 1
 1072 10 l 1
 1087 10 l 1
1117 10 m 1
 1333 226 l 1
 1333 241 l 1
 1102 10 l 1
 1117 10 l 1
1147 10 m 1
 1333 196 l 1
 1333 211 l 1
 1132 10 l 1
 1147 10 l 1
1177 10 m 1
 1333 166 l 2
 1333 169 1333 172 1333 175 c 2
 1333 181 l 1
 1162 10 l 1
 1177 10 l 1
1338 141 m 2
 1337 145 1336 149 1335 153 c 2
 1192 10 l 1
 1207 10 l 1
 1338 141 l 2
1297 10 m 1
 1379 92 l 2
 1376 94 1374 97 1371 99 c 2
 1282 10 l 1
 1297 10 l 1
1398 81 m 2
 1395 83 1392 85 1389 87 c 2
 1312 10 l 1
 1327 10 l 1
 1398 81 l 2
1357 10 m 1
 1418 71 l 2
 1415 73 1411 74 1408 76 c 2
 1342 10 l 1
 1357 10 l 1
1439 62 m 2
 1435 63 1432 66 1429 67 c 2
 1372 10 l 1
 1387 10 l 1
 1439 62 l 2
1461 54 m 2
 1457 55 1454 57 1450 58 c 2
 1402 10 l 1
 1417 10 l 1
 1461 54 l 2
1447 10 m 1
 1483 46 l 2
 1479 47 1476 49 1472 50 c 2
 1432 10 l 1
 1447 10 l 1
1477 10 m 1
 1505 38 l 2
 1501 39 1498 41 1494 42 c 2
 1462 10 l 1
 1477 10 l 1
1527 30 m 2
 1523 31 1520 33 1516 34 c 2
 1492 10 l 1
 1507 10 l 1
 1527 30 l 2
1549 22 m 2
 1545 23 1542 25 1538 26 c 2
 1522 10 l 1
 1537 10 l 1
 1549 22 l 2
1572 15 m 2
 1568 16 1565 18 1561 19 c 2
 1552 10 l 1
 1567 10 l 1
 1572 15 l 2
1348 121 m 2
 1350 118 1353 116 1355 113 c 2
 1252 10 l 1
 1267 10 l 1
 1363 106 l 1
 1355 114 1348 122 1343 131 c 1
 1222 10 l 1
 1237 10 l 1
 1348 121 l 2
757 20 m 1
 838 29 888 39 953 65 c 0
 1053 104 1081 120 1081 175 c 2
 1081 490 l 1
 378 1240 l 2
 311 1311 174 1372 50 1380 c 1
 50 1400 l 1
 1134 1400 l 1
 1134 1380 l 1
 1044 1378 838 1292 903 1227 c 2
 1492 630 l 1
 1966 1187 l 2
 1982 1206 1923 1259 1878 1306 c 0
 1819 1368 1739 1376 1675 1380 c 1
 1675 1400 l 1
 2399 1400 l 1
 2399 1380 l 1
 2363 1376 2279 1337 2199 1295 c 0
 2132 1259 2035 1223 1990 1170 c 2
 1511 610 l 1
 1511 175 l 2
 1511 120 1539 104 1639 65 c 0
 1704 39 1754 29 1835 20 c 1
 1835 0 l 1
 757 0 l 1
 757 20 l 1
777 13 m 1
 777 10 l 1
 787 10 l 1
 792 15 l 2
 787 14 782 14 777 13 c 1
393 1236 m 1
 547 1390 l 1
 532 1390 l 1
 386 1244 l 2
 387 1243 388 1242 389 1241 c 2
 393 1236 l 1
474 1152 m 1
 481 1144 l 1
 727 1390 l 1
 712 1390 l 1
 474 1152 l 1
1062 525 m 1
 1225 688 l 1
 1217 695 l 1
 1055 533 l 1
 1062 525 l 1
1943 1256 m 2
 2077 1390 l 1
 2062 1390 l 1
 1936 1264 l 2
 1939 1261 1941 1259 1943 1256 c 2
2049 1287 m 2
 1975 1213 l 1
 1977 1209 1979 1206 1980 1203 c 2
 2011 1234 l 1
 2012 1235 l 1
 2023 1253 2034 1271 2049 1287 c 2
2167 1390 m 1
 2152 1390 l 1
 2056 1294 l 2
 2083 1320 2136 1359 2167 1390 c 1
786 819 m 1
 940 973 l 1
 929 984 l 1
 932 980 l 1
 779 827 l 1
 786 819 l 1
794 812 m 1
 801 804 l 1
 955 958 l 1
 943 969 l 1
 947 965 l 1
 794 812 l 1
735 873 m 1
 742 865 l 1
 895 1018 l 1
 884 1028 l 1
 887 1025 l 1
 735 873 l 1
728 881 m 1
 880 1033 l 1
 869 1043 l 1
 872 1040 l 1
 721 889 l 1
 728 881 l 1
700 1213 m 1
 693 1219 l 2
 687 1225 683 1232 680 1238 c 1
 532 1090 l 1
 539 1082 l 1
 685 1228 l 2
 687 1225 689 1223 692 1220 c 1
 546 1074 l 1
 553 1066 l 1
 700 1213 l 1
707 1205 m 1
 707 1205 l 1
 561 1059 l 1
 568 1051 l 1
 715 1198 l 1
 707 1205 l 1
722 1190 m 1
 722 1190 l 1
 575 1043 l 1
 582 1035 l 1
 730 1183 l 1
 722 1190 l 1
736 1176 m 1
 737 1175 l 1
 590 1028 l 1
 597 1020 l 1
 745 1168 l 1
 736 1176 l 1
751 1161 m 1
 752 1160 l 1
 604 1012 l 1
 626 989 l 1
 775 1138 l 1
 766 1146 l 1
 767 1145 l 1
 619 997 l 1
 612 1005 l 1
 760 1153 l 1
 751 1161 l 1
781 1131 m 1
 782 1130 l 1
 633 981 l 1
 641 974 l 1
 790 1123 l 1
 781 1131 l 1
796 1117 m 1
 797 1115 l 1
 648 966 l 1
 655 958 l 1
 805 1108 l 1
 796 1117 l 1
810 1102 m 1
 812 1100 l 1
 662 950 l 1
 684 927 l 1
 835 1078 l 1
 825 1087 l 1
 827 1085 l 1
 677 935 l 1
 670 943 l 1
 820 1093 l 1
 810 1102 l 1
840 1072 m 1
 842 1070 l 1
 692 920 l 1
 699 912 l 1
 850 1063 l 1
 840 1072 l 1
855 1058 m 1
 857 1055 l 1
 706 904 l 1
 713 896 l 1
 865 1048 l 1
 855 1058 l 1
899 1013 m 1
 902 1010 l 1
 750 858 l 1
 757 850 l 1
 910 1003 l 1
 899 1013 l 1
914 999 m 1
 917 995 l 1
 764 842 l 1
 772 835 l 1
 925 988 l 1
 914 999 l 1
958 954 m 1
 962 950 l 1
 808 796 l 1
 815 788 l 1
 970 943 l 1
 958 954 l 1
973 940 m 1
 977 935 l 1
 822 780 l 1
 830 773 l 1
 985 928 l 1
 973 940 l 1
988 925 m 1
 992 920 l 1
 837 765 l 1
 844 757 l 1
 1000 913 l 1
 988 925 l 1
1003 910 m 1
 1007 905 l 1
 852 750 l 1
 859 742 l 1
 1015 898 l 1
 1003 910 l 1
1017 895 m 1
 1022 890 l 1
 866 734 l 1
 873 726 l 1
 1030 883 l 1
 1017 895 l 1
1032 881 m 1
 1037 875 l 1
 881 719 l 1
 888 711 l 1
 1045 868 l 1
 1032 881 l 1
1047 866 m 1
 1052 860 l 1
 895 703 l 1
 902 695 l 1
 1060 853 l 1
 1047 866 l 1
1062 851 m 1
 1067 845 l 1
 910 688 l 1
 917 680 l 1
 1075 838 l 1
 1062 851 l 1
1076 836 m 1
 1082 830 l 1
 924 672 l 1
 931 664 l 1
 1090 823 l 1
 1076 836 l 1
1091 822 m 1
 1097 815 l 1
 939 657 l 1
 946 649 l 1
 1105 808 l 1
 1091 822 l 1
1106 807 m 1
 1112 800 l 1
 953 641 l 1
 961 634 l 1
 1120 793 l 1
 1106 807 l 1
1121 792 m 1
 1127 785 l 1
 968 626 l 1
 975 618 l 1
 1135 778 l 1
 1121 792 l 1
1136 777 m 1
 1142 770 l 1
 982 610 l 1
 990 603 l 1
 1150 763 l 1
 1136 777 l 1
1150 763 m 1
 1157 755 l 1
 997 595 l 1
 1004 587 l 1
 1165 748 l 1
 1150 763 l 1
1012 580 m 1
 1019 572 l 1
 1180 733 l 1
 1165 748 l 1
 1172 740 l 1
 1012 580 l 1
827 20 m 2
 821 19 815 18 809 17 c 2
 802 10 l 1
 817 10 l 1
 827 20 l 2
841 22 m 2
 845 23 l 1
 832 10 l 1
 847 10 l 1
 864 27 l 2
 866 27 867 28 869 28 c 1
 860 26 850 24 841 22 c 2
872 29 m 1
 876 30 880 31 884 32 c 2
 862 10 l 1
 877 10 l 1
 905 38 l 1
 894 35 883 32 872 29 c 1
EndSplineSet
EndChar

StartChar: Z
Encoding: 90 90 7
GlifName: Z_
Width: 1962
Flags: HMW
AnchorPoint: "bottom" 956 0 basechar 0
AnchorPoint: "top" 954 1400 basechar 0
LayerCount: 2
Fore
SplineSet
187 1390 m 1
 172 1390 l 1
 168 1386 l 1
 168 1371 l 1
 187 1390 l 1
217 1390 m 1
 202 1390 l 1
 168 1356 l 1
 168 1341 l 1
 217 1390 l 1
247 1390 m 1
 232 1390 l 1
 168 1326 l 1
 168 1311 l 1
 247 1390 l 1
277 1390 m 1
 262 1390 l 1
 168 1296 l 1
 168 1281 l 1
 277 1390 l 1
307 1390 m 1
 292 1390 l 1
 168 1266 l 1
 168 1251 l 1
 307 1390 l 1
337 1390 m 1
 322 1390 l 1
 168 1236 l 1
 168 1221 l 1
 337 1390 l 1
367 1390 m 1
 352 1390 l 1
 168 1206 l 1
 168 1191 l 1
 367 1390 l 1
397 1390 m 1
 382 1390 l 1
 168 1176 l 1
 168 1161 l 1
 397 1390 l 1
427 1390 m 1
 412 1390 l 1
 168 1146 l 1
 168 1131 l 1
 427 1390 l 1
457 1390 m 1
 442 1390 l 1
 168 1116 l 1
 168 1101 l 1
 457 1390 l 1
487 1390 m 1
 472 1390 l 1
 168 1086 l 1
 168 1071 l 1
 487 1390 l 1
215 1088 m 1
 297 1184 366 1239 419 1292 c 2
 517 1390 l 1
 502 1390 l 1
 168 1056 l 1
 168 1041 l 1
 215 1088 l 1
466 1324 m 2
 477 1331 489 1337 500 1343 c 2
 547 1390 l 1
 532 1390 l 1
 466 1324 l 2
577 1390 m 1
 562 1390 l 1
 528 1356 l 2
 536 1360 545 1363 553 1366 c 2
 577 1390 l 1
607 1390 m 1
 592 1390 l 1
 576 1374 l 2
 583 1376 591 1379 598 1381 c 2
 607 1390 l 1
618 1386 m 2
 623 1387 628 1389 633 1390 c 2
 622 1390 l 1
 618 1386 l 2
1277 1370 m 1
 1275 1370 l 1
 1264 1357 l 1
 1277 1370 l 1
1181 1259 m 1
 1099 1162 l 1
 1307 1370 l 1
 1292 1370 l 1
 1181 1259 l 1
1016 1064 m 1
 934 967 l 1
 1337 1370 l 1
 1322 1370 l 1
 1016 1064 l 1
851 869 m 1
 769 772 l 1
 1367 1370 l 1
 1352 1370 l 1
 851 869 l 1
1427 1370 m 1
 1412 1370 l 1
 521 479 l 1
 562 528 l 1
 438 381 l 1
 1427 1370 l 1
1457 1370 m 1
 1442 1370 l 1
 356 284 l 1
 273 186 l 1
 1457 1370 l 1
1487 1370 m 1
 1472 1370 l 1
 191 89 l 1
 141 30 l 1
 147 30 l 1
 1487 1370 l 1
1517 1370 m 1
 1502 1370 l 1
 162 30 l 1
 177 30 l 1
 1517 1370 l 1
1547 1370 m 1
 1532 1370 l 1
 192 30 l 1
 207 30 l 1
 1547 1370 l 1
1577 1370 m 1
 1562 1370 l 1
 222 30 l 1
 237 30 l 1
 1577 1370 l 1
1607 1370 m 1
 1592 1370 l 1
 252 30 l 1
 267 30 l 1
 1607 1370 l 1
1487 1220 m 1
 1570 1318 l 1
 282 30 l 1
 297 30 l 1
 1487 1220 l 1
1322 1025 m 1
 1405 1123 l 1
 312 30 l 1
 327 30 l 1
 1322 1025 l 1
1157 830 m 1
 1240 928 l 1
 342 30 l 1
 357 30 l 1
 1157 830 l 1
992 635 m 1
 1075 733 l 1
 372 30 l 1
 387 30 l 1
 992 635 l 1
827 440 m 1
 909 537 l 1
 402 30 l 1
 417 30 l 1
 827 440 l 1
1662 345 m 1
 1662 360 l 1
 1639 337 1619 307 1600 283 c 2
 1662 345 l 1
1387 10 m 1
 1662 285 l 1
 1662 300 l 1
 1372 10 l 1
 1387 10 l 1
1417 10 m 1
 1662 255 l 1
 1662 270 l 1
 1402 10 l 1
 1417 10 l 1
1447 10 m 1
 1662 225 l 1
 1662 240 l 1
 1432 10 l 1
 1447 10 l 1
1477 10 m 1
 1662 195 l 1
 1662 210 l 1
 1462 10 l 1
 1477 10 l 1
1507 10 m 1
 1662 165 l 1
 1662 180 l 1
 1492 10 l 1
 1507 10 l 1
1537 10 m 1
 1662 135 l 1
 1662 150 l 1
 1522 10 l 1
 1537 10 l 1
1567 10 m 1
 1662 105 l 1
 1662 120 l 1
 1552 10 l 1
 1567 10 l 1
1597 10 m 1
 1662 75 l 1
 1662 90 l 1
 1582 10 l 1
 1597 10 l 1
1642 10 m 1
 1662 10 l 1
 1662 30 l 1
 1642 10 l 1
1627 10 m 1
 1662 45 l 1
 1662 60 l 1
 1612 10 l 1
 1627 10 l 1
1269 12 m 2
 1275 13 1282 15 1288 16 c 2
 1282 10 l 1
 1297 10 l 1
 1309 22 l 1
 1291 16 1273 13 1254 10 c 2
 1267 10 l 1
 1269 12 l 2
1361 44 m 1
 1375 52 1389 61 1403 71 c 2
 1342 10 l 1
 1357 10 l 1
 1662 315 l 1
 1662 330 l 1
 1540 208 l 1
 1463 115 1402 60 1333 31 c 1
 1312 10 l 1
 1327 10 l 1
 1361 44 l 1
178 870 m 1
 158 870 l 1
 158 1400 l 1
 1806 1400 l 1
 1806 1370 l 1
 672 30 l 1
 1250 30 l 2
 1389 30 1492 170 1576 271 c 0
 1663 376 1733 495 1792 580 c 1
 1812 580 l 1
 1812 0 l 1
 120 0 l 1
 120 30 l 1
 1254 1370 l 1
 790 1370 l 2
 604 1370 531 1275 418 1154 c 0
 327 1057 227 941 178 870 c 1
603 576 m 1
 1397 1370 l 1
 1382 1370 l 1
 686 674 l 1
 603 576 l 1
660 243 m 2
 688 276 716 309 744 342 c 2
 432 30 l 1
 447 30 l 1
 660 243 l 2
629 206 m 2
 579 147 l 1
 462 30 l 1
 477 30 l 1
 529 87 579 146 629 206 c 2
EndSplineSet
EndChar

StartChar: U
Encoding: 85 85 32
GlifName: U_
Width: 2214
Flags: HMW
AnchorPoint: "cedilla" 1196 0 basechar 0
AnchorPoint: "bottom" 1196 0 basechar 0
AnchorPoint: "top" 1234 1400 basechar 0
LayerCount: 2
Fore
SplineSet
2075 1377 m 2
 2028 1375 1999 1332 1962 1278 c 0
 1940 1246 1885 1159 1865 1114 c 0
 1858 1099 1854 1085 1854 1065 c 2
 1854 510 l 2
 1854 180 1605 -28 1169 -28 c 0
 663 -28 404 164 404 510 c 2
 404 1225 l 2
 404 1280 376 1296 276 1335 c 0
 211 1361 161 1371 80 1380 c 1
 80 1400 l 1
 1130 1400 l 1
 1130 1380 l 1
 1049 1371 999 1361 934 1335 c 0
 834 1295 806 1280 806 1225 c 2
 806 480 l 2
 806 216 991 17 1289 17 c 0
 1557 17 1824 186 1824 510 c 2
 1824 1065 l 2
 1824 1085 1820 1099 1813 1114 c 0
 1793 1159 1738 1246 1716 1278 c 0
 1679 1332 1650 1375 1603 1377 c 2
 1544 1380 l 1
 1544 1400 l 1
 2134 1400 l 1
 2134 1380 l 1
 2075 1377 l 2
1816.84277344 1129.84277344 m 2
 1847.85546875 1160.85546875 l 2
 1847.02246094 1155.03613281 1846.2109375 1149.22070312 1845.42089844 1143.42089844 c 2
 1821.41796875 1119.41796875 l 2
 1819.96972656 1122.83398438 1818.4453125 1126.30859375 1816.84277344 1129.84277344 c 2
779.19921875 122.19921875 m 2
 781.521484375 119.5078125 783.8671875 116.853515625 786.237304688 114.237304688 c 2
 724.946289062 52.9462890625 l 2
 724.328897587 53.1999789777 723.712305453 53.4543794188 723.096508061 53.7094865731 c 1
 728.142837958 51.6184522537 733.242104195 49.5738192294 738.39363531 47.5754249531 c 1
 737.476544568 47.9312608355 736.561147637 48.2886005348 735.647460938 48.6474609375 c 2
 793.458709639 106.458709639 l 1
 785.595445734 114.723618683 777.975610571 123.387239783 770.624886079 132.453301305 c 1
 771.196600995 131.748016587 771.769897309 131.045158199 772.344726562 130.344726562 c 2
 703.971679688 61.9716796875 l 2
 702.503589126 62.6323827706 701.040272562 63.2973294065 699.581730596 63.966520906 c 1
 704.463006678 61.7267122661 709.398366615 59.5336389067 714.3871371 57.3871370996 c 1
 779.19921875 122.19921875 l 2
1785.79589844 1188.79589844 m 2
 1866.05371094 1269.05371094 l 2
 1864.84277344 1262.95800781 1863.65136719 1256.76074219 1862.48046875 1250.48046875 c 2
 1791.32052928 1179.32052928 l 2
 1793.17566912 1176.08359067 1794.97575921 1172.88397394 1796.72171242 1169.72171242 c 2
 1859.16601562 1232.16601562 l 2
 1859.03881003 1231.44191316 1858.91187636 1230.71700924 1858.78521863 1229.99132803 c 1
 1865.74354537 1269.83856792 1873.56507595 1307.31081082 1881.93080101 1337.88439884 c 1
 1880.96828123 1334.36707489 1880.01289629 1330.75840021 1879.06542969 1327.06542969 c 2
 1768.56295298 1216.56295298 l 2
 1770.60345441 1213.41039259 1772.59686774 1210.28782176 1774.54385527 1207.19526556 c 1
 1774.49898698 1207.26655359 1774.45409461 1207.33785797 1774.40917969 1207.40917969 c 2
 1874.23242188 1307.23242188 l 2
 1872.78027344 1300.97460938 1871.34960938 1294.53515625 1869.94238281 1287.94238281 c 2
 1780.15565111 1198.15565111 l 1
 1782.83541034 1193.77646345 1785.41976836 1189.45987466 1787.91071282 1185.20595709 c 1
 1787.21299957 1186.39766122 1786.50804423 1187.59429107 1785.79589844 1188.79589844 c 2
718.924804688 211.924804688 m 2
 720.626953125 208.620117188 722.358398438 205.3515625 724.118164062 202.118164062 c 2
 625.965820312 103.965820312 l 2
 624.097978192 105.162817728 622.241484088 106.368600703 620.395888409 107.583391323 c 1
 625.388852121 104.29661529 630.462501103 101.07620083 635.615727966 97.9218752384 c 1
 635.472271417 98.0097133684 635.328877671 98.0976038344 635.185546875 98.185546875 c 2
 729.499722296 192.499722296 l 1
 722.997810191 203.812971275 716.854133144 215.58361474 711.098953026 227.816045471 c 1
 712.029169936 225.838584071 712.969428978 223.873145592 713.919921875 221.919921875 c 2
 607.998046875 115.998046875 l 2
 606.493763368 117.050446809 604.997376792 118.109215236 603.508888005 119.174353354 c 1
 607.905168288 116.028053198 612.370023167 112.937539746 616.902606855 109.902606855 c 1
 718.924804688 211.924804688 l 2
671.82421875 344.82421875 m 2
 672.723632812 340.723632812 673.659179688 336.658203125 674.62890625 332.62890625 c 2
 528.1015625 186.1015625 l 2
 527.624570426 186.629919935 527.148955897 187.159340049 526.674727605 187.689831448 c 1
 529.503645141 184.524870282 532.381838689 181.397913637 535.308849734 178.308849734 c 1
 677.64629548 320.64629548 l 1
 674.525003304 332.520886906 671.715601329 344.716317564 669.235049361 357.235049361 c 1
 514.238427672 202.238427672 l 2
 516.660225214 199.274295774 519.122839285 196.341346735 521.625932141 193.439498677 c 1
 521.442783536 193.651876972 521.259855022 193.864426341 521.077148438 194.077148438 c 2
 671.82421875 344.82421875 l 2
659.640625 422.640625 m 2
 660.086914062 418.090820312 660.57421875 413.577148438 661.099609375 409.099609375 c 2
 488.801757812 236.801757812 l 2
 486.809570312 239.818359375 484.854492188 242.864257812 482.9375 245.9375 c 2
 659.640625 422.640625 l 2
953.191711428 -5.79701599407 m 1
 952.609218066 -5.71663003049 952.027085083 -5.63585619061 951.4453125 -5.5546875 c 2
 956.623046875 -0.376953125 l 2
 957.917091523 -0.847856793058 959.212692995 -1.31241340859 960.509766875 -1.77058257045 c 1
 955.567466207 -0.024437658944 950.646452373 1.81557911021 945.749931717 3.74993171723 c 1
 938.344211327 -3.65578867286 l 1
 943.266156607 -4.39675944549 948.215431368 -5.11047547036 953.191711428 -5.79701599407 c 1
964.673282196 -7.32671780425 m 2
 966.445521345 -7.55452686167 968.221098709 -7.778953094 970 -8 c 2
 970 -5 l 2
 969.247917705 -4.75378258193 968.496276304 -4.50542081251 967.745086923 -4.25491307687 c 2
 964.673282196 -7.32671780425 l 2
935.116177638 8.11617763783 m 2
 931.634888337 9.60039817632 928.167366923 11.1332127815 924.714792633 12.714792633 c 2
 912.525390625 0.525390625 l 2
 911.911224381 0.631951213301 911.297504537 0.738978492416 910.684233969 0.846466338559 c 1
 916.778042562 -0.221760093609 922.916565637 -1.24613330006 929.09914689 -2.22681428048 c 1
 927.854675589 -2.02929852153 926.61199121 -1.82999584122 925.37109375 -1.62890625 c 2
 935.116177638 8.11617763783 l 2
943.607922116 4.60277524293 m 1
 940.956860532 5.66654818752 938.313137657 6.75807618576 935.677264546 7.87743309346 c 1
 938.313368431 6.75776876087 940.95705626 5.66635151484 943.607922116 4.60277524293 c 1
908.559332126 1.22105384681 m 1
 905.63196266 1.74006553841 902.714943302 2.26945874221 899.80859375 2.80859375 c 2
 914.5390625 17.5390625 l 2
 915.10561967 17.2613544599 915.672589154 16.9849658265 916.239975247 16.7099005569 c 1
 912.3332631 18.6041774904 908.447231251 20.5620016854 904.583626033 22.5836260331 c 1
 887.220703125 5.220703125 l 2
 886.794879238 5.30487182308 886.369278869 5.38927419795 885.943904105 5.47390929568 c 1
 893.411451243 3.98744599528 900.950355305 2.56993238933 908.559332126 1.22105384681 c 1
878.044696206 7.07754843697 m 1
 876.949080292 7.30441575895 875.855067984 7.53280425594 874.762695312 7.7626953125 c 2
 894.842773438 27.8427734375 l 2
 896.689675029 26.8143596732 898.542002941 25.8009480872 900.399756456 24.8025373452 c 1
 895.329198454 27.5279251102 890.298696585 30.3643026603 885.312249166 33.312249166 c 1
 862.43465858 10.4346585796 l 1
 867.601868327 9.28108616963 872.805365127 8.16208658861 878.044696206 7.07754843697 c 1
861.40736979 10.6645628809 m 1
 857.66534849 11.5044341873 853.941567866 12.3623400918 850.23828125 13.23828125 c 2
 875.987304688 38.9873046875 l 2
 877.829336215 37.833779731 879.677611114 36.6958632023 881.53212935 35.573555047 c 1
 876.597488754 38.5603587967 871.70738685 41.6575678285 866.865752397 44.8657523969 c 1
 838.172851562 16.1728515625 l 2
 837.67884774 16.2963223739 837.185201223 16.4201356032 836.691912163 16.5442918501 c 1
 844.834484949 14.4939538091 853.073605503 12.5341991901 861.40736979 10.6645628809 c 1
857.942993655 50.9429936549 m 2
 855.014812492 52.992393704 852.105729339 55.0835678721 849.216647247 57.2166472471 c 2
 814.440448351 22.4404483505 l 1
 819.11491755 21.1386865154 823.823260259 19.8682865789 828.565091436 18.6291548211 c 1
 827.789240859 18.8319870544 827.014288451 19.0356800338 826.240234375 19.240234375 c 2
 857.942993655 50.9429936549 l 2
840.684215192 63.684215192 m 2
 837.883494797 65.8633042705 835.102975026 68.0830290777 832.34351421 70.3435142103 c 2
 791.244314844 29.2443148436 l 1
 798.804164767 26.9115739225 806.458891502 24.6654677006 814.206739556 22.5055656392 c 1
 810.373451514 23.5745451732 806.562695474 24.6641805996 802.775390625 25.775390625 c 2
 840.684215192 63.684215192 l 2
846.63632167 59.1369173998 m 1
 846.188586211 59.472764617 845.741341666 59.8096276521 845.294591767 60.1475074287 c 1
 845.741334173 59.8096189774 846.188579883 59.4727542321 846.63632167 59.1369173998 c 1
787.802127272 30.314514667 m 1
 785.139317714 31.1488181017 782.488255754 31.9939608061 779.849609375 32.849609375 c 2
 824.192382812 77.1923828125 l 2
 826.311854805 75.3661517836 828.4439987 73.5646611347 830.58928812 71.7883843415 c 1
 825.73512726 75.8083245548 820.947125298 79.9553016523 816.229999669 84.2299996686 c 1
 768.591796875 36.591796875 l 2
 766.534591159 37.2920649641 764.48509887 37.9991564695 762.443320418 38.7130725608 c 1
 770.771110624 35.8006656821 779.224910464 33.0013575179 787.802127272 30.314514667 c 1
1838.62994402 1089.4653402 m 1
 1838.06738409 1084.59698028 1837.52366017 1079.77233583 1837 1075 c 1
 1837.52401616 1079.77236997 1838.06753287 1084.59701581 1838.62994402 1089.4653402 c 1
1837 1075 m 1
 1835.98925781 1078.76855469 1834.86035156 1082.63867188 1833.61035156 1086.61035156 c 2
 1838.91398906 1091.91398906 l 2
 1839.56957788 1097.54250188 1840.2501389 1103.22714309 1840.9547434 1108.9547434 c 2
 1829.84277344 1097.84277344 l 2
 1828.98261956 1100.26407012 1828.07968026 1102.71959515 1827.13334519 1105.20965489 c 1
 1831.20169578 1094.50285949 1834.46940785 1084.4322015 1837 1075 c 1
757.470855152 40.4708551524 m 1
 808.454101562 91.4541015625 l 2
 809.828631783 90.1448758943 811.209869773 88.8468298407 812.597516063 87.5601124609 c 1
 808.633699704 91.2362197838 804.721593419 95.0040647363 800.864062908 98.8640629078 c 1
 746.489257812 44.4892578125 l 2
 745.510667657 44.8558024481 744.53391301 45.223970802 743.559012597 45.5937811865 c 1
 748.155571279 43.8499010972 752.793008235 42.1422975178 757.470855152 40.4708551524 c 1
1843.12286258 1126.12286258 m 1
 1846.89532319 1155.24107784 1851.25056954 1185.11263631 1856.0710828 1214.0710828 c 1
 1801.98830376 1159.98830376 l 2
 1803.75666074 1156.6510063 1805.46275828 1153.35747513 1807.10775247 1150.10775247 c 2
 1853.16699219 1196.16699219 l 2
 1852.23535156 1190.27441406 1851.32421875 1184.359375 1850.43359375 1178.43359375 c 2
 1812.06542969 1140.06542969 l 2
 1811.41786061 1141.41197486 1810.75939621 1142.76632564 1810.08997179 1144.12861555 c 1
 1816.2089023 1131.67323923 1821.4103794 1119.88382241 1825.76286491 1108.76286491 c 1
 1843.12286258 1126.12286258 l 1
693.700251294 66.7002512936 m 1
 765.673489195 138.673489195 l 1
 762.77621088 142.380898302 759.923111286 146.153112638 757.115842412 149.990370652 c 1
 757.802766104 149.05131367 758.492376502 148.116081115 759.184570312 147.184570312 c 2
 683.575195312 71.5751953125 l 2
 681.755788498 72.470593541 679.944430222 73.3728905171 678.141121239 74.2820877371 c 1
 683.262885847 71.6995297403 688.449549532 69.1723207742 693.700251294 66.7002512936 c 1
673.59679028 76.5967902798 m 1
 752.879680892 155.879680892 l 1
 749.241414824 161.024424124 745.68422988 166.282378955 742.211912511 171.654094252 c 1
 743.711566841 169.334000114 745.227012044 167.035384553 746.7578125 164.7578125 c 2
 663.767578125 81.767578125 l 2
 660.512695312 83.517578125 657.286132812 85.291015625 654.087890625 87.087890625 c 2
 740.820246208 173.820246208 l 2
 738.875207155 176.866352623 736.957312823 179.948651794 735.067242301 183.067242301 c 2
 644.560546875 92.560546875 l 2
 643.677442327 93.0786531036 642.796634141 93.5986729675 641.918122022 94.1206059678 c 1
 652.174690875 88.0250478548 662.737048104 82.1844620951 673.59679028 76.5967902798 c 1
1884.1349325 1345.73406779 m 1
 1889.25752675 1363.49954575 1894.56950312 1378.589808 1900 1390 c 1
 1897.22851562 1384.17675781 1894.48730469 1377.39453125 1891.78710938 1369.78710938 c 2
 1756.59580621 1234.59580621 l 2
 1756.73033338 1234.39741614 1756.86506435 1234.19881412 1757 1234 c 0
 1758.91023764 1231.18543647 1760.78450956 1228.39317815 1762.62324054 1225.62324054 c 2
 1884.70800781 1347.70800781 l 2
 1884.51673486 1347.05378184 1884.32570746 1346.3957842 1884.1349325 1345.73406779 c 1
1897 1390 m 1
 1882 1390 l 1
 1744.56385438 1252.56385438 l 2
 1746.51606295 1249.61460396 1748.51293791 1246.61286536 1750.55802685 1243.55802685 c 2
 1897 1390 l 1
599.253173409 122.253173409 m 1
 709.10546875 232.10546875 l 2
 709.14932724 232.009948059 709.193208442 231.914454623 709.237113514 231.818988985 c 1
 706.818822727 237.078627845 704.471790142 242.42234387 702.198364495 247.850478429 c 1
 702.951578033 246.051970013 703.712930414 244.262617795 704.482421875 242.482421875 c 2
 590.670898438 128.670898438 l 2
 589.200072591 129.795409352 587.737384261 130.926482779 586.282969521 132.064254788 c 1
 590.535599803 128.736810343 594.859291606 125.466521036 599.253173409 122.253173409 c 1
1867 1390 m 1
 1852 1390 l 1
 1732.67796238 1270.67796238 l 2
 1734.60894638 1267.71485139 1736.58370161 1264.6913819 1738.60677061 1261.60677061 c 2
 1867 1390 l 1
582.252234604 135.252234604 m 1
 700.052676644 253.052676644 l 2
 698.609692561 256.605600699 697.197941251 260.194031494 695.818061799 263.818061799 c 2
 574 142 l 2
 573.269904367 142.610592157 572.542119429 143.22293484 571.816626902 143.8370661 c 1
 575.244635055 140.935116525 578.723342203 138.073547819 582.252234604 135.252234604 c 1
1727.22751059 1279.05510598 m 1
 1727.96025547 1277.92778439 1728.69917521 1276.7911225 1729.44454907 1275.64507006 c 1
 1728.69922528 1276.79114795 1727.96031964 1277.92782714 1727.22751059 1279.05510598 c 1
1837 1390 m 1
 1822 1390 l 1
 1720.85449219 1288.85449219 l 2
 1718.83496094 1291.95410156 1716.86035156 1294.9765625 1714.92382812 1297.92382812 c 2
 1807 1390 l 1
 1792 1390 l 1
 1708.94726562 1306.94726562 l 2
 1708.21706222 1308.03892492 1707.49167356 1309.11922635 1706.77066056 1310.18825759 c 1
 1713.02426369 1300.91525112 1719.60050564 1290.78969229 1726.76566482 1279.76566482 c 1
 1837 1390 l 1
566.286779797 148.591826388 m 1
 566.163124738 148.699833207 566.039537006 148.807896556 565.916015625 148.916015625 c 2
 691.780273438 274.780273438 l 2
 692.577895599 272.539815053 693.387761913 270.312321066 694.209434757 268.098010072 c 1
 692.036894012 273.954326861 689.946957982 279.902283299 687.942261857 285.942261857 c 1
 558.002929688 156.002929688 l 2
 557.057315656 156.869035812 556.116049074 157.738594323 555.179082767 158.611557979 c 1
 558.817606206 155.221094099 562.520411138 151.881242675 566.286779797 148.591826388 c 1
550.261928747 163.261928747 m 2
 684.305472954 297.305472954 l 2
 683.127505687 301.125611493 681.983010675 304.981296071 680.87261818 308.87261818 c 2
 542.696532771 170.696532771 l 2
 545.185255951 168.192473158 547.707141346 165.714293058 550.261928747 163.261928747 c 2
1705.58772167 1311.93776812 m 1
 1704.68238048 1313.27325285 1703.783644 1314.59081298 1702.890625 1315.890625 c 2
 1777 1390 l 1
 1762 1390 l 1
 1696.70996094 1324.70996094 l 2
 1695.6118835 1326.24345693 1694.51947494 1327.74912388 1693.43141169 1329.22722657 c 1
 1697.39965247 1323.8361631 1701.42507268 1318.07761173 1705.58772167 1311.93776812 c 1
1691.84181426 1331.37099803 m 1
 1691.3443266 1332.03695413 1690.84761793 1332.69713324 1690.3515625 1333.3515625 c 2
 1747 1390 l 1
 1732 1390 l 1
 1683.74741274 1341.74741274 l 1
 1686.44090122 1338.45754253 1689.13043275 1335.00022033 1691.84181426 1331.37099803 c 1
1717 1390 m 1
 1702 1390 l 1
 1669.46875 1357.46875 l 2
 1668.33828524 1358.57219683 1667.19972222 1359.6490889 1666.0513233 1360.69992155 c 1
 1669.72129251 1357.3411825 1673.29124166 1353.71692703 1676.81744956 1349.81744956 c 1
 1717 1390 l 1
512.472032002 204.41490548 m 1
 510.824919168 206.458281769 509.197066543 208.516138072 507.588867188 210.588867188 c 2
 666.864257812 369.864257812 l 2
 667.270088664 367.575603411 667.686984376 365.297730155 668.114639193 363.030332216 c 1
 666.893562745 369.506726992 665.759803648 376.068390334 664.715655135 382.715655135 c 1
 501.130186062 219.130186062 l 1
 504.802655285 214.143081949 508.583749703 209.238105499 512.472032002 204.41490548 c 1
1687 1390 m 1
 1672 1390 l 1
 1653.10876839 1371.10876839 l 2
 1656.01989946 1369.07739139 1658.8429106 1366.90908205 1661.60001075 1364.60001075 c 2
 1687 1390 l 1
662.792888545 395.792888545 m 1
 660.98130931 409.006387404 659.517931651 422.547892336 658.419890697 436.419890697 c 1
 477.278490599 255.278490599 l 1
 483.487235974 244.722596561 490.128457441 234.487073745 497.191236164 224.569248888 c 1
 496.411362754 225.664608743 495.636662146 226.763904044 494.8671875 227.8671875 c 2
 662.792888545 395.792888545 l 1
1657 1390 m 1
 1642 1390 l 1
 1633.90671728 1381.90671728 l 2
 1637.37195917 1380.37660144 1640.69553563 1378.70965087 1643.90168585 1376.90168585 c 2
 1657 1390 l 1
1627 1390 m 1
 1612 1390 l 1
 1611.42871094 1389.42871094 l 2
 1610.62597656 1389.62402344 1609.81640625 1389.81445312 1609 1390 c 1
 1613.95188734 1388.87457106 1618.63311246 1387.5713522 1623.0834797 1386.0834797 c 1
 1627 1390 l 1
471.828235187 264.828235187 m 1
 657.44140625 450.44140625 l 2
 657.705611737 446.076586837 658.00502732 441.743624178 658.339653007 437.442518273 c 1
 657.643448575 446.394626082 657.099211355 455.48407474 656.7115304 464.7115304 c 1
 466.590820312 274.590820312 l 2
 464.876953125 277.887695312 463.203125 281.213867188 461.569335938 284.569335938 c 2
 656.234019366 479.234019366 l 1
 656.07852199 485.755601517 656 492.344186893 656 499 c 1
 656 497.333984375 656.004882812 495.671875 656.014648438 494.014648438 c 2
 456.768575331 294.768575331 l 1
 461.426908886 284.524620145 466.449485604 274.545165563 471.828235187 264.828235187 c 1
456.589837577 295.162158665 m 1
 455.08606793 298.478459112 453.620284914 301.821902695 452.193359375 305.193359375 c 2
 656 509 l 1
 656 524 l 1
 447.846782362 315.846782362 l 1
 450.600233418 308.835838148 453.515362653 301.941153877 456.589837577 295.162158665 c 1
446.529770558 319.241271415 m 1
 445.578012781 321.724823576 444.646329003 324.222955488 443.735351562 326.735351562 c 2
 656 539 l 1
 656 554 l 1
 439.862304688 337.862304688 l 2
 439.509151174 338.920940103 439.159483517 339.982131812 438.813323754 341.045836255 c 1
 441.217167652 333.657575813 443.790127894 326.389586184 446.529770558 319.241271415 c 1
436.233696 349.233696 m 1
 656 569 l 1
 656 584 l 1
 432.85546875 360.85546875 l 2
 432.609003074 361.744869124 432.364943332 362.635973701 432.123276963 363.5287708 c 1
 433.425339801 358.715687341 434.795683689 353.950712428 436.233696 349.233696 c 1
429.731652832 372.731652832 m 2
 656 599 l 1
 656 614 l 1
 426.869593175 384.869593175 l 2
 427.776830363 380.79087681 428.730964021 376.744924558 429.731652832 372.731652832 c 2
424.847839292 394.397271755 m 1
 424.654443503 395.354843791 424.463619322 396.314208773 424.275390625 397.275390625 c 2
 656 629 l 1
 656 644 l 1
 421.95439887 409.95439887 l 1
 422.84552051 404.717821894 423.810219421 399.532166431 424.847839292 394.397271755 c 1
420.600035951 418.320759059 m 1
 420.365509534 419.84793474 420.137177461 421.379361443 419.915039062 422.915039062 c 2
 656 659 l 1
 656 674 l 1
 418.163085938 436.163085938 l 2
 417.754840935 439.567106994 417.376497379 442.992002646 417.027626244 446.437344052 c 1
 417.991742237 436.909769145 419.183702463 427.537857462 420.600035951 418.320759059 c 1
416.706356412 449.706356412 m 1
 656 689 l 1
 656 704 l 1
 415.553710938 463.553710938 l 2
 415.402228075 465.677571544 415.261593682 467.809066259 415.131990216 469.948103976 c 1
 415.544917486 463.124859801 416.070098846 456.37770678 416.706356412 449.706356412 c 1
414.712202827 477.712202827 m 2
 656 719 l 1
 656 734 l 1
 414.191560161 492.191560161 l 2
 414.310238494 487.328122775 414.483918491 482.501702765 414.712202827 477.712202827 c 2
414.007706211 504.81196433 m 1
 414.004226704 505.540798906 414.000976562 506.270466557 414.000976562 507.000976562 c 2
 656 749 l 1
 656 764 l 1
 414 522 l 1
 414 508 l 2
 414 506.935600538 414.007706211 505.872922305 414.007706211 504.81196433 c 1
414 537 m 1
 656 779 l 1
 656 794 l 1
 414 552 l 1
 414 537 l 1
414 567 m 1
 656 809 l 1
 656 824 l 1
 414 582 l 1
 414 567 l 1
414 597 m 1
 656 839 l 1
 656 854 l 1
 414 612 l 1
 414 597 l 1
414 627 m 1
 656 869 l 1
 656 884 l 1
 414 642 l 1
 414 627 l 1
414 657 m 1
 656 899 l 1
 656 914 l 1
 414 672 l 1
 414 657 l 1
414 687 m 1
 656 929 l 1
 656 944 l 1
 414 702 l 1
 414 687 l 1
414 717 m 1
 656 959 l 1
 656 974 l 1
 414 732 l 1
 414 717 l 1
414 747 m 1
 656 989 l 1
 656 1004 l 1
 414 762 l 1
 414 747 l 1
414 777 m 1
 656 1019 l 1
 656 1034 l 1
 414 792 l 1
 414 777 l 1
414 807 m 1
 656 1049 l 1
 656 1064 l 1
 414 822 l 1
 414 807 l 1
414 837 m 1
 656 1079 l 1
 656 1094 l 1
 414 852 l 1
 414 837 l 1
970 1387 m 1
 967.720703125 1386.74707031 965.462890625 1386.48828125 963.225585938 1386.22558594 c 2
 967 1390 l 1
 952 1390 l 1
 946.047197563 1384.04719756 l 1
 953.784075926 1385.10204974 961.754324374 1386.08381382 970 1387 c 1
414 867 m 1
 656 1109 l 1
 656 1124 l 1
 414 882 l 1
 414 867 l 1
937 1390 m 1
 922 1390 l 1
 910.360543139 1378.36054314 l 2
 916.270400118 1379.45113511 922.295250162 1380.48264004 928.459398051 1381.45939805 c 2
 937 1390 l 1
414 897 m 1
 656 1139 l 1
 656 1154 l 1
 414 912 l 1
 414 897 l 1
893.401273575 1375.00261765 m 1
 898.276616214 1376.03574525 903.218561926 1377.02269952 908.242247926 1377.96618193 c 1
 903.218614064 1377.02301366 898.27680522 1376.03596921 893.401273575 1375.00261765 c 1
907 1390 m 1
 892 1390 l 1
 872.090051923 1370.09005192 l 2
 878.506443158 1371.69189517 885.004721839 1373.20064546 891.623132082 1374.62313208 c 2
 907 1390 l 1
414 927 m 1
 656 1169 l 1
 656 1184 l 1
 414 942 l 1
 414 927 l 1
855.054181637 1365.56691 m 1
 859.099094333 1366.70561892 863.163668864 1367.80344339 867.25802447 1368.86219103 c 1
 863.163665683 1367.80355307 859.099018037 1366.7057446 855.054181637 1365.56691 c 1
877 1390 m 1
 862 1390 l 1
 829.883789062 1357.88378906 l 2
 828.435001372 1357.40732846 826.986038794 1356.92509658 825.536417873 1356.43698817 c 1
 834.206273479 1359.35591843 842.852165436 1362.06297093 851.576418676 1364.57641868 c 1
 877 1390 l 1
414 957 m 1
 656 1199 l 1
 656 1214 l 1
 414 972 l 1
 414 957 l 1
817.218894097 1353.57484131 m 1
 813.767670608 1352.36196669 810.307537605 1351.11483531 806.83203125 1349.83203125 c 2
 847 1390 l 1
 832 1390 l 1
 782.389848639 1340.38984864 l 2
 784.560299895 1341.24918699 786.763564557 1342.11897998 789 1343 c 0
 798.554534092 1346.78886697 807.919108655 1350.30636318 817.218894097 1353.57484131 c 1
414 987 m 1
 656.049804688 1229.04980469 l 1
 656.049801634 1229.0314902 l 2
 656.414651534 1243.51618853 658.797400986 1255.4685585 663.633103209 1265.82887412 c 1
 660.766016183 1259.68676214 658.761417163 1252.98541117 657.528320312 1245.52832031 c 1
 414 1002 l 1
 414 987 l 1
780.195841377 1339.52028822 m 1
 772.096640793 1336.30724459 764.462629759 1333.23854054 757.2734375 1330.2734375 c 2
 817 1390 l 1
 802 1390 l 1
 730.8828125 1318.8828125 l 2
 730.417928917 1318.67002772 729.955535255 1318.4575299 729.495622832 1318.24530023 c 1
 743.878681669 1324.88206456 760.689575766 1331.78098498 780.195841377 1339.52028822 c 1
664.382677458 1267.38267746 m 1
 671.411984389 1281.48882613 683.172516286 1292.64199022 700.814209026 1303.32751436 c 1
 700.393633713 1303.07278541 699.976402452 1302.81779192 699.5625 1302.5625 c 2
 787 1390 l 1
 772 1390 l 1
 414 1032 l 1
 414 1017 l 1
 664.382677458 1267.38267746 l 1
757 1390 m 1
 742 1390 l 1
 414 1062 l 1
 414 1047 l 1
 757 1390 l 1
727 1390 m 1
 712 1390 l 1
 414 1092 l 1
 414 1077 l 1
 727 1390 l 1
697 1390 m 1
 682 1390 l 1
 414 1122 l 1
 414 1107 l 1
 697 1390 l 1
667 1390 m 1
 652 1390 l 1
 414 1152 l 1
 414 1137 l 1
 667 1390 l 1
637 1390 m 1
 622 1390 l 1
 414 1182 l 1
 414 1167 l 1
 637 1390 l 1
607 1390 m 1
 592 1390 l 1
 414 1212 l 1
 414 1197 l 1
 607 1390 l 1
577 1390 m 1
 562 1390 l 1
 412.903580825 1240.90358082 l 2
 413.547248408 1236.49185541 413.907932091 1231.86044459 413.984518302 1226.9845183 c 2
 577 1390 l 1
411.442500578 1248.60050281 m 1
 411.072588904 1250.16662894 410.662681619 1251.70366074 410.212890625 1253.21289062 c 2
 547 1390 l 1
 532 1390 l 1
 406.0703125 1264.0703125 l 2
 405.113120787 1266.0988455 404.069785474 1268.07417215 402.940307089 1270.00092019 c 1
 406.763130764 1263.47901226 409.599646276 1256.40019212 411.442500578 1248.60050281 c 1
517 1390 m 1
 502 1390 l 1
 394.154296875 1282.15429688 l 2
 393.384461603 1283.03665415 392.59243828 1283.90886512 391.778227833 1284.7714958 c 1
 395.110392454 1281.24050883 398.070357144 1277.54826194 400.65640278 1273.65640278 c 1
 517 1390 l 1
487 1390 m 1
 472 1390 l 1
 378.561523438 1296.56152344 l 2
 375.790039062 1298.67578125 372.858398438 1300.74023438 369.765625 1302.765625 c 2
 457 1390 l 1
 442 1390 l 1
 360.466826387 1308.46682639 l 1
 370.671100224 1302.58522642 379.432087195 1296.44106922 386.736425899 1289.7364259 c 1
 487 1390 l 1
358.284425113 1309.70848201 m 1
 355.856403648 1311.07238367 353.349663916 1312.42340774 350.764648438 1313.76464844 c 2
 427 1390 l 1
 414 1390 l 1
 412 1390 l 1
 340.740593195 1318.74059319 l 1
 346.983134475 1315.76762071 352.831718656 1312.77119668 358.284425113 1309.70848201 c 1
336.731789296 1320.62191686 m 1
 335.587913705 1321.15119101 334.431459544 1321.67995617 333.262426653 1322.20843452 c 1
 334.431411571 1321.67989182 335.58786948 1321.15113392 336.731789296 1320.62191686 c 1
397 1390 m 1
 382 1390 l 1
 319.98828125 1327.98828125 l 2
 318.097652156 1328.7837158 316.179149347 1329.58061739 314.232612227 1330.3797907 c 1
 319.879266426 1328.06128797 325.28975011 1325.76243738 330.463163129 1323.46316313 c 1
 397 1390 l 1
367 1390 m 1
 352 1390 l 1
 298.62109375 1336.62109375 l 2
 298.342781712 1336.72978411 298.063977505 1336.83855347 297.784680408 1336.94740358 c 1
 301.743245036 1335.40438778 305.602290283 1333.87761662 309.36156829 1332.36156829 c 2
 367 1390 l 1
291.29046106 1339.45998751 m 1
 290.13433016 1339.90427037 288.970137501 1340.35017288 287.797851562 1340.79785156 c 2
 337 1390 l 1
 322 1390 l 1
 276.918945312 1344.91894531 l 2
 273.327148438 1346.27246094 269.696289062 1347.6328125 265.997070312 1348.99707031 c 2
 307 1390 l 1
 292 1390 l 1
 254.987304688 1352.98730469 l 2
 251.368164062 1354.27246094 247.6640625 1355.56054688 243.849609375 1356.84960938 c 2
 277 1390 l 1
 262 1390 l 1
 232.557617188 1360.55761719 l 2
 228.854492188 1361.73730469 225.040039062 1362.91699219 221.094726562 1364.09472656 c 2
 247 1390 l 1
 232 1390 l 1
 209.455078125 1367.45507812 l 2
 208.413617041 1367.74524705 207.363124338 1368.03534314 206.303321315 1368.32532581 c 1
 237.128029629 1359.88790715 260.040647325 1351.30557462 282 1343 c 0
 285.15235698 1341.80770013 288.249211923 1340.62846629 291.29046106 1339.45998751 c 1
200.104838262 1369.99122507 m 1
 199.28795902 1370.20682583 198.465616516 1370.42232177 197.637695312 1370.63769531 c 2
 217 1390 l 1
 202 1390 l 1
 185.6484375 1373.6484375 l 2
 183.082516526 1374.26997618 180.464889659 1374.89068089 177.792287074 1375.50973371 c 1
 185.683153316 1373.68155149 193.09606311 1371.84055806 200.104838262 1369.99122507 c 1
187 1390 m 1
 172 1390 l 1
 161.18359375 1379.18359375 l 2
 159.957972243 1379.44207228 158.721619258 1379.70037045 157.474287999 1379.95840529 c 1
 163.025837431 1378.80975363 168.359254876 1377.6544299 173.493587535 1376.49358753 c 1
 187 1390 l 1
154.863449136 1380.49481161 m 1
 152.846600258 1380.90632241 150.801306437 1381.31701785 148.7265625 1381.7265625 c 2
 157 1390 l 1
 142 1390 l 1
 136.133148825 1384.13314883 l 1
 142.642673015 1382.92907011 148.87843811 1381.7158265 154.863449136 1380.49481161 c 1
127 1390 m 1
 120 1390 l 1
 120 1387 l 2
 121.145378675 1386.80444754 122.282849232 1386.60861685 123.412514132 1386.41251413 c 2
 127 1390 l 1
EndSplineSet
EndChar

StartChar: period
Encoding: 46 46 33
GlifName: period
Width: 880
Flags: HMW
LayerCount: 2
Fore
SplineSet
200 220 m 0
 200 352 308 460 440 460 c 0
 572 460 680 352 680 220 c 0
 680 88 572 -20 440 -20 c 0
 308 -20 200 88 200 220 c 0
EndSplineSet
EndChar

StartChar: comma
Encoding: 44 44 34
GlifName: comma
Width: 918
Flags: HMW
LayerCount: 2
Fore
SplineSet
204 218 m 0
 204 344 312 456 458 456 c 0
 606 456 718 334 718 148 c 0
 718 -123 510 -312 200 -312 c 1
 200 -292 l 5
 438 -282 575 -128 575 1 c 0
 575 6 573 18 561 18 c 4
 543.87890625 18 519 -20 440 -20 c 0
 294 -20 204 92 204 218 c 0
EndSplineSet
EndChar

StartChar: exclam
Encoding: 33 33 38
GlifName: exclam
Width: 880
VWidth: 0
Flags: HMW
LayerCount: 2
Fore
SplineSet
200 220 m 0
 200 352 308 460 440 460 c 0
 572 460 680 352 680 220 c 0
 680 88 572 -20 440 -20 c 0
 308 -20 200 88 200 220 c 0
140 1400 m 1
 740 1400 l 1
 740 1370 l 5
 540 1140 455 920 455 560 c 1
 425 560 l 1
 425 920 340 1090 140 1370 c 1
 140 1400 l 1
EndSplineSet
EndChar

StartChar: quotesingle
Encoding: 39 39 39
GlifName: quotesingle
Width: 840
Flags: HMW
LayerCount: 2
Fore
SplineSet
638 1192 m 28
 618 1042 435 966 435 746 c 5
 405 746 l 5
 405 966 222 1042 202 1192 c 28
 200 1206 200 1216 200 1228 c 4
 200 1346 302 1430 420 1430 c 4
 538 1430 640 1346 640 1228 c 4
 640 1216 640 1206 638 1192 c 28
EndSplineSet
EndChar

StartChar: numbersign
Encoding: 35 35 40
GlifName: numbersign
Width: 1210
VWidth: 0
Flags: HMW
LayerCount: 2
Fore
SplineSet
120 955 m 261
 120 985 l 261
 1150 985 l 261
 1150 955 l 261
 120 955 l 261
60 435 m 257
 60 465 l 257
 1090 465 l 257
 1090 435 l 257
 60 435 l 257
930 1400 m 257
 960 1400 l 257
 700 0 l 257
 670 0 l 257
 930 1400 l 257
510 1400 m 257
 540 1400 l 257
 280 0 l 257
 250 0 l 257
 510 1400 l 257
EndSplineSet
EndChar

StartChar: hyphen
Encoding: 45 45 41
GlifName: hyphen
Width: 560
VWidth: 0
Flags: HMW
LayerCount: 2
Fore
SplineSet
40 450 m 261
 40 650 l 261
 520 650 l 261
 520 450 l 261
 40 450 l 261
EndSplineSet
EndChar

StartChar: dollar
Encoding: 36 36 42
GlifName: dollar
Width: 1666
Flags: HMW
LayerCount: 2
Fore
SplineSet
872 1500 m 1
 902 1500 l 1
 902 -190 l 1
 872 -190 l 1
 872 1500 l 1
702 1500 m 1
 732 1500 l 1
 732 -190 l 1
 702 -190 l 1
 702 1500 l 1
873 -28 m 1
 434 -28 80 74 80 298 c 0
 80 412 183 468 313 468 c 0
 433 468 528 390 528 290 c 0
 528 119.997070312 370 156.147460938 370 113 c 0
 370 54.53515625 616.01953125 2 873 2 c 1
 873 -28 l 1
817 1420 m 1
 1176 1420 1470 1318 1470 1114 c 0
 1470 1000 1377 934 1247 934 c 4
 1127 934 1022 1012 1022 1112 c 4
 1022 1282.00292969 1170 1255.85253906 1170 1299 c 0
 1170 1347.46484375 1063.98046875 1390 817 1390 c 1
 817 1420 l 1
817 1390 m 1
 525 1390 358 1298 358 1190 c 0
 358 1038 466.215820312 937.522460938 864 900 c 0
 1367.26171875 852.528320312 1616 722 1616 440 c 0
 1616 130 1235 -28 873 -28 c 1
 873 2 l 1
 1095 2 1388 62 1388 250 c 0
 1388 414 1207.52441406 460.075195312 768 505 c 0
 285.458007812 554.322265625 98 691 98 970 c 0
 98 1260 425 1420 817 1420 c 1
 817 1390 l 1
EndSplineSet
EndChar

StartChar: bar
Encoding: 124 124 43
GlifName: bar
Width: 608
VWidth: 0
Flags: HMW
LayerCount: 2
Fore
SplineSet
200 1560 m 257
 408 1560 l 257
 408 -440 l 257
 200 -440 l 257
 200 1560 l 257
EndSplineSet
EndChar

StartChar: zero
Encoding: 48 48 44
GlifName: zero
Width: 1960
Flags: HMW
LayerCount: 2
Fore
SplineSet
980 1390 m 0
 702 1390 630 1264 630 700 c 0
 630 136 682 0 980 0 c 0
 1278 0 1330 136 1330 700 c 0
 1330 1264 1278 1390 980 1390 c 0
980 -20 m 0
 614 -20 160 256 160 700 c 0
 160 1144 634 1420 980 1420 c 0
 1326 1420 1800 1144 1800 700 c 0
 1800 256 1346 -20 980 -20 c 0
EndSplineSet
EndChar

StartChar: one
Encoding: 49 49 45
GlifName: one
Width: 1496
VWidth: 2308
Flags: HMW
LayerCount: 2
Fore
SplineSet
200 1080 m 1
 972 1490 l 1
 972 175 l 2
 972 120 1000 104 1100 65 c 0
 1165 39 1215 29 1296 20 c 1
 1296 0 l 1
 246 0 l 1
 246 20 l 1
 327 29 377 39 442 65 c 0
 542 104 570 120 570 175 c 2
 570 1237 l 1
 200 1044 l 1
 200 1080 l 1
EndSplineSet
EndChar

StartChar: two
Encoding: 50 50 46
GlifName: two
Width: 1848
VWidth: 2308
Flags: HMW
LayerCount: 2
Fore
SplineSet
160 -20 m 1
 160 293 410 508 680 582 c 0
 1033 678 1168 766 1168 1030 c 0
 1168 1283 1032 1387 800 1387 c 0
 553 1387 327 1292 327 1224 c 0
 327 1215 330 1209 337 1209 c 0
 363 1209 390 1224 448 1224 c 0
 567 1224 675 1152 675 1022 c 0
 675 882 560 804 430 804 c 0
 300 804 177 890 177 1054 c 0
 177 1258 451 1420 810 1420 c 0
 1272 1420 1638 1261 1638 1001 c 0
 1638 710 1090 661 692 553 c 0
 463 491 260 336 205 106 c 1
 276 285 497 424 798 424 c 0
 1115 424 1230 240 1491 240 c 0
 1629 240 1678 312 1688 456 c 1
 1708 456 l 1
 1708 158 1591 -50 1221 -50 c 0
 758 -50 737 224 448 224 c 0
 326 224 210 160 200 -20 c 1
 160 -20 l 1
EndSplineSet
EndChar

StartChar: four
Encoding: 52 52 47
GlifName: four
Width: 1665
VWidth: 2308
Flags: HMW
LayerCount: 2
Fore
SplineSet
814 448 m 1
 814 1138 l 1
 286 708 l 1
 286 448 l 1
 814 448 l 1
1540 20 m 1
 1540 0 l 1
 490 0 l 1
 490 20 l 1
 571 29 621 39 686 65 c 0
 786 104 814 120 814 175 c 2
 814 418 l 1
 80 418 l 1
 80 576 l 1
 1216 1500 l 1
 1216 448 l 1
 1420 448 l 2
 1456 448 1477 467 1500 516 c 0
 1526 571 1538 591 1545 622 c 1
 1565 622 l 1
 1565 244 l 1
 1545 244 l 1
 1538 275 1526 295 1500 350 c 0
 1477 399 1456 418 1420 418 c 2
 1216 418 l 1
 1216 175 l 2
 1216 120 1244 104 1344 65 c 0
 1409 39 1459 29 1540 20 c 1
EndSplineSet
EndChar

StartChar: slash
Encoding: 47 47 48
GlifName: slash
Width: 1330
VWidth: 0
Flags: HMW
LayerCount: 2
Fore
SplineSet
1220 1400 m 257
 150 0 l 261
 110 0 l 257
 1180 1400 l 257
 1220 1400 l 257
EndSplineSet
EndChar

StartChar: backslash
Encoding: 92 92 49
GlifName: backslash
Width: 1330
VWidth: 0
Flags: HMW
LayerCount: 2
Fore
SplineSet
110 1400 m 257
 150 1400 l 257
 1220 0 l 257
 1180 0 l 261
 110 1400 l 257
EndSplineSet
EndChar

StartChar: eight
Encoding: 56 56 50
GlifName: eight
Width: 1863
Flags: HMW
LayerCount: 2
Fore
SplineSet
914 1420 m 0
 1256 1420 1584 1290 1584 1070 c 0
 1584 949 1482 867 1332 818 c 1
 1609 724 1693 598 1693 430 c 0
 1693 110 1362 -28 950 -28 c 0
 568 -28 170 82 170 352 c 0
 170 469 286 559 451 613 c 1
 252 695 175 796 175 990 c 0
 175 1270 482 1420 914 1420 c 0
1272 837 m 1
 1374 876 1444 946 1444 1070 c 0
 1444 1298 1234 1390 914 1390 c 0
 582 1390 445 1308 445 1210 c 0
 445 1108 549 983 1001 900 c 0
 1105 881 1195 860 1272 837 c 1
950 2 m 0
 1222 2 1465 72 1465 220 c 0
 1465 334 1315 380 885 485 c 0
 736 521 614 554 517 588 c 1
 401 542 320 466 320 352 c 0
 320 104 640 2 950 2 c 0
EndSplineSet
EndChar

StartChar: nine
Encoding: 57 57 51
GlifName: nine
Width: 1860
VWidth: 2308
Flags: HMW
LayerCount: 2
Fore
SplineSet
550 1000 m 0
 550 666 680 600 858 600 c 0
 1024 600 1260 664 1260 840 c 0
 1260 1284 1120 1395 882 1395 c 0
 684 1395 550 1294 550 1000 c 0
1270 753 m 1
 1209 629 1018 570 858 570 c 0
 566 570 150 630 150 970 c 0
 150 1290 510 1420 882 1420 c 0
 1284 1420 1720 1210 1720 730 c 0
 1720 284 1416 -20 812 -20 c 0
 443 -20 269 102 269 256 c 0
 269 400 382 466 512 466 c 0
 642 466 757 388 757 248 c 0
 757 83 589 99 589 56 c 0
 589 28 665 10 792 10 c 0
 1115 10 1264 170 1270 753 c 1
EndSplineSet
EndChar

StartChar: three
Encoding: 51 51 52
GlifName: three
Width: 1852
VWidth: 2308
Flags: HMW
LayerCount: 2
Back
SplineSet
1692 360 m 4
 1692 70 1164 -20 832 -20 c 4
 498 -20 100 93 100 328 c 4
 100 460 200 556 350 556 c 4
 461 556 597 477 597 345 c 4
 597 211 483 150 384 150 c 4
 316.318359375 150 306.017578125 172.7421875 288 172.7421875 c 4
 284 172.7421875 281 171.481445312 281 167 c 4
 281 97 519.6328125 15 752 15 c 4
 1020 15 1260 142 1260 360 c 4
 1260 588 1194 734 726 734 c 5
 726 754 l 5
 1308 754 1692 611 1692 360 c 4
726 744 m 5
 726 764 l 5
 944 764 1210 824 1210 1072 c 4
 1210 1310 980 1388 762 1388 c 4
 554.11328125 1388 325.931640625 1328.2734375 228.91015625 1215.88671875 c 5
 281.409179688 1249.80078125 350.71484375 1268 405 1268 c 4
 524 1268 618 1194 618 1074 c 4
 618 944 518 871 378 871 c 4
 237 871 149 963 149 1095 c 4
 149 1310 468 1418 842 1418 c 4
 1225 1418 1632 1303 1632 1082 c 4
 1632 852 1288 744 726 744 c 5
EndSplineSet
Fore
SplineSet
726 734 m 1
 726 744 726 754 726 764 c 1
 944 764 1210 824 1210 1072 c 0
 1210 1310 980 1383 762 1383 c 0
 515 1383 319 1300 319 1266 c 0
 319 1259 322 1255 329 1255 c 0
 345 1255 362 1270 410 1270 c 0
 529 1270 627 1198 627 1068 c 0
 627 928 522 860 392 860 c 0
 262 860 139 946 139 1090 c 0
 139 1324 473 1418 842 1418 c 0
 1315 1418 1642 1293 1642 1072 c 0
 1642 870 1368 769 920 748 c 1
 1392 719 1692 582 1692 360 c 0
 1692 70 1164 -20 832 -20 c 0
 448 -20 100 103 100 338 c 0
 100 470 200 556 350 556 c 0
 461 556 597 477 597 345 c 0
 597 211 483 150 384 150 c 0
 316 150 306 173 288 173 c 0
 284 173 281 171 281 167 c 0
 281 117 480 20 752 20 c 0
 1020 20 1260 142 1260 360 c 0
 1260 588 1194 734 726 734 c 1
EndSplineSet
EndChar

StartChar: five
Encoding: 53 53 53
GlifName: five
Width: 1772
VWidth: 2308
Flags: HMW
LayerCount: 2
Fore
SplineSet
315 674 m 1
 299 674 283 674 267 674 c 1
 267 1390 l 1
 1577 1390 l 1
 1400 1030 l 1
 297 1030 l 1
 297 694 l 1
 379 772 604 849 864 849 c 0
 1226 849 1652 690 1652 390 c 0
 1652 100 1164 -20 832 -20 c 0
 448 -20 100 103 100 338 c 0
 100 470 200 556 350 556 c 0
 461 556 597 477 597 345 c 0
 597 211 483 150 384 150 c 0
 316 150 306 173 288 173 c 0
 284 173 281 171 281 167 c 0
 281 107 480 15 752 15 c 0
 1020 15 1220 172 1220 390 c 0
 1220 659 1092 808 794 808 c 0
 589 808 404 750 315 674 c 1
EndSplineSet
EndChar

StartChar: six
Encoding: 54 54 54
GlifName: six
Width: 1860
VWidth: 2308
Flags: HMW
LayerCount: 2
Fore
SplineSet
1340 400 m 0
 1340 734 1210 800 1032 800 c 0
 866 800 630 736 630 560 c 0
 630 116 770 5 1008 5 c 0
 1206 5 1340 106 1340 400 c 0
620 647 m 1
 681 771 872 830 1032 830 c 0
 1324 830 1740 770 1740 430 c 0
 1740 110 1380 -20 1008 -20 c 0
 606 -20 170 190 170 670 c 0
 170 1116 474 1420 1078 1420 c 0
 1447 1420 1621 1298 1621 1144 c 0
 1621 1000 1508 934 1378 934 c 0
 1248 934 1133 1012 1133 1152 c 0
 1133 1317 1301 1301 1301 1344 c 0
 1301 1372 1225 1390 1098 1390 c 0
 775 1390 626 1230 620 647 c 1
EndSplineSet
EndChar

StartChar: seven
Encoding: 55 55 55
GlifName: seven
Width: 1635
VWidth: 2308
Flags: HMW
LayerCount: 2
Fore
SplineSet
561 292 m 0
 561 520 715 673 909 796 c 0
 1014 863 1477 1095 1554 1334 c 1
 1472 1181 1140 994 836 994 c 0
 613 994 532 1108 363 1108 c 0
 280 1108 211 1056 190 973 c 1
 190 804 l 1
 160 804 l 1
 160 1400 l 1
 190 1400 l 1
 190 1072 l 1
 263 1258 488 1418 773 1418 c 0
 1070 1418 1113 1254 1334 1254 c 0
 1462 1254 1533 1336 1553 1400 c 1
 1595 1400 l 1
 1595 1141 1218 961 1047 787 c 0
 943 681 895 562 895 444 c 0
 895 310 971 216 1171 246 c 1
 1171 112 1041 -20 863 -20 c 0
 683 -20 561 84 561 292 c 0
EndSplineSet
EndChar

StartChar: plus
Encoding: 43 43 56
GlifName: plus
Width: 1350
VWidth: 0
Flags: HMW
LayerCount: 2
Fore
SplineSet
180 420 m 257
 180 600 l 257
 1170 600 l 257
 1170 420 l 257
 180 420 l 257
570 1000 m 257
 770 1000 l 257
 770 20 l 257
 570 20 l 257
 570 1000 l 257
EndSplineSet
EndChar

StartChar: equal
Encoding: 61 61 57
GlifName: equal
Width: 1230
VWidth: 0
Flags: HMW
LayerCount: 2
Fore
SplineSet
130 230 m 257
 130 430 l 257
 1100 430 l 257
 1100 230 l 257
 130 230 l 257
130 580 m 257
 130 780 l 257
 1100 780 l 257
 1100 580 l 257
 130 580 l 257
EndSplineSet
EndChar

StartChar: percent
Encoding: 37 37 58
GlifName: percent
Width: 1922
VWidth: 0
Flags: HMW
LayerCount: 2
Fore
SplineSet
1516 1400 m 261
 446 0 l 261
 406 0 l 261
 1476 1400 l 261
 1516 1400 l 261
1030 340 m 260
 1030 528 1186 700 1466 700 c 260
 1726 700 1902 528 1902 340 c 260
 1902 152 1726 -20 1466 -20 c 260
 1186 -20 1030 152 1030 340 c 260
1362 340 m 260
 1362 168 1376 0 1466 0 c 260
 1556 0 1570 168 1570 340 c 260
 1570 512 1556 680 1466 680 c 260
 1376 680 1362 512 1362 340 c 260
20 1060 m 260
 20 1248 196 1420 456 1420 c 260
 716 1420 892 1248 892 1060 c 260
 892 872 716 700 456 700 c 260
 196 700 20 872 20 1060 c 260
352 1060 m 260
 352 888 366 720 456 720 c 260
 546 720 560 888 560 1060 c 260
 560 1232 546 1400 456 1400 c 260
 366 1400 352 1232 352 1060 c 260
EndSplineSet
EndChar

StartChar: ampersand
Encoding: 38 38 59
GlifName: ampersand
Width: 2222
Flags: HMW
LayerCount: 2
Fore
SplineSet
1341 409 m 1
 1568.43652344 696.915039062 l 2
 1592.2734375 727.090820312 1570.02050781 756.426757812 1524.29199219 788 c 0
 1482.45507812 816.88671875 1435.02441406 841 1351 850 c 1
 1351 870 l 1
 1985 870 l 1
 1985 850 l 1
 1938.97558594 846 1896.8359375 831.8984375 1814.70800781 805 c 0
 1754.57617188 785.305664062 1654.00097656 751.403320312 1596 680 c 2
 1345 371 l 1
 1341 409 l 1
698 816 m 1
 738 788 l 1
 628 774 490 678 490 504 c 0
 490 278 610 67 842 67 c 0
 1066 67 1196 272 1298 380 c 1
 1336 380 l 1
 1188 198 1048 -20 652 -20 c 0
 256 -20 100 144 100 370 c 0
 100 628 432 772 698 816 c 1
1080 848 m 9
 1050 878 l 1
 1198 929 1324 1036 1324 1174 c 0
 1324 1292 1186 1390 992 1390 c 0
 848 1390 796 1332 796 1260 c 0
 796 1160 860.027833893 1103.41271269 952 1020 c 2
 1500 523 l 2
 1603.93899938 428.734155674 1745 385 1840 385 c 0
 1933 385 2028 422 2092 502 c 1
 2106 470 2122 405 2122 330 c 0
 2122 97.953125 1892.49316406 -20 1721 -20 c 0
 1542 -20 1398 54 1278 167 c 1
 612 880 l 2
 554.380859375 941.685546875 495 996 495 1126 c 0
 495 1306 660 1420 992 1420 c 0
 1216 1420 1354 1314 1354 1174 c 0
 1354 1020 1252 934 1080 848 c 9
EndSplineSet
EndChar

StartChar: question
Encoding: 63 63 60
GlifName: question
Width: 1271
Flags: HMW
LayerCount: 2
Fore
SplineSet
593 1419 m 1
 573 1387 l 1
 326 1387 175 1286 175 1218 c 0
 175 1208 178 1205 184 1205 c 0
 223 1205 250 1238 337 1238 c 0
 432 1238 528 1183 528 1081 c 0
 528 981 443 903 303 903 c 0
 173 903 90 969 90 1103 c 0
 90 1257 234 1419 593 1419 c 1
344 220 m 0
 344 352 452 460 584 460 c 0
 716 460 824 352 824 220 c 0
 824 88 716 -20 584 -20 c 0
 452 -20 344 88 344 220 c 0
695 820 m 0
 771 864 809 964 809 1110 c 0
 809 1298 721 1387 573 1387 c 1
 593 1419 l 1
 925 1419 1191 1340 1191 1100 c 0
 1191 911 1019.88085938 884.150390625 836 832 c 0
 613.280273438 768.834960938 597 720.061597372 597 558 c 1
 565 558 l 1
 565 723.265625 578.902019458 752.957504194 695 820 c 0
EndSplineSet
EndChar

StartChar: parenleft
Encoding: 40 40 61
GlifName: parenleft
Width: 910
Flags: HMW
LayerCount: 2
Fore
SplineSet
890 -238 m 1
 880 -253 l 1
 394 -113 130 209 130 675 c 0
 130 1141 394 1423 880 1563 c 1
 890 1548 l 1
 662 1448 532 1059 532 675 c 4
 532 291 662 -138 890 -238 c 1
EndSplineSet
EndChar

StartChar: asterisk
Encoding: 42 42 63
GlifName: asterisk
Width: 1443
Flags: HMW
LayerCount: 2
Fore
SplineSet
715 849 m 0
 906 959 889 1138 1009 1230 c 0
 1020 1239 1029 1244 1039 1250 c 0
 1141 1309 1255 1280 1314 1178 c 0
 1373 1076 1341 963 1239 904 c 0
 1229 898 1220 893 1207 888 c 0
 1067 830 920 933 729 823 c 0
 538 713 555 534 435 442 c 0
 424 433 415 428 405 422 c 0
 303 363 189 392 130 494 c 0
 71 596 103 709 205 768 c 0
 215 774 224 779 237 784 c 0
 377 842 524 739 715 849 c 0
729 849 m 0
 920 739 1067 842 1207 784 c 0
 1220 779 1229 774 1239 768 c 0
 1341 709 1373 596 1314 494 c 0
 1255 392 1141 363 1039 422 c 0
 1029 428 1020 433 1009 442 c 0
 889 534 906 713 715 823 c 0
 524 933 377 830 237 888 c 0
 224 893 215 898 205 904 c 0
 103 963 71 1076 130 1178 c 0
 189 1280 303 1309 405 1250 c 0
 415 1244 424 1239 435 1230 c 0
 555 1138 538 959 729 849 c 0
737 836 m 0
 737 616 900 540 920 390 c 0
 922 376 922 366 922 354 c 0
 922 236 840 152 722 152 c 0
 604 152 522 236 522 354 c 0
 522 366 522 376 524 390 c 0
 544 540 707 616 707 836 c 0
 707 1056 544 1132 524 1282 c 0
 522 1296 522 1306 522 1318 c 0
 522 1436 604 1520 722 1520 c 0
 840 1520 922 1436 922 1318 c 0
 922 1306 922 1296 920 1282 c 0
 900 1132 737 1056 737 836 c 0
EndSplineSet
EndChar

StartChar: less
Encoding: 60 60 64
GlifName: less
Width: 1280
VWidth: 0
Flags: HMW
LayerCount: 2
Fore
SplineSet
434 524 m 257
 1150 210 l 257
 1150 10 l 257
 130 450 l 257
 130 580 l 257
 1150 1020 l 257
 1150 820 l 257
 434 524 l 257
EndSplineSet
EndChar

StartChar: greater
Encoding: 62 62 65
GlifName: greater
Width: 1280
VWidth: 0
Flags: HMW
LayerCount: 2
Fore
SplineSet
846 506 m 257
 130 820 l 257
 130 1020 l 257
 1150 580 l 257
 1150 450 l 257
 130 10 l 257
 130 210 l 257
 846 506 l 257
EndSplineSet
EndChar

StartChar: bracketleft
Encoding: 91 91 66
GlifName: bracketleft
Width: 768
Flags: HMW
LayerCount: 2
Fore
SplineSet
710 -250 m 1
 108 -250 l 1
 108 -220 l 1
 710 -220 l 1
 710 -250 l 1
710 1530 m 1
 108 1530 l 1
 108 1560 l 1
 710 1560 l 1
 710 1530 l 1
500 1560 m 5
 500 -250 l 5
 108 -250 l 1
 108 1560 l 1
 500 1560 l 5
EndSplineSet
EndChar

StartChar: asciicircum
Encoding: 94 94 68
GlifName: asciicircum
Width: 1140
VWidth: 0
Flags: HMW
LayerCount: 2
Fore
SplineSet
570 1242 m 257
 120 920 l 257
 90 920 l 257
 460 1420 l 257
 680 1420 l 261
 1050 920 l 257
 1020 920 l 257
 570 1242 l 257
EndSplineSet
EndChar

StartChar: underscore
Encoding: 95 95 69
GlifName: underscore
Width: 1000
VWidth: 0
Flags: HMW
LayerCount: 2
Fore
SplineSet
0 -306 m 261
 0 -156 l 257
 1000 -156 l 257
 1000 -306 l 261
 0 -306 l 261
EndSplineSet
EndChar

StartChar: grave
Encoding: 96 96 70
GlifName: grave
Width: 823
Flags: HMW
LayerCount: 2
Fore
SplineSet
292 1360 m 2
 193.18359375 1340.28222656 100 1422 100 1520 c 4
 100 1618 212.083984375 1699.75878906 312 1656 c 2
 723 1476 l 1
 723 1446 l 1
 292 1360 l 2
EndSplineSet
EndChar

StartChar: braceleft
Encoding: 123 123 71
GlifName: braceleft
Width: 776
VWidth: 2308
Flags: HMW
LayerCount: 2
Fore
SplineSet
716 1560 m 1
 716 1530 l 1
 592 1530 500 1440 500 1314 c 4
 500 1202 568 1107 568 947 c 4
 568 781 488 690 100 650 c 1
 100 665 l 1
 160 685 222 735 222 817 c 0
 222 943 100 1008 100 1242 c 0
 100 1460 244 1560 716 1560 c 1
716 -250 m 1
 244 -250 100 -148 100 70 c 0
 100 304 222 371 222 497 c 0
 222 579 160 625 100 645 c 1
 100 660 l 1
 488 620 568 531 568 365 c 4
 568 205 500 110 500 -2 c 4
 500 -128 592 -220 716 -220 c 1
 716 -250 l 1
EndSplineSet
EndChar

StartChar: asciitilde
Encoding: 126 126 73
GlifName: asciitilde
Width: 1374
VWidth: 2308
Flags: HMW
LayerCount: 2
Fore
SplineSet
410 814 m 4
 314 814 230 770 230 686 c 5
 200 686 l 5
 200 916 300 1080 498 1080 c 4
 718 1080 756 892 948 892 c 4
 1064 892 1146 936 1146 1020 c 5
 1176 1020 l 5
 1176 790 1076 626 878 626 c 4
 624 626 616 814 410 814 c 4
EndSplineSet
EndChar

StartChar: hyphentwo
Encoding: 8208 8208 76
GlifName: uni2010
Width: 640
Flags: HW
LayerCount: 2
Fore
SplineSet
40 450 m 257
 40 650 l 257
 600 650 l 257
 600 450 l 257
 40 450 l 257
EndSplineSet
EndChar

StartChar: hyphennobreak
Encoding: 8209 8209 77
GlifName: uni2011
Width: 640
Flags: HW
LayerCount: 2
Fore
SplineSet
40 450 m 257
 40 650 l 257
 600 650 l 257
 600 450 l 257
 40 450 l 257
EndSplineSet
EndChar

StartChar: figuredash
Encoding: 8210 8210 78
GlifName: figuredash
Width: 892
Flags: HW
LayerCount: 2
Fore
SplineSet
40 450 m 257
 40 650 l 257
 852 650 l 257
 852 450 l 257
 40 450 l 257
EndSplineSet
EndChar

StartChar: endash
Encoding: 8211 8211 79
GlifName: endash
Width: 1062
Flags: HW
LayerCount: 2
Fore
SplineSet
40 470 m 257
 40 670 l 257
 1022 670 l 257
 1022 470 l 257
 40 470 l 257
EndSplineSet
EndChar

StartChar: emdash
Encoding: 8212 8212 80
GlifName: emdash
Width: 1630
Flags: HW
LayerCount: 2
Fore
SplineSet
40 470 m 257
 40 670 l 257
 1590 670 l 257
 1590 470 l 257
 40 470 l 257
EndSplineSet
EndChar

StartChar: horizontalbar
Encoding: 8213 8213 81
GlifName: uni2015
Width: 1802
Flags: HW
LayerCount: 2
Fore
SplineSet
40 700 m 5
 72 700 l 5
 72 440 l 5
 40 440 l 5
 40 700 l 5
1732 700 m 5
 1762 700 l 5
 1762 440 l 5
 1732 440 l 5
 1732 700 l 5
40 470 m 261
 40 670 l 261
 1762 670 l 261
 1762 470 l 261
 40 470 l 261
EndSplineSet
EndChar

StartChar: perthousand
Encoding: 8240 8240 88
GlifName: perthousand
Width: 2892
VWidth: 0
Flags: HW
LayerCount: 2
Fore
SplineSet
2000 340 m 260
 2000 528 2156 700 2436 700 c 260
 2696 700 2872 528 2872 340 c 260
 2872 152 2696 -20 2436 -20 c 260
 2156 -20 2000 152 2000 340 c 260
2332 340 m 260
 2332 168 2346 0 2436 0 c 260
 2526 0 2540 168 2540 340 c 260
 2540 512 2526 680 2436 680 c 260
 2346 680 2332 512 2332 340 c 260
1516 1400 m 261
 446 0 l 261
 406 0 l 261
 1476 1400 l 261
 1516 1400 l 261
1030 340 m 260
 1030 528 1186 700 1466 700 c 260
 1726 700 1902 528 1902 340 c 260
 1902 152 1726 -20 1466 -20 c 260
 1186 -20 1030 152 1030 340 c 260
1362 340 m 260
 1362 168 1376 0 1466 0 c 260
 1556 0 1570 168 1570 340 c 260
 1570 512 1556 680 1466 680 c 260
 1376 680 1362 512 1362 340 c 260
20 1060 m 260
 20 1248 196 1420 456 1420 c 260
 716 1420 892 1248 892 1060 c 260
 892 872 716 700 456 700 c 260
 196 700 20 872 20 1060 c 260
352 1060 m 260
 352 888 366 720 456 720 c 260
 546 720 560 888 560 1060 c 260
 560 1232 546 1400 456 1400 c 260
 366 1400 352 1232 352 1060 c 260
EndSplineSet
EndChar

StartChar: pertenthousand
Encoding: 8241 8241 89
GlifName: uni2031
Width: 3862
VWidth: 0
Flags: HW
LayerCount: 2
Fore
SplineSet
2970 340 m 260
 2970 528 3126 700 3406 700 c 260
 3666 700 3842 528 3842 340 c 260
 3842 152 3666 -20 3406 -20 c 260
 3126 -20 2970 152 2970 340 c 260
3302 340 m 260
 3302 168 3316 0 3406 0 c 260
 3496 0 3510 168 3510 340 c 260
 3510 512 3496 680 3406 680 c 260
 3316 680 3302 512 3302 340 c 260
2000 340 m 256
 2000 528 2156 700 2436 700 c 256
 2696 700 2872 528 2872 340 c 256
 2872 152 2696 -20 2436 -20 c 256
 2156 -20 2000 152 2000 340 c 256
2332 340 m 256
 2332 168 2346 0 2436 0 c 256
 2526 0 2540 168 2540 340 c 256
 2540 512 2526 680 2436 680 c 256
 2346 680 2332 512 2332 340 c 256
1516 1400 m 257
 446 0 l 257
 406 0 l 257
 1476 1400 l 257
 1516 1400 l 257
1030 340 m 256
 1030 528 1186 700 1466 700 c 256
 1726 700 1902 528 1902 340 c 256
 1902 152 1726 -20 1466 -20 c 256
 1186 -20 1030 152 1030 340 c 256
1362 340 m 256
 1362 168 1376 0 1466 0 c 256
 1556 0 1570 168 1570 340 c 256
 1570 512 1556 680 1466 680 c 256
 1376 680 1362 512 1362 340 c 256
20 1060 m 256
 20 1248 196 1420 456 1420 c 256
 716 1420 892 1248 892 1060 c 256
 892 872 716 700 456 700 c 256
 196 700 20 872 20 1060 c 256
352 1060 m 256
 352 888 366 720 456 720 c 256
 546 720 560 888 560 1060 c 256
 560 1232 546 1400 456 1400 c 256
 366 1400 352 1232 352 1060 c 256
EndSplineSet
EndChar

StartChar: cent
Encoding: 162 162 91
GlifName: cent
Width: 2152
Flags: HW
LayerCount: 2
Fore
SplineSet
1082 1500 m 5
 1112 1500 l 5
 1112 -190 l 5
 1082 -190 l 5
 1082 1500 l 5
1151 1395 m 1
 1140 1425 l 1
 1499 1425 1773 1263 1773 1059 c 0
 1773 895 1650 809 1520 809 c 0
 1390 809 1275 887 1275 1027 c 0
 1275 1157 1383 1229 1502 1229 c 0
 1559.97460938 1229 1587.37109375 1214.48730469 1613 1214.48730469 c 0
 1620 1214.48730469 1623 1220 1623 1229 c 0
 1623 1297.46484375 1397.98046875 1395 1151 1395 c 1
1151 1395 m 1
 883 1395 630 1134 630 700 c 0
 630 266 843 21 1180 21 c 0
 1474 21 1686 269 1742 412 c 1
 1772 412 l 1
 1712 246 1486 -20 1120 -20 c 0
 584 -20 160 256 160 700 c 0
 160 1144 624 1425 1140 1425 c 1
 1151 1395 l 1
EndSplineSet
EndChar

StartChar: yen
Encoding: 165 165 92
GlifName: yen
Width: 2394
Flags: HW
LayerCount: 2
Fore
SplineSet
1511 380 m 257
 1511 410 l 257
 2221 410 l 257
 2221 380 l 257
 1511 380 l 257
1511 580 m 257
 1511 610 l 257
 2221 610 l 257
 2221 580 l 257
 1511 580 l 257
221 380 m 261
 221 410 l 261
 1081 410 l 261
 1081 380 l 261
 221 380 l 261
221 580 m 261
 221 610 l 261
 1081 610 l 261
 1081 580 l 261
 221 580 l 261
1835 20 m 1
 1835 0 l 1
 1511 0 l 1
 1511 175 l 17
 1511 120 1539 104 1639 65 c 0
 1704 39 1754 29 1835 20 c 1
757 20 m 1
 838 29 888 39 953 65 c 0
 1053 104 1081 120 1081 175 c 9
 1081 0 l 1
 757 0 l 1
 757 20 l 1
1081 490 m 1
 1511 610 l 1
 1511 0 l 1
 1081 0 l 1
 1081 490 l 1
1490 628 m 1
 1966 1187 l 2
 1982 1206 1923 1259 1878 1306 c 0
 1819 1368 1739 1376 1675 1380 c 1
 1675 1400 l 1
 2139 1400 l 1
 2189 1400 l 1
 2399 1400 l 1
 2399 1380 l 1
 2363 1376 2279 1337 2199 1295 c 0
 2132 1259 2035 1223 1990 1170 c 2
 1511 610 l 1
 1490 628 l 1
1511 610 m 1
 1081 490 l 1
 378 1241 l 2
 343 1278 289 1309 230 1337 c 0
 157 1372 124 1376 50 1381 c 1
 50 1401 l 1
 260 1401 l 1
 770 1401 l 1
 1134 1401 l 1
 1134 1381 l 1
 1050 1379 988 1350 948 1322 c 0
 903 1290 877 1254 903 1228 c 2
 1511 610 l 1
EndSplineSet
EndChar

StartChar: sterling
Encoding: 163 163 93
GlifName: sterling
Width: 1848
VWidth: 2308
Flags: HW
LayerCount: 2
Fore
SplineSet
50 705 m 261
 50 735 l 261
 1080 735 l 261
 1080 705 l 261
 50 705 l 261
186 1001 m 1
 636 1090 l 1
 636 922 740 871 740 721 c 0
 740 402 155 441 190 0 c 1
 170 0 l 1
 132 277 328 353 328 541 c 0
 328 770 186 771 186 1001 c 1
636 1090 m 1
 186 1001 l 1
 186 1261 552 1420 1014 1420 c 0
 1373 1420 1647 1258 1647 1054 c 0
 1647 890 1524 804 1394 804 c 0
 1264 804 1149 882 1149 1022 c 0
 1149 1152 1257 1224 1376 1224 c 0
 1433.97460938 1224 1461.37109375 1209.48730469 1487 1209.48730469 c 0
 1494 1209.48730469 1497 1215 1497 1224 c 0
 1497 1292.46484375 1270.98046875 1387 1024 1387 c 0
 792 1387 636 1303 636 1090 c 1
180 0 m 257
 180 234.627929688 448.868164062 424 798 424 c 256
 1114.89355469 424 1230.23925781 240 1491 240 c 256
 1629 240 1678 312 1688 456 c 257
 1708 456 l 257
 1708 158.213867188 1590.83984375 -50 1221 -50 c 256
 758.452148438 -50 736.58203125 224 448 224 c 256
 356 224 210 180 200 0 c 257
 180 0 l 257
EndSplineSet
EndChar

StartChar: brokenbar
Encoding: 166 166 94
GlifName: brokenbar
Width: 608
VWidth: 0
Flags: HW
LayerCount: 2
Fore
SplineSet
200 1560 m 257
 408 1560 l 257
 408 760 l 257
 200 760 l 257
 200 1560 l 257
200 360 m 257
 408 360 l 257
 408 -440 l 257
 200 -440 l 257
 200 360 l 257
EndSplineSet
EndChar

StartChar: copyright
Encoding: 169 169 95
GlifName: copyright
Width: 1860
Flags: HW
LayerCount: 2
Fore
SplineSet
100 750 m 0
 100 1176 464 1520 930 1520 c 0
 1396 1520 1760 1176 1760 750 c 0
 1760 324 1396 -20 930 -20 c 0
 464 -20 100 324 100 750 c 0
174 750 m 0
 174 362 502 52 930 52 c 0
 1358 52 1686 362 1686 750 c 0
 1686 1138 1358 1448 930 1448 c 0
 502 1448 174 1138 174 750 c 0
EndSplineSet
EndChar

StartChar: registered
Encoding: 174 174 96
GlifName: registered
Width: 1860
Flags: HW
LayerCount: 2
Fore
SplineSet
100 750 m 0
 100 1176 464 1520 930 1520 c 0
 1396 1520 1760 1176 1760 750 c 0
 1760 324 1396 -20 930 -20 c 0
 464 -20 100 324 100 750 c 0
174 750 m 0
 174 362 502 52 930 52 c 0
 1358 52 1686 362 1686 750 c 0
 1686 1138 1358 1448 930 1448 c 0
 502 1448 174 1138 174 750 c 0
EndSplineSet
EndChar

StartChar: macron
Encoding: 175 175 98
GlifName: macron
Width: 738
Flags: HW
LayerCount: 2
Fore
SplineSet
40 770 m 257
 40 970 l 257
 698 970 l 257
 698 770 l 257
 40 770 l 257
EndSplineSet
EndChar

StartChar: plusminus
Encoding: 177 177 100
GlifName: plusminus
Width: 1072
Flags: HW
LayerCount: 2
Fore
SplineSet
40 60 m 257
 40 260 l 257
 1030 260 l 261
 1030 60 l 261
 40 60 l 257
EndSplineSet
Refer: 56 43 N 1 0 0 1 -140 420 2
EndChar

StartChar: degree
Encoding: 176 176 101
GlifName: degree
Width: 638
Flags: HW
LayerCount: 2
Fore
SplineSet
80 1360 m 0
 80 1492 188 1600 320 1600 c 0
 452 1600 560 1492 560 1360 c 0
 560 1228 452 1120 320 1120 c 0
 188 1120 80 1228 80 1360 c 0
188 1360 m 0
 188 1286 246 1230 320 1230 c 4
 394 1230 450 1286 450 1360 c 0
 450 1434 394 1490 320 1490 c 4
 246 1490 188 1434 188 1360 c 0
EndSplineSet
EndChar

StartChar: circumflex
Encoding: 710 710 102
GlifName: circumflex
Width: 928
Flags: HW
AnchorPoint: "top" 464 1400 mark 0
LayerCount: 2
Fore
SplineSet
464 1705 m 5
 64 1554 l 5
 50 1575 l 5
 360 1895 l 5
 570 1895 l 5
 880 1575 l 5
 870 1565 l 5
 464 1705 l 5
EndSplineSet
EndChar

StartChar: caron
Encoding: 711 711 103
GlifName: caron
Width: 928
Flags: HW
AnchorPoint: "top" 464 1400 mark 0
LayerCount: 2
Fore
SplineSet
466 1760 m 5
 870 1900 l 5
 880 1890 l 5
 570 1570 l 5
 360 1570 l 5
 50 1890 l 5
 60 1900 l 5
 466 1760 l 5
EndSplineSet
EndChar

StartChar: breve
Encoding: 728 728 104
GlifName: breve
Width: 638
VWidth: 2308
Flags: HW
AnchorPoint: "top" 319 1400 mark 0
LayerCount: 2
Fore
SplineSet
39 1958 m 1
 49 1870 161 1850 319 1850 c 0
 477 1850 589 1870 599 1958 c 1
 629 1958 l 1
 629 1696 529 1580 319 1580 c 0
 109 1580 9 1696 9 1958 c 1
 39 1958 l 1
EndSplineSet
EndChar

StartChar: ring
Encoding: 730 730 106
GlifName: ring
Width: 638
VWidth: 0
Flags: HW
AnchorPoint: "top" 320 1400 mark 0
LayerCount: 2
Fore
SplineSet
140 1700 m 4
 140 1802 218 1880 320 1880 c 4
 422 1880 500 1802 500 1700 c 4
 500 1598 422 1520 320 1520 c 4
 218 1520 140 1598 140 1700 c 4
220 1700 m 4
 220 1632 264 1594 320 1594 c 4
 376 1594 422 1632 422 1700 c 4
 422 1768 376 1808 320 1808 c 4
 264 1808 220 1768 220 1700 c 4
EndSplineSet
EndChar

StartChar: ogonek
Encoding: 731 731 107
GlifName: ogonek
Width: 1098
Flags: HW
AnchorPoint: "cedilla" 663 37 mark 0
LayerCount: 2
Fore
SplineSet
826 -291 m 1
 798 -347 758 -437 556 -437 c 0
 394 -437 280 -385 280 -265 c 0
 280 -105 506 41 688 91 c 1
 706 39 l 1
 686 25 626 -49 626 -175 c 4
 626 -283 654 -331 712 -331 c 0
 764 -331 788 -313 806 -281 c 1
 826 -291 l 1
EndSplineSet
EndChar

StartChar: tilde
Encoding: 732 732 108
GlifName: tilde
Width: 1016
VWidth: 0
Flags: HW
AnchorPoint: "top" 456 1400 mark 0
LayerCount: 2
Fore
SplineSet
230 1752 m 4
 134 1752 50 1688 50 1604 c 5
 20 1604 l 5
 20 1834 120 1978 318 1978 c 4
 538 1978 566 1790 758 1790 c 4
 874 1790 966 1854 966 1938 c 5
 996 1938 l 5
 996 1708 896 1564 698 1564 c 4
 444 1564 436 1752 230 1752 c 4
EndSplineSet
EndChar

StartChar: hungarumlaut
Encoding: 733 733 109
GlifName: hungarumlaut
Width: 0
Flags: HW
AnchorPoint: "top" -542 1402 mark 0
LayerCount: 2
Fore
SplineSet
-636 1618 m 2
 -908 1560 l 1
 -918 1570 l 1
 -791 1856 l 6
 -723.466689069 2008.08288918 -540 1979 -486 1901 c 0
 -420 1805 -478 1652 -636 1618 c 2
-126 1618 m 2
 -398 1560 l 1
 -408 1570 l 1
 -281 1856 l 2
 -213.656170723 2007.65618247 -30 1979 24 1901 c 0
 90 1805 32 1652 -126 1618 c 2
EndSplineSet
EndChar

StartChar: macroncmb
Encoding: 772 772 114
GlifName: uni0304
Width: 0
Flags: HW
AnchorPoint: "top" -418 1400 mark 0
LayerCount: 2
Fore
SplineSet
-658 1600 m 257
 -658 1760 l 257
 -178 1760 l 257
 -178 1600 l 257
 -658 1600 l 257
EndSplineSet
EndChar

StartChar: dotaccentcmb
Encoding: 775 775 118
GlifName: uni0307
Width: 0
Flags: HW
LayerCount: 2
Fore
SplineSet
-594 1158 m 0
 -594 1290 -486 1398 -354 1398 c 0
 -222 1398 -114 1290 -114 1158 c 0
 -114 1026 -222 918 -354 918 c 0
 -486 918 -594 1026 -594 1158 c 0
EndSplineSet
EndChar

StartChar: cedilla
Encoding: 184 184 128
GlifName: cedilla
Width: 1098
Flags: W
HStem: -461 23<359 453.477> -228 80<443 480.818>
VStem: 515 302<-396.14 -257.656>
AnchorPoint: "cedilla" 543 0 mark 0
LayerCount: 2
Fore
SplineSet
515 -350 m 0
 515 -246 423 -228 353 -228 c 1
 533 12 l 1
 565 12 l 1
 443 -148 l 1
 647 -154 817 -198 817 -310 c 0
 817 -410 719 -461 359 -461 c 1
 359 -438 l 1
 477 -438 515 -418 515 -350 c 0
EndSplineSet
EndChar

StartChar: logicalnot
Encoding: 172 172 129
GlifName: logicalnot
Width: 1070
Flags: HW
LayerCount: 2
Fore
SplineSet
752 1030 m 1
 120 1030 l 1
 120 1230 l 1
 952 1230 l 1
 952 746 l 1
 752 746 l 1
 752 1030 l 1
EndSplineSet
EndChar

StartChar: Eth
Encoding: 208 208 148
GlifName: E_th
Width: 2244
Flags: HW
LayerCount: 2
Fore
SplineSet
156 734 m 261
 156 764 l 257
 1096 764 l 257
 1096 734 l 261
 156 734 l 261
EndSplineSet
EndChar

StartChar: Oslash
Encoding: 216 216 151
GlifName: O_slash
Width: 2320
VWidth: 0
Flags: HW
LayerCount: 2
Fore
SplineSet
1960 1500 m 257
 410 -100 l 261
 370 -100 l 257
 1920 1500 l 257
 1960 1500 l 257
EndSplineSet
EndChar

StartChar: AE
Encoding: 198 198 157
GlifName: A_E_
Width: 2934
Flags: HW
LayerCount: 2
Fore
SplineSet
990 1380 m 1
 990 1400 l 1
 1314 1400 l 1
 1314 1225 l 17
 1314 1280 1286.71191406 1295.64453125 1186.29199219 1335 c 0
 1121.02636719 1360.578125 1071.02441406 1371 990 1380 c 1
530 465 m 1
 1328 465 l 1
 1328 435 l 1
 520 435 l 1
 530 465 l 1
50 20 m 1
 90 20 l 2
 145.734375 20 207.866210938 110.033203125 283.046875 196 c 0
 354.01171875 277.145507812 398.772460938 323.619140625 473.021484375 403.79296875 c 2
 1303 1300 l 1
 1341 1300 l 1
 505.166992188 396.81640625 l 2
 460.202148438 342.848632812 472.893554688 260.711914062 522.708007812 188 c 0
 578.150390625 107.073242188 615.543945312 56.7666015625 650.7421875 34 c 0
 660.79296875 27.4990234375 677 20 706 20 c 2
 750 20 l 1
 750 0 l 1
 50 0 l 1
 50 20 l 1
990 20 m 1
 1071.02441406 29 1121.02636719 39.421875 1186.29199219 65 c 0
 1286.71191406 104.35546875 1314 120 1314 175 c 9
 1314 0 l 1
 990 0 l 1
 990 20 l 1
2320 446 m 1
 2279.89550781 513.232421875 2228.21191406 564.709960938 2180 614.264648438 c 0
 2132.12207031 663.4765625 2107.80566406 711 2022 711 c 2
 1662 711 l 1
 1662 741 l 1
 2022 741 l 2
 2094.92480469 741 2135.95605469 819.194335938 2188 876.4296875 c 0
 2228.58789062 921.067382812 2293.70996094 1007.28515625 2320 1066 c 1
 2340 1066 l 1
 2340 446 l 1
 2320 446 l 1
1716 1400 m 1
 2814 1400 l 1
 2814 920 l 1
 2794 920 l 1
 2734.66601562 1004.62304688 2660.19921875 1097.50390625 2568 1189.49609375 c 0
 2475.19824219 1282.08984375 2405.84082031 1370 2262 1370 c 2
 1716 1370 l 1
 1716 1400 l 1
1314 1400 m 1
 1716 1400 l 1
 1716 0 l 1
 1314 0 l 1
 1314 1400 l 1
2794 530 m 1
 2814 530 l 1
 2814 0 l 1
 1716 0 l 1
 1716 30 l 1
 2242 30 l 2
 2427.8671875 30 2507.34082031 147.495117188 2613 268.28125 c 0
 2700.40136719 368.1953125 2765.42871094 459.045898438 2794 530 c 1
EndSplineSet
EndChar

StartChar: paragraph
Encoding: 182 182 158
GlifName: paragraph
Width: 1852
Flags: HW
LayerCount: 2
Fore
SplineSet
1542 1390 m 1
 1572 1390 l 1
 1572 0 l 1
 1542 0 l 1
 1542 1390 l 1
1322 1390 m 1
 1352 1390 l 1
 1352 0 l 1
 1322 0 l 1
 1322 1390 l 1
720 0 m 2
 308 0 80 340 80 700 c 0
 80 1060 308 1400 720 1400 c 2
 1772 1400 l 1
 1772 1370 l 1
 1200 1370 l 6
 998 1370 900 1108 900 700 c 4
 900 292 998 30 1200 30 c 6
 1772 30 l 1
 1772 0 l 1
 720 0 l 2
EndSplineSet
EndChar

StartChar: Eszett
Encoding: 7838 7838 160
GlifName: uni1E_9E_
Width: 2858
VWidth: 2308
Flags: HW
LayerCount: 2
Fore
SplineSet
80 20 m 1
 161 29 211 39 276 65 c 0
 375.659179688 104.86328125 404 120 404 175 c 9
 404 0 l 1
 80 0 l 1
 80 20 l 1
1130 20 m 1
 1130 0 l 1
 806 0 l 1
 806 175 l 17
 806 120 833.288085938 104.35546875 933.708007812 65 c 0
 998.973632812 39.421875 1048.97558594 29 1130 20 c 1
2698 360 m 0
 2698 70 2190 -20 1888 -20 c 0
 1534 -20 1206 103 1206 338 c 0
 1206 470 1306 556 1456 556 c 0
 1567 556 1703 477 1703 345 c 0
 1703 211 1589 150 1490 150 c 0
 1422.31835938 150 1412.01757812 172.7421875 1394 172.7421875 c 0
 1390 172.7421875 1387 171.481445312 1387 167 c 0
 1387 117 1565.6328125 18 1808 18 c 0
 2046 18 2266 142 2266 360 c 0
 2266 588 2200 734 1732 734 c 1
 1732 754 l 1
 2314 754 2698 611 2698 360 c 0
2144 706 m 1
 2062 738 1902 726 1732 754 c 1
 2185 1305 l 1
 2099 1343 1830 1391 1582 1391 c 0
 1154 1391 806 1324 806 920 c 2
 806 0 l 1
 404 0 l 1
 404 892 l 2
 404 1336 1036 1421 1582 1421 c 0
 1950 1421 2368 1312 2548 1196 c 1
 2144 706 l 1
EndSplineSet
EndChar

StartChar: Thorn
Encoding: 222 222 162
GlifName: T_horn
Width: 2134
Flags: HW
LayerCount: 2
Fore
SplineSet
1130 1380 m 1
 1049 1371 999 1361 934 1335 c 0
 834 1296 806 1280 806 1225 c 9
 806 1400 l 1
 1130 1400 l 1
 1130 1380 l 1
1130 20 m 1
 1130 0 l 1
 806 0 l 1
 806 175 l 17
 806 120 834 104 934 65 c 0
 999 39 1049 29 1130 20 c 1
80 20 m 1
 161 29 211 39 276 65 c 0
 376 104 404 120 404 175 c 9
 404 0 l 1
 80 0 l 1
 80 20 l 1
80 1380 m 1
 80 1400 l 1
 404 1400 l 1
 404 1225 l 17
 404 1280 376 1296 276 1335 c 0
 211 1361 161 1371 80 1380 c 1
404 1400 m 1
 806 1400 l 1
 806 0 l 1
 404 0 l 1
 404 1400 l 1
1414 328 m 6
 694 328 l 5
 694 358 l 5
 1354 358 l 6
 1506 358 1614 486 1614 714 c 4
 1614 942 1506 1070 1354 1070 c 6
 702 1070 l 5
 702 1100 l 5
 1414 1100 l 6
 1776 1100 2054 974 2054 714 c 4
 2054 454 1776 328 1414 328 c 6
EndSplineSet
EndChar

StartChar: divide
Encoding: 247 247 192
GlifName: divide
Width: 1262
Flags: HW
LayerCount: 2
Fore
SplineSet
439 240 m 0
 439 346 525 432 631 432 c 0
 737 432 823 346 823 240 c 0
 823 134 737 48 631 48 c 0
 525 48 439 134 439 240 c 0
439 1120 m 0
 439 1226 525 1312 631 1312 c 0
 737 1312 823 1226 823 1120 c 0
 823 1014 737 928 631 928 c 0
 525 928 439 1014 439 1120 c 0
40 580 m 257
 40 780 l 257
 1222 780 l 257
 1222 580 l 257
 40 580 l 257
EndSplineSet
EndChar

StartChar: Hbar
Encoding: 294 294 239
GlifName: H_bar
Width: 2415
VWidth: 0
Flags: HW
LayerCount: 2
Fore
SplineSet
104 1024 m 261
 104 1054 l 261
 2311 1054 l 261
 2311 1024 l 261
 104 1024 l 261
EndSplineSet
EndChar

StartChar: Lslash
Encoding: 321 321 262
GlifName: L_slash
Width: 1984
VWidth: 0
Flags: HW
LayerCount: 2
Fore
SplineSet
82 603 m 257
 82 638 l 257
 1242 1060 l 261
 1242 1025 l 261
 82 603 l 257
EndSplineSet
EndChar

StartChar: OE
Encoding: 338 338 292
GlifName: O_E_
Width: 3108
Flags: HW
LayerCount: 2
Fore
SplineSet
1080 1400 m 6
 1498 1400 l 5
 1498 1370 l 5
 1080 1370 l 6
 802.870117188 1370 640 1224 640 700 c 4
 640 176 822 30 1080 30 c 6
 1498 30 l 5
 1498 0 l 5
 1080 0 l 6
 574 0 160 284 160 700 c 4
 160 1116 595.521484375 1400 1080 1400 c 6
2494 446 m 1
 2453.89550781 513.232421875 2402.21191406 564.709960938 2354 614.264648438 c 0
 2306.12207031 663.4765625 2281.80566406 711 2196 711 c 2
 1836 711 l 1
 1836 741 l 1
 2196 741 l 2
 2268.92480469 741 2309.95605469 819.194335938 2362 876.4296875 c 0
 2402.58789062 921.067382812 2467.70996094 1007.28515625 2494 1066 c 1
 2514 1066 l 1
 2514 446 l 1
 2494 446 l 1
1890 1400 m 1
 2988 1400 l 1
 2988 920 l 1
 2968 920 l 1
 2908.66601562 1004.62304688 2834.19921875 1097.50390625 2742 1189.49609375 c 0
 2649.19824219 1282.08984375 2579.84082031 1370 2436 1370 c 2
 1890 1370 l 1
 1890 1400 l 1
1488 1400 m 1
 1890 1400 l 1
 1890 0 l 1
 1488 0 l 1
 1488 1400 l 1
2968 530 m 1
 2988 530 l 1
 2988 0 l 1
 1890 0 l 1
 1890 30 l 1
 2416 30 l 2
 2601.8671875 30 2681.34082031 147.495117188 2787 268.28125 c 0
 2874.40136719 368.1953125 2939.42871094 459.045898438 2968 530 c 1
EndSplineSet
EndChar

StartChar: Tbar
Encoding: 358 358 303
GlifName: T_bar
Width: 1870
VWidth: 0
Flags: HW
LayerCount: 2
Fore
SplineSet
492 734 m 257
 492 764 l 257
 1392 764 l 261
 1392 734 l 261
 492 734 l 257
EndSplineSet
Refer: 1 84 N 1 0 0 1 0 0 2
EndChar

StartChar: guillemotleft
Encoding: 171 171 325
GlifName: guillemotleft
Width: 1507
Flags: HW
LayerCount: 2
Fore
SplineSet
1102 776 m 1
 1405 305 l 1
 1392 290 l 1
 608 765 l 1
 608 785 l 1
 1392 1260 l 1
 1407 1245 l 1
 1102 776 l 1
502 776 m 1
 845 305 l 1
 830 290 l 1
 50 765 l 1
 50 785 l 1
 830 1260 l 1
 845 1245 l 1
 502 776 l 1
EndSplineSet
EndChar

StartChar: dagger
Encoding: 8224 8224 327
GlifName: dagger
Width: 1888
Flags: HW
LayerCount: 2
Fore
SplineSet
929 -500 m 1
 929 100 768 350 668 500 c 1
 1220 500 l 1
 1120 350 959 100 959 -500 c 1
 929 -500 l 1
668 500 m 1
 768 600 929 707 929 877 c 1
 959 877 l 1
 959 707 1120 600 1220 500 c 1
 668 500 l 1
1450 651 m 0
 1330 666 1084 854 944 854 c 1
 944 884 l 1
 1084 884 1330 1072 1450 1087 c 0
 1464.03320312 1088.75390625 1474 1089 1486 1089 c 0
 1604 1089 1688 987 1688 869 c 0
 1688 751 1604 649 1486 649 c 0
 1474 649 1464.03320312 649.24609375 1450 651 c 0
1162 1282 m 0
 1147 1162 959 1016 959 876 c 1
 929 876 l 1
 929 1016 741 1162 726 1282 c 0
 724.24609375 1296.03320312 724 1306 724 1318 c 0
 724 1436 826 1520 944 1520 c 0
 1062 1520 1164 1436 1164 1318 c 0
 1164 1306 1163.75390625 1296.03320312 1162 1282 c 0
438 1087 m 0
 558 1072 804 884 944 884 c 1
 944 854 l 1
 804 854 558 666 438 651 c 0
 423.966796875 649.24609375 414 649 402 649 c 0
 284 649 200 751 200 869 c 0
 200 987 284 1089 402 1089 c 0
 414 1089 423.966796875 1088.75390625 438 1087 c 0
EndSplineSet
EndChar

StartChar: daggerdbl
Encoding: 8225 8225 328
GlifName: daggerdbl
Width: 1888
Flags: HW
LayerCount: 2
Fore
SplineSet
1220 500 m 1
 1120 400 959 293 959 123 c 1
 929 123 l 1
 929 293 768 400 668 500 c 1
 1220 500 l 1
438 349 m 0
 558 334 804 146 944 146 c 1
 944 116 l 1
 804 116 558 -72 438 -87 c 0
 423.966796875 -88.75390625 414 -89 402 -89 c 0
 284 -89 200 13 200 131 c 0
 200 249 284 351 402 351 c 0
 414 351 423.966796875 350.75390625 438 349 c 0
726 -282 m 0
 741 -162 929 -16 929 124 c 1
 959 124 l 1
 959 -16 1147 -162 1162 -282 c 0
 1163.75390625 -296.033203125 1164 -306 1164 -318 c 0
 1164 -436 1062 -520 944 -520 c 0
 826 -520 724 -436 724 -318 c 0
 724 -306 724.24609375 -296.033203125 726 -282 c 0
1450 -87 m 0
 1330 -72 1084 116 944 116 c 1
 944 146 l 1
 1084 146 1330 334 1450 349 c 0
 1464.03320312 350.75390625 1474 351 1486 351 c 0
 1604 351 1688 249 1688 131 c 0
 1688 13 1604 -89 1486 -89 c 0
 1474 -89 1464.03320312 -88.75390625 1450 -87 c 0
668 500 m 1
 768 600 929 707 929 877 c 1
 959 877 l 1
 959 707 1120 600 1220 500 c 1
 668 500 l 1
1450 651 m 0
 1330 666 1084 854 944 854 c 1
 944 884 l 1
 1084 884 1330 1072 1450 1087 c 0
 1464.03320312 1088.75390625 1474 1089 1486 1089 c 0
 1604 1089 1688 987 1688 869 c 0
 1688 751 1604 649 1486 649 c 0
 1474 649 1464.03320312 649.24609375 1450 651 c 0
1162 1282 m 0
 1147 1162 959 1016 959 876 c 1
 929 876 l 1
 929 1016 741 1162 726 1282 c 0
 724.24609375 1296.03320312 724 1306 724 1318 c 0
 724 1436 826 1520 944 1520 c 0
 1062 1520 1164 1436 1164 1318 c 0
 1164 1306 1163.75390625 1296.03320312 1162 1282 c 0
438 1087 m 0
 558 1072 804 884 944 884 c 1
 944 854 l 1
 804 854 558 666 438 651 c 0
 423.966796875 649.24609375 414 649 402 649 c 0
 284 649 200 751 200 869 c 0
 200 987 284 1089 402 1089 c 0
 414 1089 423.966796875 1088.75390625 438 1087 c 0
EndSplineSet
EndChar

StartChar: guilsinglleft
Encoding: 8249 8249 330
GlifName: guilsinglleft
Width: 945
Flags: HW
LayerCount: 2
Fore
SplineSet
502 776 m 1
 845 305 l 1
 830 290 l 1
 50 765 l 1
 50 785 l 1
 830 1260 l 1
 845 1245 l 1
 502 776 l 1
EndSplineSet
EndChar

StartChar: Euro
Encoding: 8364 8364 333
GlifName: E_uro
Width: 2152
Flags: HW
LayerCount: 2
Fore
SplineSet
11 580 m 257
 11 610 l 257
 1131 610 l 261
 1131 580 l 261
 11 580 l 257
11 780 m 257
 11 810 l 257
 1131 810 l 261
 1131 780 l 261
 11 780 l 257
1141 1395 m 1
 1130 1425 l 1
 1489 1425 1763 1263 1763 1059 c 0
 1763 895 1640 809 1510 809 c 0
 1380 809 1265 887 1265 1027 c 0
 1265 1157 1373 1229 1492 1229 c 0
 1549.97460938 1229 1577.37109375 1214.48730469 1603 1214.48730469 c 0
 1610 1214.48730469 1613 1220 1613 1229 c 0
 1613 1297.46484375 1387.98046875 1395 1141 1395 c 1
1141 1395 m 1
 823 1395 630 1134 630 700 c 0
 630 266 843 21 1180 21 c 0
 1474 21 1686 269 1742 412 c 1
 1772 412 l 1
 1712 246 1486 -20 1120 -20 c 0
 584 -20 160 256 160 700 c 0
 160 1144 564 1425 1130 1425 c 1
 1141 1395 l 1
EndSplineSet
EndChar

StartChar: Cowboy
Encoding: 63743 63743 348
GlifName: uniF_8F_F_
Width: 1796
VWidth: 0
Flags: HW
LayerCount: 2
Fore
SplineSet
936 1570 m 0
 1052 1570 1172 1456 1232 1392 c 1
 1258 1388 1282 1384 1302 1384 c 0
 1382 1384 1408 1412 1438 1396 c 0
 1468 1380 1538 1242 1526 1162 c 0
 1514 1082 1462 870 1358 858 c 0
 1336 856 1298 854 1250 850 c 1
 1256 864 1260 880 1262 900 c 0
 1268 958 1266 1030 1254 1024 c 0
 1242 1018 1256 1118 1228 1144 c 0
 1200 1170 1132 1236 960 1240 c 0
 788 1244 752 1254 720 1216 c 0
 688 1178 692 1152 690 1126 c 0
 688 1100 702 980 702 980 c 1
 702 980 656 1016 648 1004 c 0
 640 992 652 924 664 880 c 0
 666 874 670 864 672 858 c 1
 664 860 658 862 652 864 c 0
 534 914 424 1052 412 1170 c 0
 400 1288 458 1464 458 1464 c 1
 458 1464 484 1426 560 1426 c 0
 617 1426 680 1439 716 1447 c 1
 750 1498 828 1570 936 1570 c 0
1100 1102 m 0
 1140 1102 1180 1048 1180 1048 c 1
 1180 1048 1124 1082 1090 1082 c 0
 1056 1082 1024 1054 1024 1054 c 2
 1024 1054 1058 1100 1098 1102 c 0
 1100 1102 1098 1102 1100 1102 c 0
840 1086 m 0
 882 1086 906 1064 906 1064 c 2
 906 1064 872 1070 834 1068 c 0
 796 1066 752 1018 752 1018 c 1
 752 1018 784 1080 830 1084 c 0
 832 1084 838 1086 840 1086 c 0
1004 810 m 0
 1008 810 l 0
 1026 808 1078 790 1078 790 c 1
 1078 790 1000 784 992 788 c 0
 984 792 988 810 1004 810 c 0
944 804 m 0
 954 804 960 802 960 794 c 0
 958 772 850 770 850 770 c 1
 850 770 862 782 888 790 c 0
 904 796 928 804 944 804 c 0
756 636 m 1
 794 574 842 534 942 538 c 0
 1018 542 1094 566 1142 618 c 1
 1140 556 1136 498 1126 472 c 0
 1100 408 942 372 942 372 c 1
 942 372 802 476 768 552 c 0
 758 572 754 602 756 636 c 1
756 636 m 1
 756 636 716 466 690 142 c 0
 686 96 686 46 684 0 c 1
 0 0 l 1
 0 44 l 1
 28 144 60 264 84 320 c 0
 130 430 156 468 156 468 c 1
 156 468 324 526 458 526 c 0
 592 526 630 522 714 598 c 0
 740 620 756 636 756 636 c 1
942 372 m 1
 1010 316 l 1
 966 216 l 1
 966 216 950 152 1022 26 c 0
 1026 18 1030 10 1034 0 c 1
 824 0 l 1
 846 68 870 100 884 126 c 0
 904 164 920 220 920 220 c 1
 888 308 l 1
 942 372 l 1
1156 570 m 1
 1176 554 1192 540 1208 526 c 0
 1300 446 1434 430 1580 372 c 0
 1726 314 1766 314 1766 100 c 0
 1766 68 1766 34 1766 0 c 1
 1232 0 l 1
 1230 18 1230 34 1228 52 c 0
 1214 240 1178 458 1156 570 c 1
EndSplineSet
EndChar

StartChar: acute
Encoding: 180 180 353
GlifName: acute
Width: 823
Flags: HW
LayerCount: 2
Fore
SplineSet
531 1360 m 6
 100 1446 l 5
 100 1476 l 5
 511 1656 l 6
 611 1700 723 1618 723 1520 c 4
 723 1422 630 1340 531 1360 c 6
EndSplineSet
EndChar

StartChar: at
Encoding: 64 64 365
GlifName: at
Width: 2552
VWidth: 2308
Flags: HW
LayerCount: 2
Back
SplineSet
4003 2011 m 5
 1364 -628 l 5
 1349 -628 l 5
 3988 2011 l 5
 4003 2011 l 5
3973 2011 m 5
 1334 -628 l 5
 1319 -628 l 5
 3958 2011 l 5
 3973 2011 l 5
3943 2011 m 5
 1304 -628 l 5
 1289 -628 l 5
 3928 2011 l 5
 3943 2011 l 5
3913 2011 m 5
 1274 -628 l 5
 1259 -628 l 5
 3898 2011 l 5
 3913 2011 l 5
3883 2011 m 5
 1244 -628 l 5
 1229 -628 l 5
 3868 2011 l 5
 3883 2011 l 5
3853 2011 m 5
 1214 -628 l 5
 1199 -628 l 5
 3838 2011 l 5
 3853 2011 l 5
3823 2011 m 5
 1184 -628 l 5
 1169 -628 l 5
 3808 2011 l 5
 3823 2011 l 5
3793 2011 m 5
 1154 -628 l 5
 1139 -628 l 5
 3778 2011 l 5
 3793 2011 l 5
3763 2011 m 5
 1124 -628 l 5
 1109 -628 l 5
 3748 2011 l 5
 3763 2011 l 5
3733 2011 m 5
 1094 -628 l 5
 1079 -628 l 5
 3718 2011 l 5
 3733 2011 l 5
3703 2011 m 5
 1064 -628 l 5
 1049 -628 l 5
 3688 2011 l 5
 3703 2011 l 5
3673 2011 m 5
 1034 -628 l 5
 1019 -628 l 5
 3658 2011 l 5
 3673 2011 l 5
3643 2011 m 5
 1004 -628 l 5
 989 -628 l 5
 3628 2011 l 5
 3643 2011 l 5
3613 2011 m 5
 974 -628 l 5
 959 -628 l 5
 3598 2011 l 5
 3613 2011 l 5
3583 2011 m 5
 944 -628 l 5
 929 -628 l 5
 3568 2011 l 5
 3583 2011 l 5
3553 2011 m 5
 914 -628 l 5
 899 -628 l 5
 3538 2011 l 5
 3553 2011 l 5
3523 2011 m 5
 884 -628 l 5
 869 -628 l 5
 3508 2011 l 5
 3523 2011 l 5
3493 2011 m 5
 854 -628 l 5
 839 -628 l 5
 3478 2011 l 5
 3493 2011 l 5
3463 2011 m 5
 824 -628 l 5
 809 -628 l 5
 3448 2011 l 5
 3463 2011 l 5
3433 2011 m 5
 794 -628 l 5
 779 -628 l 5
 3418 2011 l 5
 3433 2011 l 5
3403 2011 m 5
 764 -628 l 5
 749 -628 l 5
 3388 2011 l 5
 3403 2011 l 5
3373 2011 m 5
 734 -628 l 5
 719 -628 l 5
 3358 2011 l 5
 3373 2011 l 5
3343 2011 m 5
 704 -628 l 5
 689 -628 l 5
 3328 2011 l 5
 3343 2011 l 5
3313 2011 m 5
 674 -628 l 5
 659 -628 l 5
 3298 2011 l 5
 3313 2011 l 5
3283 2011 m 5
 644 -628 l 5
 629 -628 l 5
 3268 2011 l 5
 3283 2011 l 5
3253 2011 m 5
 614 -628 l 5
 599 -628 l 5
 3238 2011 l 5
 3253 2011 l 5
3223 2011 m 5
 584 -628 l 5
 569 -628 l 5
 3208 2011 l 5
 3223 2011 l 5
3193 2011 m 5
 554 -628 l 5
 539 -628 l 5
 3178 2011 l 5
 3193 2011 l 5
3163 2011 m 5
 524 -628 l 5
 509 -628 l 5
 3148 2011 l 5
 3163 2011 l 5
3133 2011 m 5
 494 -628 l 5
 479 -628 l 5
 3118 2011 l 5
 3133 2011 l 5
3103 2011 m 5
 464 -628 l 5
 449 -628 l 5
 3088 2011 l 5
 3103 2011 l 5
3073 2011 m 5
 434 -628 l 5
 419 -628 l 5
 3058 2011 l 5
 3073 2011 l 5
3043 2011 m 5
 404 -628 l 5
 389 -628 l 5
 3028 2011 l 5
 3043 2011 l 5
3013 2011 m 5
 374 -628 l 5
 359 -628 l 5
 2998 2011 l 5
 3013 2011 l 5
2983 2011 m 5
 344 -628 l 5
 329 -628 l 5
 2968 2011 l 5
 2983 2011 l 5
2953 2011 m 5
 314 -628 l 5
 299 -628 l 5
 2938 2011 l 5
 2953 2011 l 5
2923 2011 m 5
 284 -628 l 5
 269 -628 l 5
 2908 2011 l 5
 2923 2011 l 5
2893 2011 m 5
 254 -628 l 5
 239 -628 l 5
 2878 2011 l 5
 2893 2011 l 5
2863 2011 m 5
 224 -628 l 5
 209 -628 l 5
 2848 2011 l 5
 2863 2011 l 5
2833 2011 m 5
 194 -628 l 5
 179 -628 l 5
 2818 2011 l 5
 2833 2011 l 5
2803 2011 m 5
 164 -628 l 5
 149 -628 l 5
 2788 2011 l 5
 2803 2011 l 5
2773 2011 m 5
 134 -628 l 5
 119 -628 l 5
 2758 2011 l 5
 2773 2011 l 5
2743 2011 m 5
 104 -628 l 5
 89 -628 l 5
 2728 2011 l 5
 2743 2011 l 5
2713 2011 m 5
 74 -628 l 5
 59 -628 l 5
 2698 2011 l 5
 2713 2011 l 5
2683 2011 m 5
 44 -628 l 5
 29 -628 l 5
 2668 2011 l 5
 2683 2011 l 5
2653 2011 m 5
 14 -628 l 5
 -1 -628 l 5
 2638 2011 l 5
 2653 2011 l 5
2623 2011 m 5
 -16 -628 l 5
 -31 -628 l 5
 2608 2011 l 5
 2623 2011 l 5
2593 2011 m 5
 -46 -628 l 5
 -61 -628 l 5
 2578 2011 l 5
 2593 2011 l 5
2563 2011 m 5
 -76 -628 l 5
 -91 -628 l 5
 2548 2011 l 5
 2563 2011 l 5
2533 2011 m 5
 -106 -628 l 5
 -121 -628 l 5
 2518 2011 l 5
 2533 2011 l 5
2503 2011 m 5
 -136 -628 l 5
 -151 -628 l 5
 2488 2011 l 5
 2503 2011 l 5
2473 2011 m 5
 -166 -628 l 5
 -181 -628 l 5
 2458 2011 l 5
 2473 2011 l 5
2443 2011 m 5
 -196 -628 l 5
 -211 -628 l 5
 2428 2011 l 5
 2443 2011 l 5
2413 2011 m 5
 -226 -628 l 5
 -241 -628 l 5
 2398 2011 l 5
 2413 2011 l 5
2383 2011 m 5
 -256 -628 l 5
 -271 -628 l 5
 2368 2011 l 5
 2383 2011 l 5
2353 2011 m 5
 -286 -628 l 5
 -301 -628 l 5
 2338 2011 l 5
 2353 2011 l 5
2323 2011 m 5
 -316 -628 l 5
 -331 -628 l 5
 2308 2011 l 5
 2323 2011 l 5
2293 2011 m 5
 -346 -628 l 5
 -361 -628 l 5
 2278 2011 l 5
 2293 2011 l 5
2263 2011 m 5
 -376 -628 l 5
 -391 -628 l 5
 2248 2011 l 5
 2263 2011 l 5
2233 2011 m 5
 -406 -628 l 5
 -421 -628 l 5
 2218 2011 l 5
 2233 2011 l 5
2203 2011 m 5
 -436 -628 l 5
 -451 -628 l 5
 2188 2011 l 5
 2203 2011 l 5
2173 2011 m 5
 -466 -628 l 5
 -481 -628 l 5
 2158 2011 l 5
 2173 2011 l 5
2143 2011 m 5
 -496 -628 l 5
 -511 -628 l 5
 2128 2011 l 5
 2143 2011 l 5
2113 2011 m 5
 -526 -628 l 5
 -541 -628 l 5
 2098 2011 l 5
 2113 2011 l 5
2083 2011 m 5
 -556 -628 l 5
 -571 -628 l 5
 2068 2011 l 5
 2083 2011 l 5
2053 2011 m 5
 -586 -628 l 5
 -601 -628 l 5
 2038 2011 l 5
 2053 2011 l 5
2023 2011 m 5
 -616 -628 l 5
 -631 -628 l 5
 2008 2011 l 5
 2023 2011 l 5
1993 2011 m 5
 -646 -628 l 5
 -661 -628 l 5
 1978 2011 l 5
 1993 2011 l 5
1963 2011 m 5
 -676 -628 l 5
 -691 -628 l 5
 1948 2011 l 5
 1963 2011 l 5
1933 2011 m 5
 -706 -628 l 5
 -721 -628 l 5
 1918 2011 l 5
 1933 2011 l 5
1903 2011 m 5
 -736 -628 l 5
 -751 -628 l 5
 1888 2011 l 5
 1903 2011 l 5
1873 2011 m 5
 -766 -628 l 5
 -781 -628 l 5
 1858 2011 l 5
 1873 2011 l 5
1843 2011 m 5
 -796 -628 l 5
 -811 -628 l 5
 1828 2011 l 5
 1843 2011 l 5
1813 2011 m 5
 -826 -628 l 5
 -841 -628 l 5
 1798 2011 l 5
 1813 2011 l 5
1783 2011 m 5
 -856 -628 l 5
 -871 -628 l 5
 1768 2011 l 5
 1783 2011 l 5
1753 2011 m 5
 -886 -628 l 5
 -901 -628 l 5
 1738 2011 l 5
 1753 2011 l 5
1723 2011 m 5
 -916 -628 l 5
 -931 -628 l 5
 1708 2011 l 5
 1723 2011 l 5
1693 2011 m 5
 -946 -628 l 5
 -961 -628 l 5
 1678 2011 l 5
 1693 2011 l 5
1663 2011 m 5
 -976 -628 l 5
 -991 -628 l 5
 1648 2011 l 5
 1663 2011 l 5
1633 2011 m 5
 -1006 -628 l 5
 -1021 -628 l 5
 1618 2011 l 5
 1633 2011 l 5
1603 2011 m 5
 -1036 -628 l 5
 -1051 -628 l 5
 1588 2011 l 5
 1603 2011 l 5
1573 2011 m 5
 -1066 -628 l 5
 -1081 -628 l 5
 1558 2011 l 5
 1573 2011 l 5
1543 2011 m 5
 -1096 -628 l 5
 -1111 -628 l 5
 1528 2011 l 5
 1543 2011 l 5
1513 2011 m 5
 -1126 -628 l 5
 -1141 -628 l 5
 1498 2011 l 5
 1513 2011 l 5
1483 2011 m 5
 -1156 -628 l 5
 -1171 -628 l 5
 1468 2011 l 5
 1483 2011 l 5
1453 2011 m 5
 -1186 -628 l 5
 -1201 -628 l 5
 1438 2011 l 5
 1453 2011 l 5
1423 2011 m 5
 -1216 -628 l 5
 -1231 -628 l 5
 1408 2011 l 5
 1423 2011 l 5
1393 2011 m 5
 -1246 -628 l 5
 -1261 -628 l 5
 1378 2011 l 5
 1393 2011 l 5
1363 2011 m 5
 -1276 -628 l 5
 -1291 -628 l 5
 1348 2011 l 5
 1363 2011 l 5
1333 2011 m 5
 -1306 -628 l 5
 -1321 -628 l 5
 1318 2011 l 5
 1333 2011 l 5
1303 2011 m 5
 -1336 -628 l 5
 -1351 -628 l 5
 1288 2011 l 5
 1303 2011 l 5
1273 2011 m 5
 -1366 -628 l 5
 -1381 -628 l 5
 1258 2011 l 5
 1273 2011 l 5
1243 2011 m 5
 -1396 -628 l 5
 -1411 -628 l 5
 1228 2011 l 5
 1243 2011 l 5
1213 2011 m 5
 -1426 -628 l 5
 -1441 -628 l 5
 1198 2011 l 5
 1213 2011 l 5
1183 2011 m 5
 -1456 -628 l 5
 -1471 -628 l 5
 1168 2011 l 5
 1183 2011 l 5
1153 2011 m 5
 -1486 -628 l 5
 -1501 -628 l 5
 1138 2011 l 5
 1153 2011 l 5
EndSplineSet
Fore
SplineSet
524 714 m 1
 956 714 l 1
 956 496 1014 353 1212 353 c 0
 1353.3671875 353 1512 464 1512 714 c 1
 1542 714 l 1
 1542 489 1417 294 1124 294 c 0
 772 294 524 474 524 714 c 1
524 714 m 1
 524 954 772 1134 1124 1134 c 0
 1417 1134 1542 939 1542 714 c 1
 1512 714 l 1
 1512 964 1353.3671875 1075 1212 1075 c 0
 1014 1075 956 932 956 714 c 1
 524 714 l 1
1512 575 m 2
 1512 1110 l 1
 1894 1110 l 1
 1894 495 l 2
 1894 397 1950 349 2064 349 c 0
 2170 349 2417 446 2417 742 c 0
 2417 1112 1944 1420 1302 1420 c 0
 688 1420 135 1142 135 662 c 4
 135 183 776 -8 1280 -8 c 4
 1642 -8 1946 72 2126 168 c 1
 2137 139 l 1
 1969 43 1646 -38 1280 -38 c 4
 744 -38 100 161 100 662 c 4
 100 1163 666 1450 1302 1450 c 0
 1968 1450 2452 1128 2452 742 c 0
 2452 422 2175 291 1934 291 c 0
 1656 291 1512 401 1512 575 c 2
EndSplineSet
EndChar

StartChar: Eng
Encoding: 330 330 366
GlifName: E_ng
Width: 2888
Flags: HW
LayerCount: 2
Fore
SplineSet
2073 710 m 17
 2073 1144 1732 1390 1395 1390 c 4
 1091 1390 806 1191 806 828 c 1
 776 828 l 1
 780 1214 1079 1430 1465 1430 c 0
 2001 1430 2475 1154 2475 710 c 1
 2073 710 l 17
2073 710 m 1
 2475 710 l 1
 2475 359 l 2
 2475 340.868164062 2468.61230469 325.46484375 2462.27832031 316 c 0
 2298.63769531 71.4931640625 2027.13867188 -61 1752 -61 c 0
 1498 -61 1210 130 1210 330 c 0
 1210 474 1323 575 1454 575 c 0
 1574 575 1697 485 1697 343 c 0
 1697 227 1623 168 1494 168 c 0
 1449 168 1420 157 1420 133 c 0
 1420 120 1426.76464844 104.7421875 1452 78 c 0
 1519 7 1618 -31 1747 -31 c 0
 1920 -31 2073 101 2073 380 c 2
 2073 710 l 1
1130 20 m 1
 1130 0 l 1
 806 0 l 1
 806 175 l 17
 806 120 833.288085938 104.35546875 933.708007812 65 c 0
 998.973632812 39.421875 1048.97558594 29 1130 20 c 1
80 20 m 1
 161.024414062 29 211.026367188 39.421875 276.291992188 65 c 0
 376.711914062 104.35546875 404 120 404 175 c 9
 404 0 l 1
 80 0 l 1
 80 20 l 1
80 1380 m 1
 80 1400 l 1
 404 1400 l 1
 404 1225 l 17
 404 1280 376.711914062 1295.64453125 276.291992188 1335 c 0
 211.026367188 1360.578125 161.024414062 1371 80 1380 c 1
404 1400 m 1
 806 1400 l 1
 806 0 l 1
 404 0 l 1
 404 1400 l 1
EndSplineSet
EndChar

StartChar: A
Encoding: 65 65 367
Width: 2000
VWidth: 0
LayerCount: 2
Back
SplineSet
4003 2011 m 5
 1364 -628 l 5
 -1501 -628 l 5
 1138 2011 l 5
 4003 2011 l 5
EndSplineSet
EndChar
